<svg width="479" height="504" viewBox="0 0 479 504" fill="none" xmlns="http://www.w3.org/2000/svg">
<path d="M479 385.461H0V385.713H479V385.461Z" fill="#EBEBEB"/>
<path d="M431.004 401.68H399.275V401.932H431.004V401.68Z" fill="#EBEBEB"/>
<path d="M317.309 404.422H308.984V404.674H317.309V404.422Z" fill="#EBEBEB"/>
<path d="M398.318 392.324H379.934V392.576H398.318V392.324Z" fill="#EBEBEB"/>
<path d="M91.6319 394.02H50.2559V394.272H91.6319V394.02Z" fill="#EBEBEB"/>
<path d="M106.232 394.02H100.168V394.272H106.232V394.02Z" fill="#EBEBEB"/>
<path d="M215.695 398.273H125.949V398.525H215.695V398.273Z" fill="#EBEBEB"/>
<path d="M227.046 340.504H42.0661C40.6169 340.501 39.228 339.894 38.2043 338.814C37.1805 337.735 36.6055 336.273 36.6055 334.748V61.1467C36.6181 59.6307 37.1987 58.1811 38.2211 57.1129C39.2435 56.0447 40.6252 55.444 42.0661 55.4414H227.046C228.497 55.4414 229.888 56.0478 230.914 57.1272C231.94 58.2066 232.516 59.6706 232.516 61.1971V334.748C232.516 336.275 231.94 337.739 230.914 338.818C229.888 339.897 228.497 340.504 227.046 340.504ZM42.0661 55.643C40.6805 55.6457 39.3525 56.2267 38.3736 57.2586C37.3947 58.2904 36.845 59.6888 36.845 61.1467V334.748C36.845 336.206 37.3947 337.604 38.3736 338.636C39.3525 339.668 40.6805 340.249 42.0661 340.252H227.046C228.433 340.249 229.762 339.668 230.742 338.637C231.723 337.605 232.274 336.207 232.277 334.748V61.1467C232.274 59.6878 231.723 58.2895 230.742 57.2579C229.762 56.2264 228.433 55.6457 227.046 55.643H42.0661Z" fill="#EBEBEB"/>
<path d="M434.271 340.504H249.281C247.831 340.501 246.441 339.894 245.416 338.815C244.39 337.736 243.813 336.274 243.811 334.748V61.1467C243.826 59.6298 244.408 58.1802 245.432 57.1123C246.456 56.0443 247.839 55.444 249.281 55.4414H434.271C435.71 55.4467 437.089 56.0485 438.109 57.1164C439.13 58.1844 439.709 59.6324 439.722 61.1467V334.748C439.722 336.271 439.148 337.732 438.126 338.811C437.104 339.89 435.718 340.498 434.271 340.504ZM249.281 55.643C247.894 55.6457 246.565 56.2264 245.585 57.2579C244.604 58.2895 244.053 59.6878 244.05 61.1467V334.748C244.053 336.207 244.604 337.605 245.585 338.637C246.565 339.668 247.894 340.249 249.281 340.252H434.271C435.657 340.249 436.986 339.668 437.966 338.637C438.947 337.605 439.499 336.207 439.501 334.748V61.1467C439.499 59.6878 438.947 58.2895 437.966 57.2579C436.986 56.2264 435.657 55.6457 434.271 55.643H249.281Z" fill="#EBEBEB"/>
<path d="M346.412 253.171H354.747C354.689 247.123 354.747 231.711 355.331 196.421C356.375 132.463 358.291 128.562 358.291 128.562L348.395 160.133C346.051 167.556 344.685 175.282 344.333 183.095C343.279 207.711 347.37 227.357 346.412 253.171Z" fill="#E6E6E6"/>
<path d="M340.089 150.616C328.986 132.926 306.808 123.693 284.142 115.004C275.242 111.587 300.217 153.923 318.371 173.105C332.483 188.013 346.153 187.681 350.215 202.418C351.001 185.312 349.669 165.857 340.089 150.616Z" fill="#E6E6E6"/>
<path d="M352.812 139.256C361.521 118.572 383.526 91.7391 408.252 72.8391C417.966 65.4202 394.006 129.116 377.107 155.223C363.954 175.544 351.682 187.912 349.766 202.417C341.47 184.273 344.114 159.94 352.812 139.256Z" fill="#E6E6E6"/>
<path d="M351.989 272.303C347.282 272.301 342.754 270.407 339.331 267.008C335.908 263.609 333.85 258.962 333.576 254.018L331.947 236.469H372.03L370.401 254.018C370.132 258.964 368.075 263.613 364.651 267.013C361.227 270.413 356.697 272.306 351.989 272.303Z" fill="#F0F0F0"/>
<path d="M374.625 236.568H329.35L328.057 230.328H375.918L374.625 236.568Z" fill="#F0F0F0"/>
<path d="M372.394 247.253H331.583L330.414 241.023H373.562L372.394 247.253Z" fill="#F0F0F0"/>
<path d="M73.516 227.488L286.527 227.488V84.4531L73.516 84.4531L73.516 227.488Z" fill="#E6E6E6"/>
<path d="M68.3062 227.488L284.096 227.488V84.4531L68.3062 84.4531L68.3062 227.488Z" fill="#F0F0F0"/>
<path d="M73.516 237.68L286.527 237.68V227.489L73.516 227.489V237.68Z" fill="#E6E6E6"/>
<path d="M64.4647 227.489H270.569C271.202 227.482 271.83 227.607 272.417 227.858C273.003 228.108 273.537 228.478 273.987 228.947C274.437 229.415 274.794 229.973 275.038 230.588C275.281 231.203 275.407 231.862 275.407 232.529C275.408 233.198 275.284 233.861 275.041 234.48C274.799 235.098 274.442 235.661 273.993 236.135C273.544 236.608 273.01 236.984 272.422 237.241C271.835 237.497 271.205 237.629 270.569 237.629H64.4647C63.179 237.629 61.9461 237.092 61.037 236.135C60.1279 235.179 59.6172 233.881 59.6172 232.529C59.6323 231.186 60.1497 229.904 61.0571 228.961C61.9646 228.018 63.1889 227.488 64.4647 227.489Z" fill="#F0F0F0"/>
<path d="M276.805 219.806V92.1328L75.6151 92.1328V219.806H276.805Z" fill="#FAFAFA"/>
<path d="M262.837 219.806L220.005 92.1328H199.781L242.613 219.806H262.837Z" fill="white"/>
<path d="M273.422 176.493C273.283 176.493 273.149 176.434 273.05 176.33C272.951 176.226 272.895 176.085 272.895 175.938V97.1329C272.885 97.0545 272.891 96.9747 272.913 96.899C272.934 96.8232 272.971 96.7532 273.021 96.6936C273.07 96.634 273.131 96.5863 273.2 96.5536C273.268 96.5208 273.342 96.5039 273.418 96.5039C273.493 96.5039 273.567 96.5208 273.635 96.5536C273.704 96.5863 273.765 96.634 273.814 96.6936C273.864 96.7532 273.901 96.8232 273.922 96.899C273.944 96.9747 273.95 97.0545 273.94 97.1329V175.938C273.94 176.084 273.885 176.223 273.789 176.327C273.692 176.431 273.56 176.49 273.422 176.493Z" fill="#F0F0F0"/>
<path d="M238.273 219.806L195.441 92.1328H187.557L230.389 219.806H238.273Z" fill="white"/>
<path d="M194.915 219.806L152.083 92.1328H131.869L174.692 219.806H194.915Z" fill="white"/>
<path d="M141.172 219.806L98.3394 92.1328H90.4551L133.287 219.806H141.172Z" fill="white"/>
<path d="M76.5254 219.806L76.5254 92.1328H75.5961L75.5961 219.806H76.5254Z" fill="#E6E6E6"/>
<path opacity="0.4" d="M66.5801 104.844H279.591L280.262 95.1172H67.2507L66.5801 104.844Z" fill="#E6E6E6"/>
<path opacity="0.4" d="M66.5801 111.972H279.591L280.262 102.234H67.2507L66.5801 111.972Z" fill="#E6E6E6"/>
<path opacity="0.4" d="M66.5801 120.508H279.591L280.262 110.781H67.2507L66.5801 120.508Z" fill="#E6E6E6"/>
<path opacity="0.4" d="M66.5801 130.012H279.591L280.262 120.285H67.2507L66.5801 130.012Z" fill="#E6E6E6"/>
<path opacity="0.4" d="M66.5801 141.413H279.591L280.262 131.676H67.2507L66.5801 141.413Z" fill="#E6E6E6"/>
<path opacity="0.4" d="M66.5801 154.227H279.591L280.262 144.5H67.2507L66.5801 154.227Z" fill="#E6E6E6"/>
<path d="M87.7694 385.047C105.499 382.119 117.616 364.623 114.833 345.968C112.05 327.313 95.4218 314.563 77.6922 317.491C59.9626 320.419 47.8457 337.916 50.6284 356.571C53.4112 375.226 70.0397 387.975 87.7694 385.047Z" fill="#F5F5F5"/>
<g style="mix-blend-mode:multiply" opacity="0.7">
<path d="M80.9133 324.959C78.1255 324.838 75.9221 323.578 75.9796 322.136C76.0371 320.695 78.3363 319.646 81.1241 319.767C83.9119 319.888 86.1153 321.158 86.0578 322.59C86.0003 324.021 83.7011 325.079 80.9133 324.959Z" fill="#E6E6E6"/>
</g>
<g style="mix-blend-mode:multiply" opacity="0.7">
<path d="M66.9364 330.123C64.5989 331.706 62.0985 332.008 61.3609 330.809C60.6232 329.609 61.9261 327.331 64.2349 325.769C66.5436 324.206 69.0249 323.874 69.8104 325.083C70.596 326.293 69.2835 328.531 66.9364 330.123Z" fill="#E6E6E6"/>
</g>
<g style="mix-blend-mode:multiply" opacity="0.7">
<path d="M76.7739 336.746C74.2257 337.955 71.6007 337.602 70.9014 335.959C70.2021 334.316 71.687 332.008 74.2257 330.808C76.7644 329.609 79.3893 329.952 80.0982 331.595C80.8071 333.238 79.3126 335.536 76.7739 336.746Z" fill="#E6E6E6"/>
</g>
<path d="M122.94 385.461H163.301V272.303H122.94L122.94 385.461Z" fill="#E6E6E6"/>
<path d="M130.603 385.462H122.93V355.555H138.641L130.603 385.462Z" fill="#F0F0F0"/>
<path d="M353.223 385.461H393.584V272.303H353.223V385.461Z" fill="#E6E6E6"/>
<path d="M122.939 377.297L359.92 377.297V272.304H122.939V377.297Z" fill="#F0F0F0"/>
<path d="M352.247 385.462H359.911V355.555H344.209L352.247 385.462Z" fill="#F0F0F0"/>
<path d="M352.774 364.656H281.039V283.875H352.774V364.656ZM282.524 363.094H351.289V285.478H282.524V363.094Z" fill="#E6E6E6"/>
<path d="M277.294 364.656H205.559V283.875H277.294V364.656ZM207.043 363.094H275.809V285.478H207.043V363.094Z" fill="#E6E6E6"/>
<path d="M201.803 364.656H130.068V283.875H201.803V364.656ZM131.553 363.094H200.319V285.478H131.553V363.094Z" fill="#E6E6E6"/>
<path d="M239.501 430.981C342.086 430.981 425.247 425.873 425.247 419.571C425.247 413.269 342.086 408.16 239.501 408.16C136.915 408.16 53.7539 413.269 53.7539 419.571C53.7539 425.873 136.915 430.981 239.501 430.981Z" fill="#F5F5F5"/>
<path d="M247.442 116.374C233.072 110.558 218.501 125.104 219.66 152.108C220.532 172.268 202.205 170.071 211.785 188.023C221.365 205.975 214.266 218.122 204.121 214.856C211.785 225.017 234.423 217.174 234.49 200.603C234.557 184.031 273.308 208.213 273.308 208.213C273.308 208.213 265.443 222.769 287.4 219.392C309.357 216.015 328.412 169.556 328.489 148.923C328.546 135.244 314.655 128.924 307.633 130.265C307.374 112.796 240.736 80.3182 247.442 116.374Z" fill="#263238"/>
<path d="M208.932 214.05C206.916 214.052 204.924 213.587 203.098 212.689L203.529 211.792C203.529 211.792 207.936 214.111 212.151 212.508C214.699 211.5 216.682 209.323 218.052 205.926L218.933 206.319C217.458 209.988 215.283 212.367 212.467 213.456C211.33 213.869 210.134 214.07 208.932 214.05Z" fill="#263238"/>
<path d="M213.05 174.807L212.303 174.182C217.6 167.237 217.026 160.907 216.355 153.579C215.752 146.906 215.062 139.336 218.942 130.102C223.301 119.74 229.192 113.581 235.984 112.291C241.656 111.202 247.672 113.722 252.932 119.347L252.251 120.053C247.222 114.65 241.503 112.231 236.157 113.249C229.69 114.478 224.038 120.446 219.871 130.485C216.039 139.477 216.767 146.896 217.361 153.448C217.965 160.715 218.587 167.55 213.05 174.807Z" fill="#263238"/>
<path d="M134.399 285.839L130.844 274.307C129.905 271.255 128.153 268.55 125.796 266.515L121.676 262.947C120.3 262.261 118.758 262.032 117.255 262.291C115.753 262.551 114.361 263.286 113.265 264.399L106.76 270.971C105.397 272.349 104.576 274.216 104.463 276.202C104.349 278.188 104.951 280.146 106.147 281.686L108.935 285.264C108.935 285.264 117.327 298.933 128.037 303.267L130.183 300.777C131.901 298.776 133.171 296.396 133.901 293.811C134.63 291.226 134.8 288.502 134.399 285.839Z" fill="#FF8B7B"/>
<path d="M233.945 277.895L233.408 279.558L232.92 281.03L231.962 283.902C231.301 285.808 230.582 287.652 229.873 289.497C228.446 293.196 226.894 296.805 225.284 300.393C223.675 303.982 221.97 307.52 220.178 311.028C218.387 314.536 216.557 318.003 214.555 321.41C210.594 328.302 206.247 334.94 201.536 341.288C196.735 347.801 191.449 353.902 185.729 359.533C185.001 360.238 184.282 360.954 183.535 361.65L181.264 363.716L180.699 364.23L180.412 364.492L179.712 365.107C178.424 366.199 177.015 367.123 175.516 367.859C173.842 368.677 172.064 369.233 170.238 369.512C168.517 369.775 166.77 369.792 165.045 369.562C162.46 369.212 159.957 368.368 157.659 367.073C156.09 366.185 154.61 365.131 153.243 363.928C151.221 362.154 149.369 360.175 147.715 358.021C145.072 354.57 142.695 350.903 140.607 347.054C138.643 343.455 136.909 339.887 135.271 336.329C132.052 329.182 129.274 322.045 126.792 314.828C124.311 307.611 122.089 300.403 120.221 292.854C119.769 290.879 119.998 288.801 120.867 286.988C121.736 285.175 123.189 283.745 124.967 282.955C126.745 282.164 128.731 282.064 130.573 282.671C132.414 283.279 133.991 284.554 135.022 286.271L135.117 286.443C142.293 298.902 149.401 311.723 156.96 323.315C158.828 326.218 160.744 329.031 162.708 331.621C164.445 334.038 166.347 336.319 168.398 338.445C169.046 339.125 169.773 339.715 170.563 340.199C170.774 340.31 170.86 340.199 170.563 340.068C169.843 339.621 169.039 339.343 168.207 339.252C167.361 339.131 166.504 339.131 165.659 339.252C164.706 339.389 163.777 339.667 162.899 340.078C162.197 340.408 161.535 340.824 160.926 341.318L160.754 341.469L160.677 341.53L160.725 341.479L160.926 341.258L161.338 340.824L162.957 339.09L164.528 337.296C168.764 332.35 172.687 327.118 176.273 321.632C179.885 316.038 183.362 310.262 186.524 304.214C189.685 298.166 192.684 291.997 195.481 285.707C196.88 282.552 198.202 279.377 199.495 276.201L201.411 271.444L202.302 269.095L203.068 266.988L203.318 266.303C204.778 262.025 207.794 258.534 211.702 256.596C215.61 254.659 220.089 254.434 224.154 255.971C228.219 257.508 231.538 260.681 233.379 264.793C235.221 268.905 235.434 273.617 233.974 277.895H233.945Z" fill="#FF8B7B"/>
<path d="M199.121 282.029C199.533 291.968 184.626 314.94 203.029 328.256C205.194 348.325 207.906 368.082 212.993 400.993H309.022C305.076 372.527 305.938 340.09 318.602 276.001C319.299 272.496 319.288 268.876 318.568 265.376C317.849 261.876 316.438 258.574 314.427 255.685C312.416 252.796 309.85 250.385 306.895 248.607C303.941 246.83 300.664 245.726 297.277 245.368C293.445 244.965 289.383 244.622 285.226 244.36C269.074 243.544 255.825 242.999 241.618 244.36C236.914 244.814 232.038 245.439 227.401 246.124C219.289 247.34 211.899 251.692 206.67 258.33C201.442 264.968 198.751 273.417 199.121 282.029Z" fill="#263238"/>
<mask id="mask0_5155_4147" style="mask-type:luminance" maskUnits="userSpaceOnUse" x="193" y="243" width="127" height="158">
<path d="M199.121 282.029C199.533 291.968 184.626 314.94 203.029 328.256C205.194 348.325 207.906 368.082 212.993 400.993H309.022C305.076 372.527 305.938 340.09 318.602 276.001C319.299 272.496 319.288 268.876 318.568 265.376C317.849 261.876 316.438 258.574 314.427 255.685C312.416 252.796 309.85 250.385 306.895 248.607C303.941 246.83 300.664 245.726 297.277 245.368C293.445 244.965 289.383 244.622 285.226 244.36C269.074 243.544 255.825 242.999 241.618 244.36C236.914 244.814 232.038 245.439 227.401 246.124C219.289 247.34 211.899 251.692 206.67 258.33C201.442 264.968 198.751 273.417 199.121 282.029Z" fill="white"/>
</mask>
<g mask="url(#mask0_5155_4147)">
<path opacity="0.2" d="M198.795 268.663C203.25 273.562 209.889 275.406 213.165 273.884C216.442 272.362 212.476 270.769 208.941 270.578C205.406 270.386 211 268.975 216.969 269.661C222.937 270.346 222.42 265.911 216.011 264.752C209.602 263.592 216.106 263.068 221.423 263.472C226.74 263.875 227.334 259.873 220.916 258.432C214.497 256.99 232.728 258.008 226.664 251.376C220.599 244.743 217.438 260.276 217.409 254.601C217.381 248.926 212.715 248.432 211.862 252.958C211.01 257.484 208.826 262.736 209.084 257.131C209.343 251.527 204.457 250.025 203.767 255.115C203.078 260.206 200.108 264.55 200.759 261.556C201.411 258.563 200.587 254.904 198.058 257.242C195.529 259.581 194.35 263.764 198.795 268.663Z" fill="white"/>
<path opacity="0.2" d="M249.589 274.842C245.087 269.993 238.429 268.219 235.219 269.802C232.01 271.384 235.928 272.896 239.473 273.057C243.018 273.219 237.423 274.68 231.454 274.065C225.486 273.451 226.032 277.876 232.412 278.954C238.793 280.033 232.336 280.648 227.009 280.305C221.683 279.962 221.137 283.964 227.565 285.345C233.993 286.726 215.762 285.899 221.884 292.502C228.006 299.104 231.023 283.49 231.1 289.165C231.177 294.84 235.89 295.284 236.666 290.748C237.442 286.212 239.607 280.94 239.406 286.545C239.205 292.149 244.11 293.601 244.742 288.47C245.374 283.339 248.306 278.995 247.693 281.988C247.079 284.982 247.923 288.651 250.432 286.282C252.942 283.914 254.082 279.69 249.589 274.842Z" fill="white"/>
<path opacity="0.2" d="M185.661 300.466C190.115 305.365 196.764 307.22 200.031 305.688C203.297 304.156 199.35 302.583 195.806 302.392C192.261 302.2 197.866 300.789 203.834 301.474C209.802 302.16 209.294 297.714 202.876 296.565C196.457 295.416 202.962 294.872 208.289 295.275C213.615 295.678 214.19 291.677 207.781 290.235C201.372 288.794 219.583 289.822 213.529 283.179C207.474 276.536 204.303 292.09 204.275 286.415C204.246 280.74 199.58 280.246 198.728 284.762C197.875 289.278 195.691 294.539 195.95 288.945C196.208 283.35 191.322 281.828 190.633 286.929C189.943 292.029 186.973 296.354 187.624 293.37C188.276 290.386 187.452 286.707 184.923 289.056C182.394 291.404 181.215 295.578 185.661 300.466Z" fill="white"/>
<path opacity="0.2" d="M236.455 306.642C231.953 301.794 225.294 300.02 222.085 301.602C218.876 303.185 222.804 304.707 226.339 304.858C229.874 305.009 224.298 306.481 218.32 305.866C212.342 305.251 212.907 309.676 219.278 310.765C225.649 311.854 219.202 312.449 213.875 312.106C208.549 311.763 208.012 315.775 214.431 317.146C220.849 318.517 202.628 317.69 208.759 324.293C214.891 330.895 217.889 315.291 217.975 320.956C218.062 326.621 222.765 327.075 223.541 322.549C224.317 318.023 226.482 312.731 226.272 318.335C226.061 323.94 230.975 325.391 231.617 320.261C232.259 315.13 235.171 310.795 234.558 313.789C233.945 316.783 234.788 320.442 237.298 318.073C239.808 315.704 240.958 311.471 236.455 306.642Z" fill="white"/>
<path opacity="0.2" d="M265.433 277.846C269.879 282.745 276.527 284.59 279.803 283.068C283.08 281.546 279.123 279.953 275.588 279.762C272.053 279.57 277.648 278.159 283.607 278.844C289.565 279.53 289.067 275.095 282.649 273.935C276.23 272.776 282.735 272.252 288.061 272.655C293.388 273.058 293.963 269.057 287.554 267.615C281.145 266.174 299.366 267.192 293.302 260.559C287.237 253.926 284.086 269.46 284.057 263.785C284.028 258.11 279.353 257.616 278.51 262.142C277.667 266.668 275.464 271.919 275.722 266.315C275.981 260.71 271.095 259.208 270.405 264.299C269.716 269.389 266.746 273.734 267.397 270.74C268.049 267.746 267.234 264.087 264.696 266.426C262.157 268.764 260.979 272.947 265.433 277.846Z" fill="white"/>
<path opacity="0.2" d="M316.218 284.025C311.725 279.177 305.057 277.403 301.8 278.985C298.542 280.568 302.518 282.08 306.053 282.241C309.588 282.402 304.013 283.864 298.035 283.249C292.057 282.634 292.622 287.059 298.993 288.148C305.363 289.237 298.916 289.831 293.599 289.489C288.282 289.146 287.727 293.148 294.155 294.529C300.583 295.91 282.352 295.073 288.474 301.675C294.596 308.278 297.604 292.664 297.69 298.339C297.776 304.014 302.48 304.457 303.256 299.921C304.032 295.385 306.197 290.114 305.996 295.718C305.795 301.323 310.69 302.774 311.332 297.643C311.974 292.513 314.896 288.178 314.273 291.172C313.65 294.166 314.512 297.825 317.013 295.456C319.513 293.087 320.72 288.874 316.218 284.025Z" fill="white"/>
<path opacity="0.2" d="M252.299 309.656C256.754 314.545 263.393 316.4 266.669 314.867C269.946 313.335 265.98 311.763 262.445 311.571C258.909 311.38 264.504 309.969 270.473 310.654C276.441 311.339 275.924 306.904 269.515 305.745C263.106 304.586 269.61 304.052 274.927 304.455C280.244 304.858 280.838 300.866 274.42 299.415C268.001 297.963 286.232 299.002 280.168 292.359C274.103 285.716 270.942 301.27 270.913 295.594C270.884 289.919 266.219 289.426 265.366 293.941C264.514 298.457 262.33 303.719 262.588 298.125C262.847 292.53 257.961 291.008 257.262 296.109C256.562 301.209 253.612 305.533 254.254 302.55C254.895 299.566 254.091 295.887 251.562 298.235C249.032 300.584 247.854 304.757 252.299 309.656Z" fill="white"/>
<path opacity="0.2" d="M222.603 340.865C218.1 336.017 211.442 334.243 208.185 335.825C204.928 337.408 208.903 338.92 212.438 339.081C215.973 339.242 210.398 340.704 204.42 340.089C198.442 339.474 199.007 343.899 205.378 344.978C211.749 346.056 205.301 346.671 199.975 346.328C194.648 345.986 194.112 349.987 200.53 351.368C206.949 352.749 188.728 351.923 194.859 358.525C200.99 365.128 203.989 349.514 204.075 355.189C204.161 360.864 208.865 361.307 209.631 356.771C210.398 352.235 212.582 346.963 212.371 352.568C212.16 358.172 217.075 359.624 217.717 354.493C218.359 349.363 221.271 345.018 220.658 348.012C220.045 351.006 220.888 354.675 223.398 352.306C225.908 349.937 227.105 345.744 222.603 340.865Z" fill="white"/>
<path opacity="0.2" d="M209.468 372.666C204.975 367.817 198.307 366.043 195.05 367.626C191.793 369.208 195.768 370.731 199.303 370.882C202.838 371.033 197.263 372.505 191.295 371.89C185.326 371.275 185.872 375.7 192.253 376.789C198.633 377.877 192.185 378.472 186.859 378.129C181.533 377.787 180.986 381.798 187.415 383.169C193.843 384.54 175.612 383.714 181.734 390.316C187.855 396.918 190.863 381.315 190.95 386.979C191.036 392.644 195.74 393.098 196.516 388.572C197.292 384.046 199.457 378.754 199.256 384.359C199.054 389.963 203.95 391.415 204.592 386.284C205.233 381.153 208.155 376.819 207.533 379.813C206.91 382.806 207.772 386.465 210.282 384.097C212.792 381.728 213.97 377.514 209.468 372.666Z" fill="white"/>
<path opacity="0.2" d="M238.447 343.87C242.893 348.769 249.541 350.613 252.817 349.091C256.094 347.569 252.128 345.977 248.593 345.785C245.058 345.593 250.652 344.182 256.621 344.868C262.589 345.553 262.072 341.118 255.663 339.959C249.254 338.8 255.759 338.275 261.075 338.679C266.392 339.082 266.986 335.08 260.568 333.639C254.149 332.197 272.38 333.215 266.316 326.583C260.252 319.95 257.09 335.483 257.061 329.808C257.033 324.133 252.367 323.639 251.515 328.165C250.662 332.691 248.468 337.943 248.736 332.338C249.005 326.734 244.109 325.232 243.41 330.322C242.711 335.413 239.76 339.757 240.402 336.763C241.044 333.77 240.239 330.111 237.71 332.449C235.181 334.788 233.993 338.971 238.447 343.87Z" fill="white"/>
<path opacity="0.2" d="M225.313 375.683C229.768 380.572 236.407 382.427 239.683 380.895C242.959 379.363 239.003 377.79 235.458 377.599C231.914 377.407 237.518 375.996 243.486 376.681C249.455 377.367 248.937 372.932 242.528 371.772C236.119 370.613 242.614 370.079 247.941 370.482C253.267 370.885 253.842 366.894 247.433 365.442C241.024 363.991 259.236 365.029 253.181 358.386C247.127 351.743 243.956 367.297 243.927 361.622C243.898 355.947 239.233 355.453 238.38 359.969C237.527 364.485 235.343 369.746 235.602 364.152C235.861 358.558 230.975 357.035 230.285 362.136C229.595 367.236 226.625 371.561 227.277 368.577C227.928 365.593 227.104 361.914 224.575 364.263C222.046 366.611 220.868 370.785 225.313 375.683Z" fill="white"/>
<path opacity="0.2" d="M289.393 351.279C284.9 346.431 278.233 344.657 274.975 346.239C271.718 347.822 275.694 349.344 279.229 349.495C282.764 349.646 277.188 351.118 271.211 350.503C265.233 349.888 265.798 354.313 272.169 355.402C278.539 356.49 272.101 357.085 266.775 356.743C261.449 356.4 260.902 360.402 267.331 361.783C273.759 363.163 255.528 362.327 261.65 368.929C267.771 375.532 270.779 359.918 270.866 365.593C270.952 371.268 275.656 371.711 276.432 367.185C277.208 362.659 279.373 357.367 279.172 362.972C278.97 368.576 283.866 370.028 284.508 364.897C285.149 359.767 288.071 355.432 287.449 358.426C286.826 361.42 287.688 365.079 290.198 362.71C292.708 360.341 293.896 356.128 289.393 351.279Z" fill="white"/>
<path opacity="0.2" d="M276.268 383.092C271.766 378.243 265.107 376.469 261.85 378.052C258.593 379.634 262.559 381.146 266.104 381.307C269.648 381.469 264.054 382.93 258.085 382.315C252.117 381.701 252.673 386.126 259.043 387.204C265.414 388.283 258.967 388.898 253.64 388.555C248.314 388.212 247.768 392.214 254.196 393.595C260.624 394.976 242.393 394.149 248.515 400.742C254.637 407.334 257.654 391.74 257.74 397.415C257.827 403.09 262.53 403.534 263.297 398.998C264.063 394.462 266.238 389.19 266.037 394.784C265.836 400.379 270.741 401.84 271.373 396.72C272.005 391.599 274.937 387.245 274.323 390.238C273.71 393.232 274.553 396.901 277.063 394.532C279.573 392.164 280.761 387.93 276.268 383.092Z" fill="white"/>
<path opacity="0.2" d="M305.239 354.284C309.694 359.182 316.333 361.037 319.609 359.505C322.885 357.973 318.929 356.4 315.384 356.209C311.84 356.017 317.444 354.606 323.412 355.281C329.381 355.957 328.863 351.532 322.454 350.383C316.045 349.233 322.541 348.689 327.867 349.092C333.194 349.496 333.768 345.494 327.359 344.052C320.95 342.611 339.162 343.639 333.107 336.996C327.053 330.354 323.882 345.897 323.853 340.232C323.824 334.567 319.159 334.063 318.306 338.579C317.454 343.095 315.269 348.357 315.528 342.762C315.787 337.168 310.901 335.646 310.211 340.746C309.521 345.847 306.552 350.171 307.203 347.187C307.854 344.204 307.031 340.524 304.501 342.873C301.972 345.222 300.813 349.385 305.239 354.284Z" fill="white"/>
<path opacity="0.2" d="M209.286 407.616C213.731 412.515 220.38 414.359 223.656 412.827C226.933 411.295 222.976 409.722 219.441 409.531C215.906 409.339 221.501 407.928 227.469 408.614C233.437 409.299 232.92 404.864 226.511 403.705C220.102 402.545 226.597 402.021 231.924 402.424C237.25 402.828 237.825 398.826 231.416 397.384C225.007 395.943 243.228 396.971 237.164 390.328C231.1 383.686 227.948 399.229 227.919 393.554C227.891 387.879 223.216 387.385 222.373 391.901C221.529 396.417 219.326 401.689 219.585 396.084C219.843 390.48 214.958 388.978 214.268 394.068C213.578 399.159 210.608 403.493 211.26 400.509C211.911 397.526 211.097 393.856 208.558 396.195C206.019 398.534 204.832 402.717 209.286 407.616Z" fill="white"/>
<path opacity="0.2" d="M292.115 386.065C296.56 390.964 303.209 392.809 306.485 391.287C309.761 389.764 305.805 388.172 302.27 387.98C298.735 387.789 304.33 386.378 310.298 387.063C316.266 387.748 315.749 383.313 309.34 382.154C302.931 380.995 309.426 380.471 314.753 380.874C320.079 381.277 320.654 377.275 314.245 375.834C307.836 374.392 326.057 375.411 319.993 368.778C313.929 362.145 310.777 377.679 310.748 372.003C310.719 366.328 306.044 365.835 305.201 370.36C304.358 374.886 302.155 380.138 302.414 374.534C302.672 368.929 297.786 367.478 297.097 372.518C296.407 377.558 293.437 382.033 294.108 379.009C294.778 375.985 293.945 372.356 291.406 374.695C288.867 377.033 287.66 381.196 292.115 386.065Z" fill="white"/>
<path opacity="0.2" d="M303.093 315.826C298.59 310.978 291.932 309.203 288.675 310.786C285.417 312.369 289.384 313.881 292.928 314.032C296.473 314.183 290.878 315.655 284.91 315.04C278.941 314.425 279.487 318.85 285.868 319.939C292.248 321.027 285.801 321.632 280.474 321.279C275.148 320.926 274.602 324.948 281.03 326.319C287.458 327.69 269.227 326.864 275.349 333.466C281.471 340.068 284.488 324.465 284.565 330.13C284.642 335.794 289.355 336.248 290.131 331.722C290.907 327.196 293.072 321.914 292.871 327.509C292.67 333.103 297.565 334.565 298.207 329.444C298.849 324.323 301.771 319.969 301.157 322.963C300.544 325.956 301.387 329.626 303.897 327.247C306.407 324.868 307.586 320.674 303.093 315.826Z" fill="white"/>
<path opacity="0.2" d="M305.805 230.58C301.302 225.731 294.644 223.957 291.435 225.54C288.225 227.122 292.144 228.634 295.688 228.796C299.233 228.957 293.648 230.419 287.67 229.804C281.692 229.189 282.257 233.614 288.628 234.703C294.999 235.791 288.551 236.386 283.225 236.043C277.898 235.701 277.362 239.702 283.78 241.083C290.199 242.464 271.978 241.628 278.109 248.23C284.24 254.832 287.239 239.218 287.325 244.894C287.411 250.569 292.115 251.012 292.881 246.476C293.648 241.94 295.832 236.668 295.621 242.273C295.41 247.877 300.325 249.329 300.967 244.198C301.609 239.067 304.521 234.733 303.908 237.727C303.295 240.72 304.138 244.379 306.648 242.011C309.158 239.642 310.298 235.428 305.805 230.58Z" fill="white"/>
</g>
<path opacity="0.2" d="M296.712 271.031C294.997 285.96 301.042 312.621 309.386 332.57C310.842 320.101 313.017 305.969 316.035 289.599L296.712 271.031Z" fill="black"/>
<path d="M289.7 244.722C288.244 244.621 286.759 244.53 285.265 244.449C269.113 243.623 255.864 243.089 241.657 244.449L237.939 244.842C234.708 250.247 232.914 256.466 232.745 262.849C232.577 269.232 234.04 275.545 236.981 281.13L238.897 284.9L241.628 281.725C261.152 259.055 285.61 246.959 285.859 246.808L289.691 244.722H289.7Z" fill="white"/>
<path d="M280.943 192.789C278.194 207.546 275.454 234.601 285.264 244.449C285.264 244.449 259.695 256.202 239.5 279.679C229.633 260.416 241.656 244.449 241.656 244.449C257.309 240.518 256.897 228.321 254.177 216.83L280.943 192.789Z" fill="#FF8B7B"/>
<path opacity="0.2" d="M270.033 202.609L254.188 216.822C254.865 219.49 255.317 222.215 255.538 224.967C261.516 224.06 269.726 217.155 270.359 210.573C270.708 207.919 270.598 205.221 270.033 202.609Z" fill="black"/>
<path d="M295.744 165.706C290.274 189.717 288.435 199.978 274.908 210.33C254.569 225.864 228.301 213.606 227.008 188.376C225.82 165.666 234.969 130.215 258.737 124.681C282.122 119.227 301.224 141.696 295.744 165.706Z" fill="#FF8B7B"/>
<path d="M297.728 135.515C274.946 156.018 252.749 122.149 239.5 138.832C231.836 131.655 253.43 113.178 266.42 112.503C279.411 111.827 307.566 121.242 297.728 135.515Z" fill="#263238"/>
<path d="M243.429 135.407C243.429 135.407 240.996 128.301 242.376 123.855C238.754 125.438 237.499 138.26 239.502 138.834C242.299 139.641 243.429 135.407 243.429 135.407Z" fill="#E97A4A"/>
<path d="M294.212 133.562C270.368 142.745 280.935 191.018 301.445 188.085C321.956 185.152 318.594 138.038 294.212 133.562Z" fill="#263238"/>
<path d="M261.918 165.968C261.592 167.984 260.328 169.364 259.102 169.133C257.875 168.901 257.186 167.117 257.473 165.101C257.76 163.085 259.073 161.704 260.299 161.936C261.525 162.167 262.253 163.992 261.918 165.968Z" fill="#263238"/>
<path d="M238.764 162.015C238.438 164.031 237.174 165.402 235.947 165.17C234.721 164.938 234.031 163.154 234.319 161.138C234.606 159.122 235.919 157.751 237.145 157.973C238.371 158.194 239.099 160.039 238.764 162.015Z" fill="#263238"/>
<path d="M237.671 158.258L233.389 156.051C233.389 156.051 235.084 160.163 237.671 158.258Z" fill="#263238"/>
<path d="M244.665 166.453C244.665 166.453 240.038 174.366 235.842 177.823C237.911 180.716 242.318 180.384 242.318 180.384L244.665 166.453Z" fill="#FF5652"/>
<path d="M251.888 189.705C250.816 189.699 249.745 189.598 248.689 189.403C248.616 189.389 248.547 189.361 248.485 189.319C248.423 189.277 248.369 189.223 248.327 189.159C248.285 189.095 248.256 189.024 248.241 188.948C248.225 188.872 248.225 188.794 248.238 188.717C248.25 188.641 248.276 188.569 248.315 188.503C248.353 188.438 248.404 188.382 248.464 188.338C248.524 188.293 248.592 188.262 248.663 188.246C248.735 188.23 248.808 188.229 248.88 188.244C251.208 188.732 253.613 188.637 255.9 187.966C258.186 187.296 260.291 186.068 262.043 184.383C262.149 184.273 262.292 184.211 262.441 184.211C262.59 184.211 262.732 184.273 262.838 184.383C262.943 184.494 263.002 184.645 263.002 184.801C263.002 184.958 262.943 185.108 262.838 185.22C259.88 188.154 255.953 189.763 251.888 189.705Z" fill="#263238"/>
<path d="M297.334 189.052C295.839 190.767 294.015 192.129 291.982 193.046C289.949 193.964 287.753 194.416 285.542 194.374C279.947 194.061 279.305 187.257 282.668 181.784C285.685 176.855 292.248 171.079 296.98 174.073C301.713 177.066 301.387 184.596 297.334 189.052Z" fill="#FF8B7B"/>
<path d="M263.317 187.932C263.157 185.914 263.404 183.883 264.041 181.972C264.678 180.062 265.692 178.314 267.015 176.844C266.116 176.948 265.282 177.384 264.659 178.074C263.504 179.339 262.618 180.848 262.058 182.5C261.498 184.152 261.277 185.911 261.411 187.66C261.622 191.228 263.95 194.454 266.814 195.179C265.792 194.286 264.954 193.183 264.353 191.936C263.752 190.69 263.399 189.327 263.317 187.932Z" fill="#FF8B7B"/>
<path opacity="0.2" d="M263.317 187.932C263.157 185.914 263.404 183.883 264.041 181.972C264.678 180.062 265.692 178.314 267.015 176.844C266.116 176.948 265.282 177.384 264.659 178.074C263.504 179.339 262.618 180.848 262.058 182.5C261.498 184.152 261.277 185.911 261.411 187.66C261.622 191.228 263.95 194.454 266.814 195.179C265.792 194.286 264.954 193.183 264.353 191.936C263.752 190.69 263.399 189.327 263.317 187.932Z" fill="black"/>
<path d="M269.581 157.995C269.437 157.943 269.305 157.86 269.191 157.753C269.078 157.646 268.986 157.516 268.92 157.37C268.375 156.008 267.531 154.801 266.457 153.848C265.383 152.895 264.11 152.223 262.741 151.887C262.595 151.864 262.455 151.811 262.329 151.73C262.202 151.65 262.092 151.545 262.005 151.42C261.917 151.295 261.854 151.153 261.818 151.002C261.783 150.851 261.776 150.695 261.798 150.541C261.82 150.388 261.87 150.24 261.946 150.107C262.023 149.974 262.123 149.858 262.242 149.766C262.361 149.674 262.495 149.607 262.639 149.57C262.782 149.533 262.931 149.525 263.077 149.548C264.815 149.943 266.438 150.77 267.81 151.961C269.182 153.152 270.263 154.672 270.961 156.393C271.051 156.602 271.081 156.834 271.047 157.061C271.013 157.288 270.917 157.499 270.77 157.669C270.624 157.84 270.433 157.961 270.222 158.019C270.011 158.077 269.788 158.069 269.581 157.995Z" fill="#263238"/>
<path d="M231.185 151.029C230.897 151.047 230.613 150.95 230.39 150.757C230.278 150.658 230.185 150.536 230.118 150.399C230.05 150.263 230.009 150.113 229.996 149.959C229.984 149.806 230 149.651 230.045 149.504C230.089 149.357 230.161 149.221 230.256 149.104C231.36 147.636 232.783 146.47 234.406 145.703C236.028 144.937 237.802 144.592 239.577 144.699C239.867 144.741 240.129 144.901 240.308 145.144C240.486 145.387 240.568 145.694 240.535 145.999C240.493 146.304 240.339 146.58 240.106 146.768C239.874 146.956 239.581 147.042 239.29 147.007C237.884 146.945 236.484 147.236 235.206 147.857C233.929 148.477 232.81 149.409 231.942 150.575C231.852 150.701 231.739 150.807 231.609 150.885C231.478 150.963 231.334 151.012 231.185 151.029Z" fill="#263238"/>
<path d="M260.825 162.188L256.543 159.98C256.543 159.98 258.239 164.113 260.825 162.188Z" fill="#263238"/>
<path d="M280.886 397.343C280.29 394.722 279.144 392.275 277.53 390.182C275.917 388.089 273.879 386.403 271.565 385.247L260.969 380.016C259.425 379.25 257.727 378.89 256.022 378.967C254.317 379.045 252.654 379.557 251.179 380.459L246.389 383.383C245.074 384.192 244.024 385.402 243.378 386.853C242.731 388.303 242.518 389.926 242.767 391.507L244.243 400.871C244.556 402.832 245.558 404.597 247.05 405.817C248.543 407.036 250.417 407.62 252.299 407.454L256.678 407.061C256.678 407.061 272.13 407.504 281.586 400.66L280.886 397.343Z" fill="#FF8B7B"/>
<path d="M315.058 256.87L316.016 258.251L316.888 259.491L318.555 261.92C319.656 263.533 320.682 265.166 321.716 266.799C323.776 270.055 325.701 273.371 327.579 276.738C329.457 280.104 331.229 283.501 332.934 286.969C334.64 290.436 336.287 293.934 337.811 297.513C344.21 312.024 348.721 327.376 351.223 343.155C351.472 345.171 351.797 347.187 351.97 349.273L352.267 352.358L352.315 352.932L352.363 353.94C352.4 354.612 352.4 355.285 352.363 355.956C352.363 356.622 352.286 357.307 352.209 357.972C352.133 358.638 352.008 359.232 351.893 359.857C351.433 362.052 350.702 364.173 349.719 366.167C348.925 367.762 347.995 369.277 346.94 370.693C345.251 372.914 343.343 374.941 341.25 376.741C337.893 379.586 334.284 382.084 330.472 384.201C326.947 386.156 323.469 387.809 320.001 389.331C316.533 390.853 313.065 392.134 309.607 393.363C306.149 394.593 302.671 395.672 299.203 396.68C295.735 397.688 292.239 398.585 288.742 399.431C286.989 399.835 285.236 400.208 283.473 400.581C281.71 400.954 279.967 401.236 278.089 401.589C276.152 401.96 274.154 401.58 272.463 400.519C270.773 399.459 269.505 397.789 268.896 395.819C268.286 393.85 268.376 391.715 269.149 389.81C269.922 387.905 271.325 386.36 273.098 385.461L273.404 385.309C285.427 379.019 297.833 372.669 308.754 365.633C311.485 363.889 314.1 362.075 316.466 360.22C318.63 358.632 320.641 356.825 322.473 354.827C323.015 354.253 323.465 353.589 323.805 352.862C324.006 352.469 323.613 352.59 323.268 353.87C323.216 354.044 323.178 354.223 323.153 354.404C323.153 354.606 323.086 354.827 323.077 355.039C323.067 355.251 323.077 355.483 323.077 355.715C323.077 355.946 323.077 355.946 323.077 356.057V356.148V355.997L322.665 353.668C322.416 352.116 322.032 350.554 321.707 349.001C318.648 336.208 314.22 323.821 308.505 312.078C305.689 306.03 302.537 300.103 299.27 294.257C297.623 291.334 295.908 288.461 294.193 285.608L291.568 281.405L290.265 279.389L289.077 277.584L288.675 276.98C287.417 275.16 286.512 273.096 286.011 270.908C285.511 268.72 285.425 266.45 285.759 264.227C286.433 259.737 288.774 255.713 292.267 253.04C295.761 250.366 300.121 249.263 304.388 249.972C306.5 250.323 308.527 251.108 310.351 252.283C312.175 253.458 313.762 255 315.02 256.82L315.058 256.87Z" fill="#FF8B7B"/>
<path d="M130.595 228.536C130.327 228.527 130.067 228.627 129.867 228.814C129.667 229.002 129.544 229.263 129.522 229.544L129.005 242.103C128.997 242.297 128.945 242.486 128.853 242.654C128.761 242.822 128.632 242.964 128.477 243.069C128.323 243.173 128.146 243.237 127.963 243.255C127.779 243.273 127.595 243.245 127.424 243.172L125.508 242.335C125.291 242.239 125.107 242.076 124.98 241.867C124.853 241.658 124.79 241.414 124.799 241.166L125.326 228.274C125.345 228.124 125.334 227.972 125.294 227.828C125.254 227.683 125.186 227.549 125.094 227.433C125.002 227.317 124.888 227.223 124.76 227.156C124.631 227.089 124.491 227.051 124.348 227.044C124.205 227.037 124.062 227.061 123.929 227.116C123.795 227.17 123.673 227.252 123.572 227.359C123.47 227.465 123.39 227.592 123.338 227.732C123.285 227.872 123.261 228.022 123.266 228.173L122.739 241.075C122.728 241.323 122.645 241.561 122.501 241.758C122.358 241.955 122.16 242.1 121.935 242.174L119.952 242.829C119.776 242.887 119.589 242.9 119.408 242.867C119.226 242.834 119.055 242.755 118.909 242.637C118.762 242.52 118.645 242.367 118.566 242.191C118.487 242.016 118.45 241.823 118.457 241.63L118.974 229.07C118.98 228.927 118.959 228.784 118.912 228.65C118.865 228.516 118.794 228.392 118.702 228.287C118.61 228.182 118.499 228.096 118.375 228.036C118.252 227.976 118.119 227.942 117.983 227.936C117.847 227.93 117.711 227.952 117.584 228.001C117.456 228.051 117.339 228.126 117.239 228.223C117.139 228.32 117.058 228.436 117 228.566C116.943 228.696 116.911 228.836 116.905 228.979L116.321 243.252C116.265 244.674 116.582 246.085 117.238 247.329C117.894 248.574 118.862 249.605 120.038 250.308C120.626 250.664 121.104 251.191 121.414 251.826C121.723 252.461 121.851 253.177 121.781 253.887C121.015 261.85 119.166 280.901 117.71 293.763C115.794 310.365 118.227 313.359 120.804 313.48C123.381 313.601 126.035 310.829 125.508 294.116C125.106 281.173 124.818 262.021 124.703 254.018C124.692 253.304 124.878 252.602 125.239 251.998C125.599 251.393 126.119 250.911 126.734 250.611C127.963 250.016 129.013 249.077 129.768 247.897C130.524 246.716 130.955 245.34 131.016 243.918L131.601 229.644C131.603 229.358 131.5 229.082 131.312 228.875C131.124 228.668 130.867 228.546 130.595 228.536Z" fill="#263238"/>
<path d="M113.447 214.363C109.903 226.016 126.361 242.769 139.879 233.445C129.896 224.988 113.447 214.363 113.447 214.363Z" fill="#E97A4A"/>
<path opacity="0.5" d="M116.512 216.379C114.596 225.229 126.562 237.194 136.717 230.864C129.714 225.3 121.034 219.393 116.512 216.379Z" fill="white"/>
<path d="M425.247 398.422H53.7539V411.193H425.247V398.422Z" fill="#E97A4A"/>
<path opacity="0.2" d="M425.247 404.086H53.7539V405.527H425.247V404.086Z" fill="black"/>
<path d="M410.34 416.181H68.6601L59.0801 411.191H419.92L410.34 416.181Z" fill="#E97A4A"/>
<path opacity="0.5" d="M410.34 416.181H68.6601L59.0801 411.191H419.92L410.34 416.181Z" fill="white"/>
<path d="M119.118 363.231C115.803 359.996 105.936 365.247 106.53 358.655C107.123 352.063 100.475 356.841 99.5553 350.389C98.6356 343.938 107.555 345.813 103.78 340.813C100.006 335.814 103.014 329.282 108.8 329.211C114.586 329.141 112.948 336.963 117.93 333.415C123.409 329.514 127.931 332.961 127.95 338.162C127.97 343.364 132.539 340.43 134.388 345.884C136.821 353.061 125.661 353.837 127.874 358.101C130.087 362.365 124.588 368.554 119.118 363.231Z" fill="#E97A4A"/>
<path opacity="0.4" d="M119.118 363.231C115.803 359.996 105.936 365.247 106.53 358.655C107.123 352.063 100.475 356.841 99.5553 350.389C98.6356 343.938 107.555 345.813 103.78 340.813C100.006 335.814 103.014 329.282 108.8 329.211C114.586 329.141 112.948 336.963 117.93 333.415C123.409 329.514 127.931 332.961 127.95 338.162C127.97 343.364 132.539 340.43 134.388 345.884C136.821 353.061 125.661 353.837 127.874 358.101C130.087 362.365 124.588 368.554 119.118 363.231Z" fill="white"/>
<path d="M118.524 360.62C114.816 355.651 107.507 363.009 107.986 357.435C108.465 351.861 101.28 355.217 101.921 349.734C102.563 344.25 110.4 344.039 106.07 341.095C101.739 338.152 104.249 331.287 109.164 331.227C114.078 331.166 113.274 338.353 117.499 335.35C122.135 332.043 125.967 334.967 125.986 339.382C126.006 343.797 130.288 341.398 132.587 345.712C136.572 353.111 123.16 351.931 126.619 356.991C128.927 360.318 123.304 367.021 118.524 360.62Z" fill="#E97A4A"/>
<path opacity="0.4" d="M118.171 359.109C115.143 354.765 108.715 360.823 109.3 356.085C109.884 351.348 103.657 353.999 104.337 349.342C105.017 344.685 111.704 344.735 108.102 342.104C104.5 339.474 106.809 333.688 110.976 333.778C115.143 333.869 114.281 339.978 117.969 337.538C122.012 334.857 125.202 337.468 125.097 341.217C124.992 344.967 128.709 343.102 130.558 346.802C133.757 353.233 122.357 351.842 125.174 356.247C127.051 359.16 122.079 364.714 118.171 359.109Z" fill="white"/>
<path d="M101.156 354.43C101.616 363.502 109.635 381.374 129.58 375.174C128.45 362.786 118.391 354.662 101.156 354.43Z" fill="#E97A4A"/>
<path opacity="0.3" d="M101.156 354.43C101.616 363.502 109.635 381.374 129.58 375.174C128.45 362.786 118.391 354.662 101.156 354.43Z" fill="black"/>
<path d="M103.867 356.759C106.019 358.788 108.33 360.623 110.775 362.243C113.208 363.926 115.699 365.539 118.18 367.142C120.661 368.744 123.209 370.277 125.719 371.829L133.22 376.556C133.305 376.605 133.369 376.684 133.4 376.78C133.431 376.876 133.427 376.98 133.388 377.072C133.35 377.165 133.279 377.239 133.192 377.279C133.104 377.32 133.005 377.325 132.914 377.292C130.081 376.355 127.348 375.108 124.761 373.573C122.175 372.081 119.665 370.458 117.174 368.805C114.683 367.152 112.259 365.378 109.893 363.523C108.705 362.596 107.536 361.648 106.416 360.61C105.259 359.604 104.2 358.48 103.254 357.253C103.195 357.168 103.168 357.062 103.181 356.957C103.193 356.852 103.244 356.756 103.321 356.689C103.393 356.627 103.483 356.594 103.575 356.594C103.668 356.594 103.757 356.627 103.829 356.689L103.867 356.759Z" fill="#E97A4A"/>
<path d="M110.314 363.281H110.257C110.207 363.273 110.16 363.256 110.117 363.229C110.074 363.202 110.037 363.166 110.008 363.124C109.978 363.082 109.957 363.034 109.946 362.983C109.934 362.932 109.932 362.879 109.94 362.827C110.267 361.117 110.097 359.343 109.452 357.737C109.404 357.643 109.393 357.533 109.422 357.431C109.451 357.329 109.517 357.243 109.605 357.192C109.649 357.166 109.697 357.149 109.747 357.143C109.797 357.137 109.848 357.142 109.897 357.157C109.945 357.172 109.99 357.197 110.029 357.231C110.067 357.265 110.099 357.306 110.122 357.354C110.865 359.109 111.066 361.066 110.697 362.948C110.68 363.041 110.632 363.126 110.562 363.186C110.492 363.247 110.405 363.28 110.314 363.281Z" fill="#E97A4A"/>
<path d="M109.662 370.277C109.561 370.277 109.463 370.235 109.392 370.159C109.32 370.084 109.279 369.981 109.279 369.874C109.279 369.767 109.32 369.665 109.392 369.589C109.463 369.514 109.561 369.471 109.662 369.471C109.662 369.471 114.28 369.028 115.602 366.588C115.625 366.538 115.657 366.493 115.697 366.457C115.737 366.421 115.784 366.394 115.835 366.377C115.885 366.361 115.938 366.356 115.991 366.362C116.043 366.368 116.094 366.386 116.14 366.414C116.186 366.442 116.225 366.479 116.257 366.524C116.288 366.569 116.31 366.62 116.321 366.674C116.333 366.728 116.334 366.785 116.324 366.839C116.314 366.894 116.293 366.946 116.263 366.991C114.74 369.794 109.931 370.257 109.73 370.277H109.662Z" fill="#E97A4A"/>
<path d="M121.016 370.509C120.953 370.505 120.893 370.484 120.841 370.45C120.788 370.415 120.745 370.366 120.714 370.309C120.684 370.252 120.667 370.188 120.666 370.123C120.666 370.057 120.68 369.993 120.709 369.935C122.271 366.86 119.751 362.687 119.751 362.637C119.723 362.593 119.704 362.543 119.694 362.491C119.685 362.439 119.685 362.386 119.696 362.334C119.707 362.282 119.727 362.233 119.757 362.19C119.786 362.147 119.823 362.11 119.866 362.082C119.951 362.025 120.054 362.006 120.153 362.029C120.252 362.051 120.338 362.114 120.393 362.203C120.508 362.395 123.19 366.82 121.418 370.267C121.388 370.351 121.331 370.42 121.258 370.464C121.185 370.508 121.099 370.524 121.016 370.509Z" fill="#E97A4A"/>
<path d="M121.743 374.712C121.644 374.713 121.55 374.673 121.478 374.602C121.407 374.53 121.364 374.433 121.36 374.329C121.357 374.223 121.393 374.12 121.461 374.041C121.529 373.962 121.623 373.914 121.724 373.906C122.952 373.732 124.115 373.221 125.096 372.424C125.137 372.393 125.183 372.371 125.232 372.359C125.281 372.346 125.332 372.344 125.382 372.353C125.432 372.361 125.479 372.38 125.522 372.408C125.565 372.436 125.603 372.472 125.632 372.515C125.662 372.558 125.683 372.607 125.695 372.658C125.706 372.71 125.708 372.764 125.7 372.816C125.692 372.868 125.674 372.919 125.648 372.964C125.622 373.009 125.587 373.048 125.546 373.08C124.431 373.975 123.107 374.539 121.714 374.712H121.743Z" fill="#E97A4A"/>
<path d="M158.665 339.484C146.863 340.079 123.526 351.53 131.458 380.329C147.591 378.766 158.244 364.321 158.665 339.484Z" fill="#E97A4A"/>
<path opacity="0.3" d="M158.665 339.484C146.863 340.079 123.526 351.53 131.458 380.329C147.591 378.766 158.244 364.321 158.665 339.484Z" fill="black"/>
<path d="M155.618 343.372C152.968 346.453 150.582 349.775 148.491 353.301C146.278 356.798 144.141 360.357 142.043 363.945C139.945 367.534 137.934 371.162 135.893 374.781L129.685 385.547C129.649 385.609 129.601 385.663 129.545 385.706C129.489 385.749 129.425 385.78 129.357 385.797C129.289 385.814 129.219 385.816 129.151 385.805C129.082 385.793 129.016 385.767 128.957 385.728C128.858 385.666 128.782 385.57 128.74 385.457C128.698 385.344 128.694 385.219 128.727 385.103C129.967 381.025 131.611 377.096 133.632 373.38C135.548 369.661 137.713 366.052 139.878 362.473C142.043 358.895 144.362 355.417 146.795 352C148.012 350.297 149.267 348.624 150.627 347.021C151.95 345.362 153.422 343.843 155.024 342.485C155.078 342.441 155.14 342.409 155.206 342.39C155.272 342.371 155.341 342.366 155.408 342.376C155.476 342.385 155.541 342.408 155.6 342.445C155.659 342.481 155.711 342.528 155.752 342.586C155.835 342.686 155.881 342.815 155.881 342.949C155.881 343.082 155.835 343.211 155.752 343.311L155.618 343.372Z" fill="#E97A4A"/>
<path d="M150.043 353.405C149.195 353.401 148.349 353.324 147.514 353.173C147.446 353.162 147.382 353.136 147.324 353.098C147.266 353.06 147.216 353.01 147.176 352.951C147.137 352.893 147.109 352.827 147.093 352.757C147.078 352.687 147.076 352.614 147.087 352.543C147.099 352.473 147.123 352.405 147.159 352.344C147.196 352.283 147.243 352.23 147.298 352.189C147.354 352.147 147.417 352.117 147.483 352.101C147.55 352.085 147.619 352.083 147.686 352.095C149.91 352.582 152.222 352.347 154.315 351.42C154.378 351.385 154.447 351.364 154.518 351.358C154.588 351.351 154.659 351.359 154.727 351.382C154.795 351.404 154.857 351.441 154.912 351.489C154.966 351.537 155.011 351.595 155.043 351.661C155.076 351.728 155.096 351.8 155.102 351.874C155.108 351.949 155.101 352.023 155.079 352.095C155.058 352.166 155.023 352.232 154.978 352.289C154.932 352.346 154.876 352.393 154.814 352.428C153.314 353.13 151.683 353.464 150.043 353.405Z" fill="#E97A4A"/>
<path d="M142.475 361.194C142.383 361.192 142.294 361.164 142.216 361.113C138.576 358.916 138.001 351.971 137.972 351.678C137.962 351.533 138.006 351.389 138.096 351.277C138.185 351.166 138.313 351.096 138.451 351.084C138.59 351.072 138.726 351.119 138.832 351.214C138.938 351.308 139.004 351.442 139.016 351.588C139.016 351.658 139.572 358.251 142.734 360.166C142.793 360.201 142.845 360.249 142.887 360.306C142.928 360.362 142.959 360.427 142.977 360.497C142.995 360.566 142.999 360.638 142.99 360.71C142.982 360.781 142.959 360.85 142.925 360.912C142.882 360.997 142.817 361.069 142.737 361.119C142.658 361.168 142.567 361.194 142.475 361.194Z" fill="#E97A4A"/>
<path d="M141.391 369.369C140.164 369.389 138.951 369.084 137.866 368.482C137.804 368.449 137.749 368.404 137.704 368.348C137.66 368.292 137.627 368.227 137.607 368.157C137.587 368.087 137.581 368.014 137.59 367.941C137.598 367.869 137.62 367.799 137.655 367.736C137.687 367.672 137.731 367.615 137.784 367.569C137.837 367.523 137.899 367.489 137.965 367.468C138.031 367.448 138.1 367.441 138.169 367.449C138.237 367.457 138.303 367.479 138.364 367.514C142.359 369.782 147.81 366.174 147.857 366.134C147.916 366.094 147.981 366.068 148.049 366.055C148.118 366.043 148.188 366.044 148.255 366.06C148.323 366.076 148.387 366.106 148.444 366.148C148.5 366.19 148.549 366.243 148.586 366.305C148.623 366.366 148.648 366.433 148.659 366.505C148.671 366.576 148.67 366.648 148.654 366.719C148.639 366.789 148.611 366.856 148.571 366.914C148.531 366.973 148.481 367.023 148.423 367.061C146.301 368.442 143.882 369.236 141.391 369.369Z" fill="#E97A4A"/>
<path d="M134.647 374.752C134.564 374.752 134.482 374.731 134.409 374.691C134.335 374.651 134.272 374.592 134.225 374.52C133.073 372.929 132.345 371.043 132.118 369.057C132.112 368.911 132.162 368.769 132.255 368.662C132.348 368.554 132.478 368.49 132.616 368.482C132.684 368.477 132.753 368.486 132.817 368.509C132.882 368.532 132.942 368.569 132.993 368.617C133.044 368.665 133.085 368.723 133.114 368.788C133.143 368.853 133.159 368.924 133.162 368.996C133.388 370.77 134.048 372.451 135.078 373.875C135.119 373.933 135.148 373.999 135.164 374.069C135.181 374.139 135.183 374.212 135.173 374.283C135.162 374.354 135.138 374.423 135.102 374.484C135.066 374.546 135.019 374.599 134.963 374.641C134.871 374.712 134.761 374.751 134.647 374.752Z" fill="#E97A4A"/>
<path d="M118.793 356.286C128.373 365.862 152.725 356.487 150.407 337.355C137.215 343.887 118.793 356.286 118.793 356.286Z" fill="#E97A4A"/>
<path opacity="0.2" d="M122.242 354C129.906 360.451 147.399 353.516 146.288 339.484C137.436 344.242 127.415 350.633 122.242 354Z" fill="white"/>
<path d="M143.91 392.342C134.896 402.422 110.036 394.54 111.338 375.297C124.837 381.022 143.91 392.342 143.91 392.342Z" fill="#E97A4A"/>
<path opacity="0.2" d="M140.328 390.256C133.047 397.151 115.181 391.264 115.545 377.152C124.646 381.406 134.992 387.202 140.328 390.256Z" fill="white"/>
<path d="M168.302 352.858C165.485 355.147 168.781 362.989 163.665 362.061C158.549 361.134 161.749 366.517 156.576 366.739C151.403 366.96 153.654 360.358 149.448 362.878C145.243 365.398 140.319 362.626 140.74 358.241C141.162 353.856 147.187 355.661 144.812 351.639C142.206 347.204 145.291 344.038 149.372 344.391C153.453 344.744 151.546 341.085 155.982 340.087C161.826 338.757 161.51 347.264 165.045 345.903C168.58 344.542 172.948 349.109 168.302 352.858Z" fill="#E97A4A"/>
<path opacity="0.4" d="M168.302 352.858C165.485 355.147 168.781 362.989 163.665 362.061C158.549 361.134 161.749 366.517 156.576 366.739C151.403 366.96 153.654 360.358 149.448 362.878C145.243 365.398 140.319 362.626 140.74 358.241C141.162 353.856 147.187 355.661 144.812 351.639C142.206 347.204 145.291 344.038 149.372 344.391C153.453 344.744 151.546 341.085 155.982 340.087C161.826 338.757 161.51 347.264 165.045 345.903C168.58 344.542 172.948 349.109 168.302 352.858Z" fill="white"/>
<path d="M166.205 353.13C161.989 355.569 167.163 361.637 162.823 360.851C158.483 360.065 160.524 365.75 156.261 364.883C151.998 364.016 152.486 358.059 149.823 361.123C147.16 364.188 141.958 361.789 142.312 358.099C142.667 354.41 148.261 355.509 146.25 352.051C144.046 348.292 146.661 345.61 150.082 345.913C153.502 346.215 152.055 342.808 155.609 341.377C161.76 338.897 159.719 348.957 163.982 346.709C166.837 345.227 171.637 349.965 166.205 353.13Z" fill="#E97A4A"/>
<path opacity="0.4" d="M164.987 353.283C161.318 355.299 165.543 360.56 161.864 359.784C158.185 359.008 159.757 363.897 156.116 363.05C152.476 362.203 153.108 357.133 150.732 359.673C148.356 362.214 144.026 360.046 144.429 356.881C144.831 353.716 149.583 354.865 147.973 351.841C146.201 348.585 148.519 346.368 151.46 346.71C154.401 347.053 153.233 344.12 156.308 342.981C161.625 341.025 159.575 349.553 163.282 347.739C165.734 346.569 169.71 350.783 164.987 353.283Z" fill="white"/>
<path d="M132.511 381.426C136.055 378.543 133.162 369.381 138.996 370.187C144.831 370.994 141.775 364.754 147.781 364.139C153.788 363.524 150.425 371.578 155.656 368.353C160.887 365.127 166.194 368.111 165.236 373.393C164.278 378.674 157.448 376.85 159.728 381.517C162.228 386.648 158.271 390.589 153.568 390.428C148.864 390.266 150.694 394.46 145.386 395.962C138.441 397.887 139.82 387.726 135.557 389.561C131.294 391.395 126.677 386.184 132.511 381.426Z" fill="#E97A4A"/>
<path opacity="0.4" d="M132.511 381.426C136.055 378.543 133.162 369.381 138.996 370.187C144.831 370.994 141.775 364.754 147.781 364.139C153.788 363.524 150.425 371.578 155.656 368.353C160.887 365.127 166.194 368.111 165.236 373.393C164.278 378.674 157.448 376.85 159.728 381.517C162.228 386.648 158.271 390.589 153.568 390.428C148.864 390.266 150.694 394.46 145.386 395.962C138.441 397.887 139.82 387.726 135.557 389.561C131.294 391.395 126.677 386.184 132.511 381.426Z" fill="white"/>
<path d="M134.992 381.023C140.175 377.848 134.886 370.943 139.83 371.608C144.773 372.274 143.077 365.631 147.925 366.407C152.772 367.183 151.498 374.32 154.966 370.51C158.434 366.699 164.172 369.249 163.32 373.705C162.467 378.16 156.097 377.152 158.022 381.104C160.149 385.448 156.786 388.805 152.811 388.654C148.835 388.502 150.147 392.474 145.855 394.389C138.412 397.715 142.023 385.589 136.764 388.533C133.315 390.448 128.305 385.055 134.992 381.023Z" fill="#E97A4A"/>
<path opacity="0.4" d="M136.42 380.729C140.923 378.159 136.641 372.08 140.818 372.796C144.994 373.512 143.749 367.756 147.84 368.552C151.93 369.349 150.628 375.427 153.684 372.252C156.74 369.077 161.53 371.415 160.667 375.215C159.805 379.015 154.44 377.977 155.964 381.414C157.631 385.194 154.68 387.977 151.308 387.745C147.936 387.513 148.932 390.94 145.234 392.472C138.825 395.123 142.216 384.832 137.695 387.21C134.715 388.783 130.624 384.045 136.42 380.729Z" fill="white"/>
<path opacity="0.3" d="M99.4883 352.184V359.33C99.5161 369.689 103.439 379.614 110.4 386.939C117.362 394.263 126.795 398.391 136.64 398.421C146.484 398.391 155.917 394.263 162.879 386.939C169.84 379.614 173.763 369.689 173.791 359.33V352.184H99.4883Z" fill="#E97A4A"/>
<path opacity="0.5" d="M174.702 352.184H98.5795C98.0112 352.181 97.4668 351.942 97.0649 351.52C96.663 351.097 96.4361 350.524 96.4336 349.926C96.4361 349.328 96.663 348.755 97.0649 348.332C97.4668 347.909 98.0112 347.671 98.5795 347.668H174.702C175.271 347.671 175.815 347.909 176.217 348.332C176.619 348.755 176.846 349.328 176.848 349.926C176.846 350.524 176.619 351.097 176.217 351.52C175.815 351.942 175.271 352.181 174.702 352.184Z" fill="#E97A4A"/>
<path opacity="0.3" d="M137.673 390.442C141.738 385.516 138.11 375.196 129.569 367.392C121.028 359.588 110.808 357.255 106.742 362.182C102.677 367.108 106.305 377.428 114.846 385.232C123.387 393.036 133.607 395.368 137.673 390.442Z" fill="white"/>
<path opacity="0.3" d="M146.757 376.991C143.883 378.312 140.29 376.326 138.719 372.546C137.148 368.766 138.192 364.643 141.066 363.323C143.94 362.002 147.533 363.988 149.104 367.758C150.675 371.528 149.621 375.62 146.757 376.991Z" fill="white"/>
<path opacity="0.3" d="M402.676 357.699H367.125L370.746 396.064C370.806 396.71 371.092 397.309 371.549 397.746C372.006 398.182 372.601 398.423 373.218 398.422H396.612C397.229 398.423 397.824 398.182 398.281 397.746C398.738 397.309 399.024 396.71 399.084 396.064L402.676 357.699Z" fill="#E97A4A"/>
<path opacity="0.3" d="M374.013 389.994L371.359 361.77C371.359 361.77 378.382 366.104 385.183 363.997C389.506 362.702 393.96 361.954 398.452 361.77L395.788 389.994C395.674 391.198 395.138 392.316 394.285 393.128C393.432 393.94 392.322 394.389 391.171 394.388H378.631C377.48 394.387 376.372 393.937 375.519 393.125C374.666 392.313 374.129 391.198 374.013 389.994Z" fill="#E97A4A"/>
<path opacity="0.5" d="M384.618 363.958C380.299 362.663 375.847 361.915 371.359 361.73C371.359 361.73 378.19 365.934 384.905 364.029L384.618 363.958Z" fill="#E97A4A"/>
<path opacity="0.3" d="M403.098 358.707H366.694C366.342 358.705 366.004 358.562 365.748 358.308C365.491 358.053 365.337 357.706 365.315 357.336L364.424 340.27C364.414 340.074 364.441 339.877 364.505 339.693C364.569 339.508 364.669 339.338 364.797 339.195C364.925 339.052 365.079 338.938 365.251 338.859C365.422 338.78 365.607 338.739 365.794 338.738H403.989C404.177 338.739 404.362 338.78 404.534 338.859C404.706 338.937 404.861 339.052 404.99 339.195C405.119 339.338 405.219 339.507 405.284 339.692C405.349 339.877 405.378 340.074 405.369 340.27L404.468 357.336C404.449 357.705 404.296 358.052 404.042 358.307C403.787 358.562 403.45 358.705 403.098 358.707Z" fill="#E97A4A"/>
</svg>
