<svg width="500" height="500" viewBox="0 0 500 500" fill="none" xmlns="http://www.w3.org/2000/svg">
<path d="M449.899 398.488H416.779V398.738H449.899V398.488Z" fill="#EBEBEB"/>
<path d="M331.219 401.211H322.529V401.461H331.219V401.211Z" fill="#EBEBEB"/>
<path d="M415.78 389.211H396.59V389.461H415.78V389.211Z" fill="#EBEBEB"/>
<path d="M95.6509 390.891H52.4609V391.141H95.6509V390.891Z" fill="#EBEBEB"/>
<path d="M110.891 390.891H104.561V391.141H110.891V390.891Z" fill="#EBEBEB"/>
<path d="M225.151 395.109H131.471V395.359H225.151V395.109Z" fill="#EBEBEB"/>
<path d="M238.4 337.8H45.2998C43.7855 337.8 42.3331 337.198 41.2623 336.128C40.1914 335.057 39.5898 333.604 39.5898 332.09V60.66C39.603 59.1543 40.2104 57.7147 41.2798 56.6547C42.3492 55.5947 43.7941 54.9999 45.2998 55H238.4C239.15 55 239.892 55.1477 240.585 55.4346C241.278 55.7216 241.907 56.1422 242.437 56.6724C242.968 57.2026 243.388 57.8321 243.675 58.5249C243.962 59.2176 244.11 59.9602 244.11 60.71V332.09C244.11 332.84 243.962 333.582 243.675 334.275C243.388 334.968 242.968 335.597 242.437 336.128C241.907 336.658 241.278 337.078 240.585 337.365C239.892 337.652 239.15 337.8 238.4 337.8ZM45.2998 55.2C43.8526 55.2026 42.4653 55.7787 41.442 56.8021C40.4186 57.8255 39.8425 59.2127 39.8398 60.66V332.09C39.8425 333.537 40.4186 334.924 41.442 335.948C42.4653 336.971 43.8526 337.547 45.2998 337.55H238.4C239.847 337.547 241.234 336.971 242.258 335.948C243.281 334.924 243.857 333.537 243.86 332.09V60.66C243.857 59.2127 243.281 57.8255 242.258 56.8021C241.234 55.7787 239.847 55.2026 238.4 55.2H45.2998Z" fill="#EBEBEB"/>
<path d="M454.701 337.8H261.601C260.086 337.8 258.634 337.198 257.563 336.128C256.492 335.057 255.891 333.604 255.891 332.09V60.66C255.904 59.1543 256.511 57.7147 257.581 56.6547C258.65 55.5947 260.095 54.9999 261.601 55H454.701C456.215 55 457.667 55.6016 458.738 56.6724C459.809 57.7433 460.411 59.1956 460.411 60.71V332.09C460.411 333.604 459.809 335.057 458.738 336.128C457.667 337.198 456.215 337.8 454.701 337.8ZM261.601 55.2C260.153 55.2026 258.766 55.7787 257.743 56.8021C256.719 57.8255 256.143 59.2127 256.141 60.66V332.09C256.143 333.537 256.719 334.924 257.743 335.948C258.766 336.971 260.153 337.547 261.601 337.55H454.701C456.148 337.547 457.535 336.971 458.559 335.948C459.582 334.924 460.158 333.537 460.161 332.09V60.66C460.158 59.2127 459.582 57.8255 458.559 56.8021C457.535 55.7787 456.148 55.2026 454.701 55.2H261.601Z" fill="#EBEBEB"/>
<path d="M500 382.398H0V382.648H500V382.398Z" fill="#EBEBEB"/>
<path d="M353.409 375.871L381.059 370.081V226.941H389.879V370.081L417.529 375.871C419.098 376.204 420.505 377.064 421.515 378.309C422.525 379.554 423.078 381.108 423.079 382.711H347.859C347.861 381.108 348.413 379.554 349.424 378.309C350.434 377.064 351.841 376.204 353.409 375.871Z" fill="#E6E6E6"/>
<path d="M386.119 230.801H369.119C365.788 230.801 362.488 230.145 359.41 228.87C356.332 227.595 353.536 225.726 351.18 223.37C348.824 221.014 346.955 218.217 345.68 215.139C344.405 212.061 343.749 208.762 343.749 205.431V166.741C343.749 160.012 346.422 153.559 351.18 148.801C355.938 144.044 362.391 141.371 369.119 141.371H386.119V230.801Z" fill="#E6E6E6"/>
<path d="M370.331 220.001H386.121V230.801H370.331C363.295 230.801 356.547 228.006 351.571 223.03C346.596 218.055 343.801 211.307 343.801 204.271V193.461C343.799 196.946 344.485 200.397 345.817 203.617C347.15 206.837 349.104 209.762 351.568 212.227C354.031 214.692 356.956 216.647 360.176 217.98C363.395 219.314 366.846 220.001 370.331 220.001Z" fill="#E0E0E0"/>
<path d="M383.61 230.801H408.62C416.413 230.801 422.73 224.484 422.73 216.691V155.491C422.73 147.698 416.413 141.381 408.62 141.381H383.61C375.818 141.381 369.5 147.698 369.5 155.491V216.691C369.5 224.484 375.818 230.801 383.61 230.801Z" fill="#F0F0F0"/>
<path d="M396.111 182.01C405.853 182.01 413.751 174.113 413.751 164.37C413.751 154.628 405.853 146.73 396.111 146.73C386.368 146.73 378.471 154.628 378.471 164.37C378.471 174.113 386.368 182.01 396.111 182.01Z" fill="#E0E0E0"/>
<path d="M413.638 208.286C414.597 198.591 407.516 189.954 397.821 188.995C388.126 188.036 379.489 195.118 378.53 204.813C377.571 214.508 384.652 223.145 394.347 224.104C404.042 225.063 412.679 217.981 413.638 208.286Z" fill="#E0E0E0"/>
<path d="M398.475 178.86C406.488 177.559 411.93 170.008 410.629 161.995C409.329 153.981 401.778 148.539 393.764 149.84C385.75 151.141 380.308 158.692 381.609 166.705C382.91 174.719 390.461 180.161 398.475 178.86Z" fill="#EBEBEB"/>
<path d="M390.23 164.368C390.228 165.534 390.573 166.674 391.219 167.644C391.865 168.614 392.785 169.371 393.862 169.818C394.938 170.265 396.124 170.383 397.267 170.156C398.411 169.929 399.461 169.367 400.285 168.543C401.11 167.719 401.671 166.668 401.898 165.525C402.125 164.381 402.007 163.196 401.56 162.12C401.113 161.043 400.357 160.123 399.387 159.477C398.416 158.83 397.276 158.486 396.11 158.488C394.551 158.488 393.055 159.108 391.953 160.211C390.85 161.313 390.23 162.809 390.23 164.368Z" fill="#E0E0E0"/>
<path d="M396.11 221.259C404.229 221.259 410.81 214.678 410.81 206.559C410.81 198.441 404.229 191.859 396.11 191.859C387.992 191.859 381.41 198.441 381.41 206.559C381.41 214.678 387.992 221.259 396.11 221.259Z" fill="#EBEBEB"/>
<path d="M396.11 212.44C399.358 212.44 401.99 209.807 401.99 206.56C401.99 203.312 399.358 200.68 396.11 200.68C392.863 200.68 390.23 203.312 390.23 206.56C390.23 209.807 392.863 212.44 396.11 212.44Z" fill="#E0E0E0"/>
<path d="M135.56 377.002L112.29 372.122V251.602H104.86V372.082L81.5899 377.002C80.2701 377.279 79.0859 378.002 78.2356 379.049C77.3854 380.096 76.9209 381.403 76.9199 382.752H140.23C140.229 381.403 139.764 380.096 138.914 379.049C138.064 378.002 136.88 377.279 135.56 377.002Z" fill="#E6E6E6"/>
<path d="M108 179.578H116.69C123.835 179.578 130.687 182.416 135.739 187.469C140.792 192.521 143.63 199.373 143.63 206.518V227.908C143.63 235.053 140.792 241.905 135.739 246.958C130.687 252.01 123.835 254.848 116.69 254.848H108V179.578Z" fill="#E6E6E6"/>
<path d="M121.32 245.752H108V254.852H121.3C124.232 254.852 127.136 254.274 129.845 253.152C132.555 252.03 135.016 250.385 137.09 248.312C139.163 246.238 140.808 243.776 141.93 241.067C143.052 238.358 143.63 235.454 143.63 232.522V223.422C143.63 229.341 141.28 235.017 137.097 239.204C132.913 243.392 127.239 245.747 121.32 245.752Z" fill="#E0E0E0"/>
<path d="M107.031 179.578H92.1909C83.9177 179.578 77.2109 186.285 77.2109 194.558V239.868C77.2109 248.141 83.9177 254.848 92.1909 254.848H107.031C115.304 254.848 122.011 248.141 122.011 239.868V194.558C122.011 186.285 115.304 179.578 107.031 179.578Z" fill="#F0F0F0"/>
<path d="M110.125 209.442C115.924 203.643 115.924 194.24 110.125 188.441C104.325 182.642 94.9229 182.642 89.1236 188.441C83.3243 194.24 83.3243 203.643 89.1236 209.442C94.9229 215.241 104.325 215.241 110.125 209.442Z" fill="#E0E0E0"/>
<path d="M99.6195 249.302C107.821 249.302 114.47 242.653 114.47 234.452C114.47 226.25 107.821 219.602 99.6195 219.602C91.4181 219.602 84.7695 226.25 84.7695 234.452C84.7695 242.653 91.4181 249.302 99.6195 249.302Z" fill="#E0E0E0"/>
<path d="M108.372 207.688C113.202 202.858 113.202 195.025 108.372 190.194C103.541 185.364 95.7086 185.364 90.8778 190.194C86.047 195.025 86.047 202.858 90.8778 207.688C95.7086 212.519 103.541 212.519 108.372 207.688Z" fill="#EBEBEB"/>
<path d="M99.6199 203.888C102.354 203.888 104.57 201.672 104.57 198.938C104.57 196.204 102.354 193.988 99.6199 193.988C96.8861 193.988 94.6699 196.204 94.6699 198.938C94.6699 201.672 96.8861 203.888 99.6199 203.888Z" fill="#E0E0E0"/>
<path d="M99.62 246.818C106.452 246.818 111.99 241.28 111.99 234.448C111.99 227.616 106.452 222.078 99.62 222.078C92.7882 222.078 87.25 227.616 87.25 234.448C87.25 241.28 92.7882 246.818 99.62 246.818Z" fill="#EBEBEB"/>
<path d="M99.6199 239.4C102.354 239.4 104.57 237.184 104.57 234.45C104.57 231.716 102.354 229.5 99.6199 229.5C96.8861 229.5 94.6699 231.716 94.6699 234.45C94.6699 237.184 96.8861 239.4 99.6199 239.4Z" fill="#E0E0E0"/>
<path d="M291.301 105.272V109.862C297.955 104.913 305.464 101.232 313.451 99.0016L314.541 94.8516C306.222 96.8728 298.344 100.405 291.301 105.272Z" fill="#E6E6E6"/>
<path d="M283.06 118.481C284.582 116.273 286.228 114.153 287.99 112.131L287.39 107.191C285.19 109.551 283.44 111.671 282.15 113.361L283.06 118.481Z" fill="#EBEBEB"/>
<path d="M104.67 121V124.36C109.534 120.745 115.022 118.057 120.86 116.43L121.66 113.43C115.583 114.897 109.825 117.463 104.67 121Z" fill="#E6E6E6"/>
<path d="M98.6602 130.682C99.7663 129.061 100.968 127.509 102.26 126.032L101.82 122.422C100.21 124.142 98.9402 125.702 97.9902 126.932L98.6602 130.682Z" fill="#EBEBEB"/>
<path d="M283.181 79.5287C284.311 77.5287 285.511 75.6188 286.751 73.7588L285.371 68.4688C283.901 70.4688 282.481 72.6188 281.131 74.8288L283.181 79.5287Z" fill="#F0F0F0"/>
<path d="M274.741 106.78C276.334 98.9175 278.706 91.2331 281.821 83.84L279.001 80C275.699 87.4316 273.12 95.1639 271.301 103.09L274.741 106.78Z" fill="#E6E6E6"/>
<path d="M386.999 102.268L389.419 100.648C385.452 100.514 381.485 100.924 377.629 101.868C375.019 102.388 371.079 103.178 370.369 102.438C370.369 102.438 369.599 101.558 370.669 97.3481C371.619 93.6581 370.249 91.5681 368.939 90.4581C361.539 84.2081 332.339 95.7281 320.869 100.628L319.949 103.258L325.219 103.898C343.069 96.5081 362.289 91.0081 365.909 94.0581C366.059 94.1881 366.529 94.5781 366.119 96.1881C365.309 99.3381 364.679 103.268 366.959 105.678C369.459 108.308 373.679 107.458 378.559 106.478C382.449 105.688 386.769 104.848 390.639 105.538L386.999 102.268Z" fill="#F0F0F0"/>
<path d="M218.71 86.2797C217.954 85.5589 217.055 85.0035 216.072 84.6488C215.089 84.2942 214.043 84.148 213 84.2197C214.41 78.5997 214.3 72.3797 210.62 69.6597C205.87 66.1397 200.92 71.8297 196.55 76.8397C194.1 79.6497 190.74 83.5097 189.55 82.6397C188.64 81.9997 191.28 77.3197 192.55 75.0697C194.9 70.8897 197.12 66.9297 196.12 64.0697C195.922 63.5221 195.606 63.0244 195.194 62.6116C194.783 62.1988 194.287 61.8807 193.74 61.6797C188.66 59.6197 181.44 64.9597 176.99 68.9897V73.1097C181.72 68.4297 188.99 62.9697 192.62 64.4597C192.771 64.5005 192.91 64.5759 193.026 64.6801C193.143 64.7843 193.233 64.9143 193.29 65.0597C193.85 66.6497 191.59 70.6697 189.94 73.5997C187.25 78.3797 184.71 82.8997 187.83 85.0897C191.28 87.5097 194.96 83.2797 198.83 78.8097C203.08 73.9297 206.51 70.3397 208.83 72.0697C211.45 74.0097 211.22 79.8497 209.69 84.9097C205.69 86.3297 202.07 89.7097 201.69 92.3397C201.603 92.8624 201.665 93.3992 201.87 93.8878C202.076 94.3763 202.416 94.7966 202.85 95.0997C203.59 95.6097 206.25 96.9697 209.32 92.6997C210.452 91.0466 211.36 89.251 212.02 87.3597C212.818 87.1397 213.659 87.1242 214.465 87.3147C215.27 87.5052 216.015 87.8956 216.63 88.4497C219.63 91.3297 216.36 98.4497 213.5 103.1L214.33 107.29C215.937 105.004 217.352 102.589 218.56 100.07C221.55 93.6997 221.6 89.0597 218.71 86.2797ZM206.88 90.9997C206.33 91.7697 205.28 92.9997 204.67 92.7397C204.78 92.0897 205.97 90.4897 208.01 89.1397C207.676 89.7846 207.299 90.406 206.88 90.9997Z" fill="#F0F0F0"/>
<path d="M165.281 84.59H168.281C155.321 74.16 142.001 74 141.391 74V78.3C150.394 78.9361 158.969 82.3892 165.901 88.17L165.281 84.59Z" fill="#E6E6E6"/>
<path d="M134.889 90.5184C134.793 89.4614 134.469 88.4379 133.939 87.5184C131.939 84.1184 127.449 83.0384 120.609 84.3184L123.539 86.0184L122.729 87.0184C126.599 86.4984 130.729 86.7584 131.729 89.8584C130.827 89.8139 129.927 89.9782 129.099 90.3384C126.519 91.4884 125.209 94.4784 125.209 99.2384C125.209 101.288 125.839 102.558 127.059 102.998C127.323 103.089 127.6 103.137 127.879 103.138C128.779 103.138 129.969 102.658 131.389 100.938C133.085 98.8236 134.241 96.3288 134.759 93.6684C137.283 94.8619 139.621 96.4147 141.699 98.2784L143.699 96.0384C141.102 93.705 138.122 91.8376 134.889 90.5184ZM128.229 99.8884C128.216 99.6719 128.216 99.4548 128.229 99.2384C128.229 96.8584 128.599 93.8484 130.339 93.0784C130.725 92.914 131.14 92.8323 131.559 92.8384H131.889C131.409 95.5038 130.133 97.9615 128.229 99.8884Z" fill="#F0F0F0"/>
<path d="M131.71 89.8587C130.809 89.8142 129.909 89.9785 129.08 90.3387C129.047 90.3369 129.014 90.3369 128.98 90.3387C129.9 90.7387 130.3 91.9487 130.46 92.9787C130.799 92.8519 131.159 92.7875 131.52 92.7887H131.85C132.153 91.8263 132.103 90.7878 131.71 89.8587Z" fill="#E0E0E0"/>
<path d="M249.999 427.011C357.082 427.011 443.889 421.943 443.889 415.691C443.889 409.439 357.082 404.371 249.999 404.371C142.917 404.371 56.1094 409.439 56.1094 415.691C56.1094 421.943 142.917 427.011 249.999 427.011Z" fill="#F5F5F5"/>
<path d="M427.41 373.243L426.65 372.953C426.73 372.733 434.92 350.793 430.65 328.623C428.12 315.573 430.7 306.853 433.19 298.433C435.08 292.043 436.87 286.023 436.64 278.203C436.11 260.033 426.84 249.423 426.74 249.323L427.35 248.773C427.45 248.883 436.91 259.693 437.46 278.173C437.69 286.123 435.8 292.493 433.98 298.663C431.51 306.993 428.98 315.613 431.45 328.473C435.77 350.873 427.5 373.003 427.41 373.243Z" fill="#0168A8"/>
<path d="M422.25 371.113L421.44 370.993C421.44 370.823 423.73 353.813 418.5 337.063C415.92 328.813 416.5 321.133 416.98 314.343C417.51 306.953 417.98 300.563 414.46 295.183C412.775 292.685 410.517 290.626 407.875 289.179C405.232 287.731 402.282 286.937 399.27 286.863V286.043C399.37 286.043 409.39 285.893 415.17 294.733C418.84 300.353 418.37 306.863 417.82 314.403C417.34 321.113 416.82 328.723 419.31 336.823C424.57 353.743 422.28 370.933 422.25 371.113Z" fill="#0168A8"/>
<path d="M442.829 364.37L438.529 408C438.354 409.719 437.549 411.312 436.27 412.473C434.99 413.634 433.327 414.281 431.599 414.29H417.279C415.549 414.284 413.883 413.638 412.602 412.477C411.32 411.315 410.514 409.72 410.339 408L406.049 364.34L442.829 364.37Z" fill="#0168A8"/>
<path opacity="0.5" d="M442.829 364.37L438.529 408C438.354 409.719 437.549 411.312 436.27 412.473C434.99 413.634 433.327 414.281 431.599 414.29H417.279C415.549 414.284 413.883 413.638 412.602 412.477C411.32 411.315 410.514 409.72 410.339 408L406.049 364.34L442.829 364.37Z" fill="white"/>
<path d="M434 294.112C434 294.112 438.19 285.452 442.73 292.472C446.41 298.172 441.87 303.752 441.87 303.752C441.87 303.752 419.87 302.632 424.45 294.552C427.29 289.582 434 294.112 434 294.112Z" fill="#0168A8"/>
<path opacity="0.5" d="M434 294.112C434 294.112 438.19 285.452 442.73 292.472C446.41 298.172 441.87 303.752 441.87 303.752C441.87 303.752 419.87 302.632 424.45 294.552C427.29 289.582 434 294.112 434 294.112Z" fill="white"/>
<path d="M434.71 294.59C434.71 294.59 441.26 294.08 441.26 294.59C441.26 295.1 435.53 294.89 436.01 295.64C436.49 296.39 441.94 297.41 441.94 298.09C441.94 298.77 436.86 296.73 437.05 297.34C437.24 297.95 440.51 301.03 440.51 301.78C440.51 302.53 437.51 298.37 437.05 298.78C436.59 299.19 436.14 302.71 435.87 301.87C435.6 301.03 436.28 297.5 435.53 296.74C434.78 295.98 429.73 300.07 428.71 299.39C427.69 298.71 434.17 296.67 434.71 294.59Z" fill="#0168A8"/>
<path d="M431.299 294.683C431.299 294.683 425.909 294.343 425.639 295.783C425.369 297.223 426.659 295.783 431.299 294.683Z" fill="#0168A8"/>
<path d="M436.049 266.154C436.049 266.154 436.219 259.534 441.049 262.644C444.979 265.174 443.729 269.974 443.729 269.974C443.729 269.974 429.609 275.524 430.179 269.154C430.539 265.234 436.049 266.154 436.049 266.154Z" fill="#0168A8"/>
<path opacity="0.5" d="M436.049 266.154C436.049 266.154 436.219 259.534 441.049 262.644C444.979 265.174 443.729 269.974 443.729 269.974C443.729 269.974 429.609 275.524 430.179 269.154C430.539 265.234 436.049 266.154 436.049 266.154Z" fill="white"/>
<path d="M436.62 266.263C436.62 266.263 440.62 264.083 440.72 264.403C440.82 264.723 437.21 266.223 437.72 266.553C438.23 266.883 441.94 265.983 442.14 266.403C442.34 266.823 438.57 266.993 438.86 267.333C439.15 267.673 442.07 268.653 442.29 269.123C442.51 269.593 439.42 267.853 439.29 268.223C439.16 268.593 439.84 270.953 439.43 270.503C439.02 270.053 438.43 267.643 437.76 267.383C437.09 267.123 435.07 271.123 434.24 270.983C433.41 270.843 436.87 267.723 436.62 266.263Z" fill="#0168A8"/>
<path d="M434.499 267.293C434.499 267.293 431.029 268.613 431.259 269.593C431.489 270.573 431.899 269.303 434.499 267.293Z" fill="#0168A8"/>
<path d="M429.689 318.913C429.689 318.913 435.109 307.723 440.969 316.793C445.719 324.163 439.859 331.373 439.859 331.373C439.859 331.373 411.459 329.913 417.359 319.483C420.999 313.063 429.689 318.913 429.689 318.913Z" fill="#0168A8"/>
<path opacity="0.7" d="M429.689 318.913C429.689 318.913 435.109 307.723 440.969 316.793C445.719 324.163 439.859 331.373 439.859 331.373C439.859 331.373 411.459 329.913 417.359 319.483C420.999 313.063 429.689 318.913 429.689 318.913Z" fill="white"/>
<path d="M430.58 319.532C430.58 319.532 439.03 318.872 439.03 319.532C439.03 320.192 431.63 319.922 432.25 320.892C432.87 321.862 439.91 323.182 439.91 324.062C439.91 324.942 433.35 322.302 433.59 323.062C433.83 323.822 438.06 327.812 438.06 328.782C438.06 329.752 434.15 324.382 433.59 324.912C433.03 325.442 432.42 329.992 432.07 328.912C431.72 327.832 432.6 323.262 431.63 322.292C430.66 321.322 424.14 326.592 422.82 325.712C421.5 324.832 429.88 322.222 430.58 319.532Z" fill="#0168A8"/>
<path d="M426.17 319.651C426.17 319.651 419.17 319.211 418.86 321.061C418.55 322.911 420.18 321.061 426.17 319.651Z" fill="#0168A8"/>
<path d="M427.319 249.002C427.319 249.002 426.019 236.642 417.439 243.192C410.439 248.502 413.529 257.272 413.529 257.272C413.529 257.272 440.739 265.542 438.729 253.722C437.489 246.472 427.319 249.002 427.319 249.002Z" fill="#0168A8"/>
<path opacity="0.7" d="M427.319 249.002C427.319 249.002 426.019 236.642 417.439 243.192C410.439 248.502 413.529 257.272 413.529 257.272C413.529 257.272 440.739 265.542 438.729 253.722C437.489 246.472 427.319 249.002 427.319 249.002Z" fill="white"/>
<path d="M426.28 249.311C426.28 249.311 418.55 245.821 418.33 246.441C418.11 247.061 425.16 249.321 424.25 250.021C423.34 250.721 416.25 249.571 415.96 250.401C415.67 251.231 422.73 250.971 422.23 251.631C421.73 252.291 416.42 254.631 416.09 255.501C415.76 256.371 421.26 252.691 421.61 253.371C421.96 254.051 420.98 258.551 421.68 257.641C422.38 256.731 423.1 252.151 424.35 251.561C425.6 250.971 429.93 258.151 431.47 257.771C433.01 257.391 426 252.081 426.28 249.311Z" fill="#0168A8"/>
<path d="M430.379 250.922C430.379 250.922 437.079 252.922 436.779 254.732C436.479 256.542 435.539 254.282 430.379 250.922Z" fill="#0168A8"/>
<path d="M432.599 342.313C432.599 342.313 428.379 333.603 423.819 340.673C420.119 346.403 424.679 352.023 424.679 352.023C424.679 352.023 446.789 350.893 442.199 342.763C439.369 337.763 432.599 342.313 432.599 342.313Z" fill="#0168A8"/>
<path opacity="0.7" d="M432.599 342.313C432.599 342.313 428.379 333.603 423.819 340.673C420.119 346.403 424.679 352.023 424.679 352.023C424.679 352.023 446.789 350.893 442.199 342.763C439.369 337.763 432.599 342.313 432.599 342.313Z" fill="white"/>
<path d="M431.909 342.801C431.909 342.801 425.329 342.291 425.329 342.801C425.329 343.311 431.089 343.101 430.609 343.861C430.129 344.621 424.609 345.641 424.609 346.321C424.609 347.001 429.709 344.951 429.529 345.571C429.349 346.191 426.049 349.271 426.049 350.031C426.049 350.791 429.099 346.601 429.529 347.031C429.959 347.461 430.439 350.981 430.709 350.141C430.979 349.301 430.299 345.741 431.059 344.981C431.819 344.221 436.889 348.331 437.919 347.651C438.949 346.971 432.449 344.891 431.909 342.801Z" fill="#0168A8"/>
<path d="M435.34 342.901C435.34 342.901 440.76 342.551 441.03 343.991C441.3 345.431 440 344.001 435.34 342.901Z" fill="#0168A8"/>
<path d="M421.92 353.233C421.92 353.233 417.25 349.083 416.28 354.423C415.5 358.753 419.6 360.973 419.6 360.973C419.6 360.973 432.5 354.823 427.75 351.113C424.83 348.833 421.92 353.233 421.92 353.233Z" fill="#0168A8"/>
<path opacity="0.5" d="M421.92 353.233C421.92 353.233 417.25 349.083 416.28 354.423C415.5 358.753 419.6 360.973 419.6 360.973C419.6 360.973 432.5 354.823 427.75 351.113C424.83 348.833 421.92 353.233 421.92 353.233Z" fill="white"/>
<path d="M421.63 353.68C421.63 353.68 417.58 355.01 417.71 355.31C417.84 355.61 421.22 354.07 421.12 354.64C421.02 355.21 418 357.18 418.17 357.58C418.34 357.98 420.88 355.5 420.92 355.92C420.96 356.34 419.76 358.98 419.92 359.43C420.08 359.88 420.92 356.64 421.24 356.78C421.56 356.92 422.77 358.91 422.72 358.33C422.67 357.75 421.39 355.82 421.65 355.18C421.91 354.54 425.95 355.73 426.39 355.07C426.83 354.41 422.47 354.8 421.63 353.68Z" fill="#0168A8"/>
<path d="M423.699 352.893C423.699 352.893 426.839 351.353 427.359 352.143C427.879 352.933 426.749 352.393 423.699 352.893Z" fill="#0168A8"/>
<path d="M417.179 335.552C417.179 335.552 411.529 330.552 410.349 336.992C409.349 342.242 414.349 344.932 414.349 344.932C414.349 344.932 429.999 337.482 424.249 333.002C420.709 330.232 417.179 335.552 417.179 335.552Z" fill="#0168A8"/>
<path opacity="0.5" d="M417.179 335.552C417.179 335.552 411.529 330.552 410.349 336.992C409.349 342.242 414.349 344.932 414.349 344.932C414.349 344.932 429.999 337.482 424.249 333.002C420.709 330.232 417.179 335.552 417.179 335.552Z" fill="white"/>
<path d="M416.83 336.102C416.83 336.102 411.93 337.712 412.08 338.102C412.23 338.492 416.33 336.592 416.21 337.282C416.09 337.972 412.44 340.362 412.64 340.852C412.84 341.342 415.92 338.332 415.97 338.852C416.02 339.372 414.57 342.572 414.79 343.112C415.01 343.652 415.97 339.722 416.4 339.892C416.83 340.062 418.24 342.472 418.19 341.782C418.14 341.092 416.57 338.732 416.89 337.952C417.21 337.172 422.1 338.622 422.64 337.822C423.18 337.022 417.85 337.452 416.83 336.102Z" fill="#0168A8"/>
<path d="M419.34 335.15C419.34 335.15 423.15 333.27 423.78 334.23C424.41 335.19 423 334.54 419.34 335.15Z" fill="#0168A8"/>
<path d="M418.399 305.6C418.399 305.6 424.059 300.6 425.229 307.04C426.179 312.29 421.229 314.98 421.229 314.98C421.229 314.98 405.599 307.53 411.349 303.04C414.879 300.28 418.399 305.6 418.399 305.6Z" fill="#0168A8"/>
<path opacity="0.5" d="M418.399 305.6C418.399 305.6 424.059 300.6 425.229 307.04C426.179 312.29 421.229 314.98 421.229 314.98C421.229 314.98 405.599 307.53 411.349 303.04C414.879 300.28 418.399 305.6 418.399 305.6Z" fill="white"/>
<path d="M418.749 306.152C418.749 306.152 423.659 307.762 423.499 308.152C423.339 308.542 419.249 306.642 419.369 307.332C419.489 308.022 423.149 310.412 422.939 310.902C422.729 311.392 419.669 308.382 419.619 308.902C419.569 309.422 421.019 312.622 420.789 313.162C420.559 313.702 419.619 309.772 419.179 309.942C418.739 310.112 417.339 312.522 417.399 311.832C417.459 311.142 419.009 308.782 418.699 308.002C418.389 307.222 413.479 308.682 412.939 307.872C412.399 307.062 417.729 307.512 418.749 306.152Z" fill="#0168A8"/>
<path d="M416.24 305.201C416.24 305.201 412.43 303.321 411.81 304.281C411.19 305.241 412.55 304.591 416.24 305.201Z" fill="#0168A8"/>
<path d="M399.85 286.09C399.85 286.09 392.96 280.09 391.48 287.88C390.28 294.24 396.34 297.45 396.34 297.45C396.34 297.45 415.53 288.33 408.52 282.94C404.2 279.62 399.85 286.09 399.85 286.09Z" fill="#0168A8"/>
<path opacity="0.5" d="M399.85 286.09C399.85 286.09 392.96 280.09 391.48 287.88C390.28 294.24 396.34 297.45 396.34 297.45C396.34 297.45 415.53 288.33 408.52 282.94C404.2 279.62 399.85 286.09 399.85 286.09Z" fill="white"/>
<path d="M399.419 286.762C399.419 286.762 393.419 288.762 393.589 289.182C393.759 289.602 398.799 287.332 398.649 288.182C398.499 289.032 394.009 291.932 394.259 292.532C394.509 293.132 398.259 289.452 398.339 290.062C398.419 290.672 396.599 294.562 396.869 295.222C397.139 295.882 398.329 291.112 398.869 291.312C399.409 291.512 401.109 294.422 401.049 293.592C400.989 292.762 399.049 289.912 399.479 288.972C399.909 288.032 405.859 289.742 406.479 288.762C407.099 287.782 400.66 288.392 399.419 286.762Z" fill="#0168A8"/>
<path d="M402.49 285.58C402.49 285.58 407.17 283.29 407.93 284.44C408.69 285.59 407 284.82 402.49 285.58Z" fill="#0168A8"/>
<path d="M83.2904 388.19C83.1834 388.18 83.0841 388.131 83.0119 388.051C82.9397 387.971 82.8999 387.868 82.9004 387.76C83.3804 368.76 84.3604 337.64 84.4104 337.47C84.4428 337.367 84.514 337.28 84.6091 337.228C84.7041 337.175 84.8157 337.162 84.9204 337.19C84.9731 337.204 85.0225 337.228 85.0655 337.262C85.1084 337.295 85.1441 337.337 85.1704 337.385C85.1966 337.433 85.2128 337.485 85.2179 337.539C85.2231 337.594 85.2171 337.648 85.2004 337.7C85.2004 337.7 84.2004 368.99 83.7304 387.78C83.7252 387.891 83.6777 387.995 83.5976 388.071C83.5175 388.148 83.4111 388.19 83.3004 388.19H83.2904Z" fill="#263238"/>
<path d="M80.7399 324.789C80.8999 326.249 82.6499 331.319 84.1099 331.159C85.5699 330.999 86.1899 325.679 86.0299 324.219C85.9925 323.872 85.887 323.535 85.7195 323.229C85.552 322.922 85.3258 322.651 85.0537 322.432C84.7816 322.213 84.469 322.05 84.1338 321.951C83.7986 321.853 83.4473 321.822 83.0999 321.859C82.7526 321.896 82.416 322.002 82.1094 322.169C81.8028 322.337 81.5322 322.563 81.3131 322.835C81.094 323.107 80.9305 323.42 80.8322 323.755C80.7339 324.09 80.7025 324.442 80.7399 324.789Z" fill="#0168A8"/>
<path d="M87.8302 340.78C87.6702 339.32 85.9202 334.25 84.4602 334.41C83.0002 334.57 82.3802 339.9 82.5402 341.36C82.6171 342.061 82.9695 342.704 83.5199 343.145C84.0704 343.587 84.7737 343.792 85.4752 343.715C86.1767 343.638 86.8189 343.286 87.2605 342.735C87.7022 342.185 87.9071 341.481 87.8302 340.78Z" fill="#0168A8"/>
<path d="M76.2893 336.34C77.7493 336.18 82.8193 334.43 82.6593 332.96C82.4993 331.49 77.1793 330.88 75.6593 331.04C74.9863 331.152 74.3817 331.518 73.9696 332.062C73.5576 332.606 73.3694 333.286 73.4436 333.965C73.5178 334.643 73.8489 335.267 74.3688 335.709C74.8887 336.151 75.558 336.377 76.2393 336.34H76.2893Z" fill="#0168A8"/>
<path d="M92.2799 329.239C90.8199 329.399 85.75 331.149 85.91 332.609C86.07 334.069 91.39 334.689 92.91 334.529C93.6115 334.452 94.2537 334.099 94.6953 333.549C95.137 332.998 95.3419 332.295 95.2649 331.594C95.188 330.892 94.8356 330.25 94.2852 329.808C93.7348 329.367 93.0314 329.162 92.33 329.239H92.2799Z" fill="#0168A8"/>
<path d="M76.1205 329.641C77.2705 330.561 82.1205 332.911 83.0105 331.761C83.9005 330.611 80.6105 326.411 79.4605 325.491C78.9102 325.048 78.2065 324.842 77.5041 324.918C76.8018 324.994 76.1584 325.346 75.7155 325.896C75.2726 326.446 75.0665 327.15 75.1424 327.852C75.2184 328.555 75.5702 329.198 76.1205 329.641Z" fill="#0168A8"/>
<path d="M92.451 335.93C91.301 335.01 86.451 332.66 85.561 333.81C84.671 334.96 87.961 339.16 89.111 340.08C89.6613 340.523 90.3651 340.729 91.0674 340.653C91.7697 340.577 92.4131 340.226 92.856 339.675C93.2989 339.125 93.5051 338.421 93.4291 337.719C93.3532 337.017 93.0013 336.373 92.451 335.93Z" fill="#0168A8"/>
<path d="M81.1409 340.998C82.0609 339.848 84.4109 334.998 83.2609 334.108C82.1109 333.218 77.9109 336.518 76.9909 337.658C76.7716 337.93 76.6081 338.243 76.5098 338.579C76.4114 338.914 76.3802 339.266 76.4178 339.614C76.4554 339.962 76.5611 340.299 76.7289 340.606C76.8968 340.912 77.1234 341.183 77.3959 341.403C77.6684 341.622 77.9814 341.785 78.3171 341.884C78.6528 341.982 79.0045 342.013 79.3523 341.976C79.7 341.938 80.037 341.832 80.3439 341.664C80.6508 341.497 80.9216 341.27 81.1409 340.998Z" fill="#0168A8"/>
<path d="M87.4303 324.628C86.5103 325.768 84.1603 330.628 85.3103 331.518C86.4603 332.408 90.6603 329.108 91.5803 327.958C91.7989 327.686 91.9618 327.373 92.0595 327.037C92.1572 326.702 92.1879 326.351 92.1499 326.003C92.1118 325.656 92.0057 325.32 91.8376 325.013C91.6695 324.707 91.4428 324.437 91.1703 324.218C90.8978 324 90.5849 323.837 90.2495 323.739C89.914 323.641 89.5626 323.611 89.2154 323.649C88.8681 323.687 88.5317 323.793 88.2254 323.961C87.9191 324.129 87.6489 324.356 87.4303 324.628Z" fill="#0168A8"/>
<g opacity="0.6">
<path d="M80.7399 324.789C80.8999 326.249 82.6499 331.319 84.1099 331.159C85.5699 330.999 86.1899 325.679 86.0299 324.219C85.9925 323.872 85.887 323.535 85.7195 323.229C85.552 322.922 85.3258 322.651 85.0537 322.432C84.7816 322.213 84.469 322.05 84.1338 321.951C83.7986 321.853 83.4473 321.822 83.0999 321.859C82.7526 321.896 82.416 322.002 82.1094 322.169C81.8028 322.337 81.5322 322.563 81.3131 322.835C81.094 323.107 80.9305 323.42 80.8322 323.755C80.7339 324.09 80.7025 324.442 80.7399 324.789Z" fill="white"/>
<path d="M87.8302 340.78C87.6702 339.32 85.9202 334.25 84.4602 334.41C83.0002 334.57 82.3802 339.9 82.5402 341.36C82.6171 342.061 82.9695 342.704 83.5199 343.145C84.0704 343.587 84.7737 343.792 85.4752 343.715C86.1767 343.638 86.8189 343.286 87.2605 342.735C87.7022 342.185 87.9071 341.481 87.8302 340.78Z" fill="white"/>
<path d="M76.2893 336.34C77.7493 336.18 82.8193 334.43 82.6593 332.96C82.4993 331.49 77.1793 330.88 75.6593 331.04C74.9863 331.152 74.3817 331.518 73.9696 332.062C73.5576 332.606 73.3694 333.286 73.4436 333.965C73.5178 334.643 73.8489 335.267 74.3688 335.709C74.8887 336.151 75.558 336.377 76.2393 336.34H76.2893Z" fill="white"/>
<path d="M92.2799 329.239C90.8199 329.399 85.75 331.149 85.91 332.609C86.07 334.069 91.39 334.689 92.91 334.529C93.6115 334.452 94.2537 334.099 94.6953 333.549C95.137 332.998 95.3419 332.295 95.2649 331.594C95.188 330.892 94.8356 330.25 94.2852 329.808C93.7348 329.367 93.0314 329.162 92.33 329.239H92.2799Z" fill="white"/>
<path d="M76.1186 329.641C77.2686 330.561 82.1186 332.911 83.0086 331.761C83.8986 330.611 80.6086 326.411 79.4586 325.491C78.9082 325.048 78.2045 324.842 77.5022 324.918C76.7999 324.994 76.1565 325.346 75.7136 325.896C75.2707 326.446 75.0645 327.15 75.1404 327.852C75.2164 328.555 75.5682 329.198 76.1186 329.641Z" fill="white"/>
<path d="M92.4491 335.93C91.2991 335.01 86.4491 332.66 85.5591 333.81C84.6691 334.96 87.9591 339.16 89.1091 340.08C89.6594 340.523 90.3631 340.729 91.0654 340.653C91.7678 340.577 92.4111 340.226 92.8541 339.675C93.297 339.125 93.5031 338.421 93.4272 337.719C93.3512 337.017 92.9994 336.373 92.4491 335.93Z" fill="white"/>
<path d="M81.1389 340.998C82.0589 339.848 84.4089 334.998 83.2589 334.108C82.1089 333.218 77.9089 336.518 76.9889 337.658C76.7696 337.93 76.6061 338.243 76.5078 338.579C76.4095 338.914 76.3782 339.266 76.4158 339.614C76.4534 339.962 76.5592 340.299 76.727 340.606C76.8948 340.912 77.1214 341.183 77.3939 341.403C77.6664 341.622 77.9795 341.785 78.3151 341.884C78.6508 341.982 79.0026 342.013 79.3503 341.976C79.6981 341.938 80.035 341.832 80.3419 341.664C80.6488 341.497 80.9196 341.27 81.1389 340.998Z" fill="white"/>
<path d="M87.4303 324.628C86.5103 325.768 84.1603 330.628 85.3103 331.518C86.4603 332.408 90.6603 329.108 91.5803 327.958C91.7989 327.686 91.9618 327.373 92.0595 327.037C92.1572 326.702 92.1879 326.351 92.1499 326.003C92.1118 325.656 92.0057 325.32 91.8376 325.013C91.6695 324.707 91.4428 324.437 91.1703 324.218C90.8978 324 90.5849 323.837 90.2495 323.739C89.914 323.641 89.5626 323.611 89.2154 323.649C88.8681 323.687 88.5317 323.793 88.2254 323.961C87.9191 324.129 87.6489 324.356 87.4303 324.628Z" fill="white"/>
</g>
<path d="M81.1502 333.127C81.2191 333.746 81.4698 334.331 81.8708 334.807C82.2717 335.284 82.8049 335.631 83.4029 335.804C84.0009 335.978 84.6369 335.97 85.2306 335.782C85.8243 335.595 86.349 335.235 86.7385 334.749C87.128 334.263 87.3648 333.673 87.4189 333.053C87.4731 332.432 87.3421 331.81 87.0427 331.264C86.7432 330.718 86.2887 330.273 85.7365 329.985C85.1843 329.698 84.5592 329.58 83.9402 329.647C83.5283 329.692 83.1293 329.818 82.766 330.017C82.4027 330.216 82.0824 330.485 81.8232 330.809C81.564 331.132 81.3712 331.503 81.2557 331.901C81.1402 332.299 81.1044 332.716 81.1502 333.127Z" fill="#0168A8"/>
<path d="M81.4602 374.278C77.8202 374.358 71.5902 370.988 69.1402 367.708C66.6902 364.428 73.6302 366.428 72.9102 363.808C72.1902 361.188 63.6002 363.158 62.0002 359.408C60.4002 355.658 66.6102 356.508 66.3602 354.588C66.1102 352.668 59.6902 353.078 57.6102 349.098C55.5302 345.118 61.1902 347.328 60.3002 345.678C59.4102 344.028 52.3002 337.088 55.3002 335.628C58.3002 334.168 64.9102 341.398 67.1402 342.198C69.3702 342.998 69.8702 337.998 72.7702 340.378C75.6702 342.758 73.5402 353.238 76.9502 354.608C79.4802 355.608 78.3902 350.848 81.3202 352.048C86.4002 354.148 82.9402 374.238 81.4602 374.278Z" fill="#0168A8"/>
<g opacity="0.2">
<path d="M81.4602 374.278C77.8202 374.358 71.5902 370.988 69.1402 367.708C66.6902 364.428 73.6302 366.428 72.9102 363.808C72.1902 361.188 63.6002 363.158 62.0002 359.408C60.4002 355.658 66.6102 356.508 66.3602 354.588C66.1102 352.668 59.6902 353.078 57.6102 349.098C55.5302 345.118 61.1902 347.328 60.3002 345.678C59.4102 344.028 52.3002 337.088 55.3002 335.628C58.3002 334.168 64.9102 341.398 67.1402 342.198C69.3702 342.998 69.8702 337.998 72.7702 340.378C75.6702 342.758 73.5402 353.238 76.9502 354.608C79.4802 355.608 78.3902 350.848 81.3202 352.048C86.4002 354.148 82.9402 374.238 81.4602 374.278Z" fill="white"/>
</g>
<path d="M86.6906 369.658C86.7506 369.758 86.2105 370.278 88.0005 370.348C92.4305 370.528 100.251 370.228 103.191 366.208C107.391 360.468 97.7106 360.988 98.6506 357.828C99.5906 354.668 109.991 357.238 112.021 352.718C114.051 348.198 106.481 349.078 106.831 346.718C107.181 344.358 115.121 347.398 117.731 342.608C120.341 337.818 113.421 340.378 114.541 338.388C115.661 336.398 124.461 328.128 120.901 326.278C117.341 324.428 109.071 333.078 106.341 333.998C103.611 334.918 102.981 326.448 99.4006 329.288C95.8206 332.128 98.1706 344.998 94.0006 346.538C90.8906 347.718 92.5805 343.138 88.7405 343.318C83.5205 343.548 81.8006 361.478 86.6906 369.658Z" fill="#0168A8"/>
<g opacity="0.3">
<path d="M86.6906 369.658C86.7506 369.758 86.2105 370.278 88.0005 370.348C92.4305 370.528 100.251 370.228 103.191 366.208C107.391 360.468 97.7106 360.988 98.6506 357.828C99.5906 354.668 109.991 357.238 112.021 352.718C114.051 348.198 106.481 349.078 106.831 346.718C107.181 344.358 115.121 347.398 117.731 342.608C120.341 337.818 113.421 340.378 114.541 338.388C115.661 336.398 124.461 328.128 120.901 326.278C117.341 324.428 109.071 333.078 106.341 333.998C103.611 334.918 102.981 326.448 99.4006 329.288C95.8206 332.128 98.1706 344.998 94.0006 346.538C90.8906 347.718 92.5805 343.138 88.7405 343.318C83.5205 343.548 81.8006 361.478 86.6906 369.658Z" fill="white"/>
</g>
<path d="M83.3703 385.318C83.3321 385.313 83.2952 385.3 83.2618 385.281C83.2285 385.261 83.1993 385.236 83.176 385.205C83.1528 385.174 83.1358 385.139 83.1263 385.102C83.1167 385.065 83.1147 385.026 83.1203 384.988C86.7503 355.268 103.87 343.188 104.04 343.068C104.071 343.045 104.107 343.03 104.144 343.022C104.182 343.014 104.22 343.014 104.258 343.021C104.295 343.029 104.331 343.044 104.362 343.065C104.393 343.087 104.42 343.115 104.44 343.148C104.483 343.21 104.5 343.287 104.487 343.362C104.474 343.437 104.432 343.503 104.37 343.547C104.2 343.657 87.2903 355.608 83.6903 385.058C83.6803 385.134 83.6415 385.203 83.582 385.251C83.5225 385.3 83.4468 385.323 83.3703 385.318Z" fill="#263238"/>
<path d="M100.129 347.198C100.07 347.198 100.013 347.178 99.9655 347.142C99.9185 347.106 99.8848 347.055 99.8694 346.998C99.8569 346.963 99.8517 346.925 99.8541 346.888C99.8564 346.85 99.8663 346.813 99.8831 346.78C99.8999 346.746 99.9232 346.716 99.9518 346.692C99.9804 346.668 100.014 346.649 100.049 346.638C102.296 346.094 104.641 346.111 106.879 346.688C106.917 346.695 106.952 346.71 106.984 346.731C107.016 346.752 107.044 346.779 107.065 346.81C107.086 346.842 107.101 346.877 107.109 346.915C107.116 346.952 107.117 346.991 107.109 347.028C107.09 347.1 107.045 347.163 106.982 347.204C106.919 347.245 106.843 347.26 106.769 347.248C104.625 346.708 102.383 346.688 100.229 347.188L100.129 347.198Z" fill="#263238"/>
<path d="M97.0005 350.81C96.928 350.807 96.8593 350.776 96.8089 350.724C96.7585 350.672 96.7304 350.602 96.7305 350.53C96.8307 344.774 98.6293 339.176 101.9 334.44C101.949 334.386 102.016 334.352 102.089 334.345C102.161 334.338 102.234 334.359 102.292 334.403C102.349 334.447 102.389 334.511 102.401 334.583C102.414 334.654 102.4 334.728 102.36 334.79C99.1629 339.421 97.4027 344.893 97.3005 350.52C97.3018 350.557 97.2956 350.595 97.2821 350.63C97.2686 350.665 97.2482 350.697 97.2221 350.724C97.1959 350.751 97.1646 350.773 97.13 350.787C97.0953 350.802 97.0581 350.81 97.0205 350.81H97.0005Z" fill="#263238"/>
<path d="M91.8608 358.419C91.8245 358.418 91.7887 358.41 91.7559 358.394C91.7231 358.379 91.694 358.356 91.6708 358.328C91.6165 358.274 91.5859 358.2 91.5859 358.123C91.5859 358.047 91.6165 357.973 91.6708 357.919C92.8769 356.873 94.334 356.158 95.8994 355.844C97.4647 355.53 99.0847 355.628 100.601 356.128C100.672 356.156 100.731 356.209 100.764 356.278C100.798 356.347 100.804 356.425 100.781 356.498C100.769 356.535 100.749 356.568 100.724 356.596C100.698 356.625 100.667 356.647 100.632 356.663C100.598 356.679 100.56 356.688 100.522 356.689C100.484 356.69 100.446 356.683 100.411 356.669C98.9935 356.2 97.4789 356.108 96.0152 356.4C94.5515 356.693 93.1889 357.361 92.0608 358.338C92.0351 358.365 92.004 358.386 91.9695 358.4C91.935 358.414 91.8979 358.42 91.8608 358.419Z" fill="#263238"/>
<path d="M89.2007 363.729C89.146 363.727 89.0932 363.709 89.0487 363.677C89.0043 363.645 88.9702 363.6 88.9507 363.549C87.6614 359.98 87.3338 356.135 88.0007 352.399C88.0067 352.362 88.0201 352.327 88.0401 352.295C88.0601 352.263 88.0862 352.236 88.117 352.214C88.1478 352.193 88.1826 352.178 88.2193 352.17C88.256 352.162 88.2939 352.162 88.3307 352.169C88.4061 352.182 88.4736 352.223 88.5186 352.285C88.5635 352.347 88.5822 352.424 88.5707 352.499C87.9351 356.126 88.2416 359.855 89.4607 363.329C89.4752 363.364 89.4825 363.401 89.4823 363.439C89.4821 363.476 89.4742 363.514 89.4593 363.548C89.4444 363.583 89.4226 363.614 89.3954 363.64C89.3681 363.666 89.3359 363.686 89.3007 363.699C89.2696 363.716 89.2357 363.726 89.2007 363.729Z" fill="#263238"/>
<path d="M83.4905 395.931C83.4179 395.931 83.3482 395.903 83.296 395.852C83.2437 395.802 83.2131 395.733 83.2105 395.661L82.8405 387.781C81.7405 361.611 63.7805 343.781 63.6005 343.631C63.5485 343.575 63.5195 343.502 63.5195 343.426C63.5195 343.35 63.5485 343.276 63.6005 343.221C63.6266 343.194 63.6577 343.173 63.692 343.159C63.7264 343.144 63.7632 343.137 63.8005 343.137C63.8377 343.137 63.8746 343.144 63.909 343.159C63.9433 343.173 63.9744 343.194 64.0005 343.221C64.1905 343.401 82.3005 361.361 83.4105 387.771L83.7905 395.651C83.7918 395.688 83.7856 395.726 83.7721 395.761C83.7587 395.796 83.7382 395.828 83.7121 395.855C83.686 395.882 83.6547 395.904 83.62 395.919C83.5854 395.933 83.5481 395.941 83.5105 395.941L83.4905 395.931Z" fill="#263238"/>
<path d="M71.0005 353.461C70.9748 353.471 70.9462 353.471 70.9205 353.461H70.8205C68.4685 352.475 65.9406 351.978 63.3905 352.001C63.3486 352.009 63.3055 352.007 63.2642 351.997C63.223 351.986 63.1846 351.966 63.1517 351.939C63.1189 351.912 63.0925 351.878 63.0744 351.839C63.0563 351.801 63.0469 351.758 63.0469 351.716C63.0469 351.673 63.0563 351.631 63.0744 351.592C63.0925 351.554 63.1189 351.52 63.1517 351.493C63.1846 351.465 63.223 351.446 63.2642 351.435C63.3055 351.424 63.3486 351.423 63.3905 351.431C65.9972 351.384 68.5862 351.867 71.0005 352.851H71.1005H71.1505C71.2065 352.878 71.2516 352.924 71.2788 352.98C71.306 353.036 71.3136 353.1 71.3005 353.161C71.3035 353.201 71.2978 353.241 71.2838 353.279C71.2697 353.317 71.2477 353.351 71.2193 353.38C71.1908 353.408 71.1565 353.43 71.1187 353.444C71.081 353.458 71.0407 353.464 71.0005 353.461Z" fill="#263238"/>
<path d="M73.5494 356.829C73.5117 356.826 73.4748 356.816 73.4411 356.799C73.4074 356.782 73.3775 356.758 73.3532 356.729C73.3289 356.701 73.3107 356.667 73.2998 356.631C73.2888 356.595 73.2853 356.557 73.2894 356.519C73.608 351.574 72.4414 346.646 69.9394 342.369C69.9179 342.337 69.9031 342.301 69.8958 342.263C69.8885 342.225 69.8889 342.186 69.8969 342.148C69.905 342.11 69.9205 342.074 69.9426 342.042C69.9647 342.011 69.9929 341.984 70.0256 341.963C70.0583 341.942 70.0948 341.928 70.1329 341.922C70.1711 341.916 70.2101 341.917 70.2477 341.926C70.2854 341.935 70.3208 341.951 70.352 341.974C70.3832 341.997 70.4095 342.026 70.4294 342.059C72.9871 346.448 74.1811 351.499 73.8594 356.569C73.8569 356.607 73.8468 356.644 73.8297 356.677C73.8127 356.711 73.7889 356.741 73.7599 356.765C73.731 356.789 73.6974 356.808 73.6612 356.819C73.625 356.83 73.587 356.833 73.5494 356.829Z" fill="#263238"/>
<path d="M76.1697 361.311C76.0947 361.304 76.0241 361.273 75.9697 361.221C75.0091 360.351 73.8471 359.733 72.5884 359.424C71.3298 359.115 70.014 359.124 68.7597 359.451C68.6868 359.469 68.6096 359.459 68.5443 359.421C68.479 359.384 68.4307 359.323 68.4097 359.251C68.3991 359.215 68.396 359.177 68.4004 359.139C68.4048 359.102 68.4167 359.066 68.4353 359.033C68.454 359 68.4791 358.972 68.509 358.949C68.539 358.926 68.5732 358.91 68.6097 358.901C69.9613 358.534 71.384 358.518 72.7435 358.854C74.103 359.19 75.3544 359.867 76.3797 360.821C76.4063 360.847 76.4274 360.878 76.4419 360.912C76.4563 360.947 76.4637 360.983 76.4637 361.021C76.4637 361.058 76.4563 361.095 76.4419 361.129C76.4274 361.163 76.4063 361.195 76.3797 361.221C76.3243 361.277 76.2488 361.31 76.1697 361.311Z" fill="#263238"/>
<path d="M79.4898 368.679C79.4503 368.688 79.4093 368.688 79.3698 368.679C79.3025 368.643 79.2521 368.582 79.2296 368.509C79.2072 368.436 79.2144 368.357 79.2498 368.289C80.5687 365.318 81.0991 362.056 80.7898 358.819C80.7871 358.781 80.7919 358.743 80.804 358.707C80.8162 358.671 80.8353 358.637 80.8604 358.608C80.8855 358.58 80.916 358.556 80.9502 358.539C80.9845 358.522 81.0217 358.512 81.0598 358.509C81.0974 358.505 81.1354 358.509 81.1716 358.52C81.2078 358.531 81.2414 358.549 81.2703 358.573C81.2993 358.598 81.3231 358.627 81.3402 358.661C81.3573 358.695 81.3673 358.732 81.3698 358.769C81.694 362.117 81.1391 365.492 79.7598 368.559C79.7305 368.603 79.6896 368.637 79.6419 368.658C79.5942 368.679 79.5415 368.687 79.4898 368.679Z" fill="#263238"/>
<path d="M99.6802 397.168C99.6802 406.358 95.5502 413.798 83.0402 413.798C71.1102 413.798 66.4102 406.358 66.4102 397.168C66.4057 393.837 67.4059 390.582 69.2802 387.828H96.8002C98.6774 390.581 99.6811 393.836 99.6802 397.168Z" fill="#0168A8"/>
<path opacity="0.5" d="M99.6802 397.168C99.6802 406.358 95.5502 413.798 83.0402 413.798C71.1102 413.798 66.4102 406.358 66.4102 397.168C66.4057 393.837 67.4059 390.582 69.2802 387.828H96.8002C98.6774 390.581 99.6811 393.836 99.6802 397.168Z" fill="white"/>
<path d="M312.299 123.232C312.299 123.232 302.199 116.502 307.589 135.712L312.669 131.242L313.109 124.752L312.299 123.232Z" fill="#263238"/>
<path d="M361.861 148.292L355.141 140.462L363.721 140.012C363.721 140.012 366.581 144.612 364.831 147.652L361.861 148.292Z" fill="#B55B52"/>
<path d="M353.359 143.742C353.549 143.384 353.839 143.09 354.195 142.896C354.551 142.702 354.956 142.617 355.359 142.652L359.409 143.042L360.049 145.912L353.359 143.742Z" fill="#B55B52"/>
<path d="M353.83 134.312L360.27 134.152L363.72 140.012L355.14 140.462L353.83 134.312Z" fill="#B55B52"/>
<path d="M339.281 162C343.801 162.84 348.471 163.66 353.061 164.38C357.651 165.1 362.281 165.67 366.821 166.01L368.511 166.11H368.561H368.381L368.141 166.17C368.031 166.199 367.924 166.239 367.821 166.29C367.407 166.486 367.06 166.799 366.821 167.19C366.511 167.79 366.701 167.68 366.711 167.42C366.752 167.044 366.752 166.665 366.711 166.29C366.462 164.161 366.021 162.059 365.391 160.01C364.781 157.81 364.091 155.59 363.321 153.38C362.551 151.17 361.781 148.93 361.001 146.74L364.831 144.84C367.431 148.991 369.704 153.337 371.631 157.84C372.694 160.239 373.492 162.747 374.011 165.32C374.163 166.117 374.237 166.928 374.231 167.74C374.258 169.031 373.911 170.302 373.231 171.4C372.654 172.285 371.83 172.98 370.861 173.4C370.623 173.5 370.379 173.587 370.131 173.66L369.441 173.8C369.211 173.8 369.031 173.8 368.821 173.85H366.551C361.654 173.783 356.766 173.426 351.911 172.78C347.071 172.19 342.351 171.42 337.541 170.39L339.281 162Z" fill="#B55B52"/>
<path d="M342.54 402.841L334.1 403.221L331.58 383.761L340.01 383.371L342.54 402.841Z" fill="#B55B52"/>
<path d="M333.24 402.28L342.71 401.85C342.873 401.837 343.035 401.885 343.164 401.985C343.293 402.085 343.381 402.229 343.41 402.39L344.84 409.84C344.87 410.028 344.859 410.221 344.81 410.406C344.76 410.59 344.672 410.762 344.551 410.91C344.43 411.059 344.279 411.18 344.109 411.266C343.938 411.352 343.751 411.401 343.56 411.41C340.25 411.5 338.65 411.41 334.48 411.57C331.91 411.69 324.56 412.3 321.02 412.46C317.48 412.62 317.13 409.13 318.59 408.74C325.13 407.02 329.71 404.84 331.85 402.87C332.23 402.516 332.722 402.307 333.24 402.28Z" fill="#0168A8"/>
<path opacity="0.2" d="M331.58 383.759L332.88 393.799L341.32 393.409L340.02 383.379L331.58 383.759Z" fill="black"/>
<path d="M310.199 215.51C310.199 215.51 311.279 280.91 314.879 306.42C318.619 333 330.999 391.93 330.999 391.93L342.409 391.41C342.409 391.41 338.099 332.21 335.999 306C333.699 277.38 335.149 212.57 335.149 212.57L310.199 215.51Z" fill="#263238"/>
<path d="M343.4 391.769L330.01 392.379L328.83 388.159L343.8 386.949L343.4 391.769Z" fill="#263238"/>
<path d="M330.141 403.91C329.419 404.002 328.686 403.851 328.061 403.48C327.915 403.36 327.802 403.206 327.732 403.031C327.663 402.856 327.638 402.666 327.661 402.48C327.674 402.378 327.712 402.281 327.771 402.197C327.83 402.114 327.909 402.046 328.001 402C329.001 401.38 332.451 402.95 332.841 403.13C332.88 403.145 332.913 403.173 332.935 403.209C332.957 403.245 332.966 403.288 332.961 403.33C332.956 403.37 332.939 403.408 332.912 403.438C332.885 403.468 332.85 403.49 332.811 403.5C331.935 403.718 331.041 403.855 330.141 403.91ZM328.551 402.23C328.422 402.229 328.295 402.259 328.181 402.32C328.142 402.342 328.111 402.374 328.09 402.413C328.068 402.452 328.058 402.495 328.061 402.54C328.048 402.658 328.065 402.778 328.11 402.888C328.155 402.998 328.228 403.095 328.321 403.17C328.851 403.61 330.241 403.62 332.101 403.23C330.985 402.691 329.783 402.353 328.551 402.23Z" fill="#0168A8"/>
<path d="M332.74 403.491H332.66C331.66 403.081 329.56 401.361 329.66 400.391C329.66 400.171 329.83 399.881 330.38 399.791C330.577 399.76 330.779 399.77 330.972 399.822C331.165 399.873 331.345 399.965 331.5 400.091C332.61 400.921 332.91 403.191 332.92 403.281C332.925 403.316 332.921 403.351 332.906 403.383C332.892 403.415 332.869 403.442 332.84 403.461C332.809 403.479 332.775 403.489 332.74 403.491ZM330.57 400.161H330.45C330.09 400.211 330.07 400.361 330.06 400.411C330 400.991 331.41 402.361 332.47 402.931C332.349 401.976 331.929 401.083 331.27 400.381C331.073 400.222 330.822 400.143 330.57 400.161Z" fill="#0168A8"/>
<path opacity="0.4" d="M331.621 217.141L326.871 224.201C326.871 224.201 320.921 231.111 322.871 251.601C324.601 269.421 330.871 291.691 335.101 289.261C334.381 266.521 334.701 236.741 334.941 221.851L331.621 217.141Z" fill="black"/>
<path d="M301.08 396.011L292.67 395.271L291.66 375.551L300.08 376.291L301.08 396.011Z" fill="#B55B52"/>
<path d="M291.889 393.559L301.369 392.979C301.531 392.964 301.693 393.01 301.822 393.108C301.952 393.206 302.04 393.35 302.069 393.509L303.619 400.939C303.65 401.127 303.642 401.32 303.594 401.504C303.546 401.689 303.46 401.861 303.341 402.01C303.222 402.159 303.073 402.281 302.904 402.369C302.735 402.457 302.549 402.508 302.359 402.519C299.049 402.669 297.449 402.569 293.279 402.829C290.719 402.989 286.989 403.479 283.449 403.699C279.909 403.919 279.509 400.429 280.959 400.019C287.479 398.199 288.409 396.169 290.519 394.159C290.891 393.805 291.376 393.592 291.889 393.559Z" fill="#0168A8"/>
<path opacity="0.2" d="M300.08 376.289L291.66 375.559L292.18 385.719L300.6 386.459L300.08 376.289Z" fill="black"/>
<path d="M327 230.15C321.62 249.79 299.57 284.52 292.37 305.83C283.83 331.14 290.37 383.6 290.37 383.6L301.85 384.6C301.85 384.6 306.85 333.96 309.98 319.7C316.65 289.29 354.35 257.89 352.68 236.97C352.03 228.82 343.18 209.75 343.18 209.75L322.51 210.7C322.51 210.7 328.61 224.19 327 230.15Z" fill="#263238"/>
<path d="M303.069 385.319L288.829 384.079L287.699 379.469L304.519 380.169L303.069 385.319Z" fill="#263238"/>
<path d="M287.55 394.931L287.47 394.871C287.325 394.751 287.213 394.597 287.143 394.422C287.073 394.247 287.048 394.058 287.07 393.871C287.074 393.75 287.109 393.632 287.172 393.529C287.235 393.425 287.324 393.34 287.43 393.281C288.43 392.781 291.05 394.281 291.35 394.451C291.384 394.469 291.412 394.497 291.43 394.531C291.447 394.565 291.455 394.603 291.45 394.641C291.445 394.68 291.429 394.716 291.404 394.746C291.379 394.776 291.347 394.799 291.31 394.811C290.27 395.091 288.42 395.511 287.55 394.931ZM290.72 394.521C289.64 393.951 288.12 393.331 287.62 393.601C287.572 393.625 287.532 393.662 287.506 393.708C287.479 393.755 287.467 393.808 287.47 393.861C287.447 393.99 287.458 394.122 287.502 394.244C287.546 394.367 287.621 394.476 287.72 394.561C288.17 394.921 289.27 394.901 290.72 394.521Z" fill="#0168A8"/>
<path d="M290.89 394.601C290.02 394.021 288.7 392.531 288.82 391.671C288.838 391.513 288.912 391.366 289.027 391.257C289.142 391.147 289.292 391.081 289.45 391.071C289.6 391.037 289.756 391.039 289.905 391.075C290.054 391.112 290.193 391.182 290.31 391.281C291.31 392.041 291.44 394.461 291.45 394.571C291.451 394.606 291.444 394.641 291.428 394.672C291.412 394.704 291.389 394.731 291.36 394.751C291.329 394.766 291.295 394.774 291.26 394.774C291.226 394.774 291.191 394.766 291.16 394.751C291.067 394.707 290.976 394.657 290.89 394.601ZM290.02 391.601C289.949 391.553 289.869 391.519 289.785 391.502C289.701 391.485 289.614 391.484 289.53 391.501C289.27 391.551 289.23 391.661 289.21 391.761C289.13 392.351 290.21 393.651 291.01 394.241C290.973 393.298 290.644 392.39 290.07 391.641L290.02 391.601Z" fill="#0168A8"/>
<path d="M304.711 174.052C302.551 174.872 300.531 175.462 298.391 176.052C296.25 176.621 294.08 177.075 291.891 177.412C289.579 177.803 287.235 177.97 284.891 177.912C283.6 177.878 282.315 177.728 281.051 177.462C279.548 177.144 278.116 176.558 276.821 175.732C276.118 175.263 275.48 174.705 274.921 174.072C274.454 173.546 274.03 172.984 273.651 172.392C272.994 171.36 272.416 170.281 271.921 169.162C271.025 167.123 270.27 165.024 269.661 162.882C268.482 158.756 267.636 154.543 267.131 150.282L271.301 149.332C272.711 153.142 274.201 157.012 275.811 160.662C276.587 162.442 277.455 164.181 278.411 165.872C278.836 166.621 279.317 167.336 279.851 168.012C280.056 168.281 280.283 168.532 280.531 168.762C280.668 168.904 280.831 169.02 281.011 169.102C282.273 169.566 283.621 169.75 284.961 169.642C286.794 169.563 288.619 169.349 290.421 169.002C292.301 168.652 294.191 168.162 296.091 167.642C297.991 167.122 299.931 166.522 301.691 165.942L304.711 174.052Z" fill="#B55B52"/>
<path d="M270.91 152.461L276.91 144.051L268.33 144.381C268.33 144.381 265.9 149.241 267.93 152.101L270.91 152.461Z" fill="#B55B52"/>
<path d="M279 147.15C278.783 146.802 278.464 146.528 278.086 146.367C277.709 146.206 277.291 146.165 276.89 146.25L272.89 147.01L272.52 149.93L279 147.15Z" fill="#B55B52"/>
<path d="M277.621 137.809L271.201 138.239L268.301 144.379L276.881 144.049L277.621 137.809Z" fill="#B55B52"/>
<path d="M301.12 164.322C301.12 164.322 296.33 167.252 310.2 215.512L344.26 211.512C342.04 197.712 342.11 191.352 345.35 162.112C345.35 162.112 336.92 159.222 329.55 159.742C324.356 159.984 319.186 160.599 314.08 161.582C307.51 162.932 301.12 164.322 301.12 164.322Z" fill="#0168A8"/>
<path opacity="0.5" d="M300.781 164.322C300.781 164.322 296.001 167.252 309.861 215.512L343.931 211.512C341.711 197.712 341.771 191.352 345.011 162.112C345.011 162.112 336.591 159.222 329.221 159.742C324.027 159.983 318.857 160.598 313.751 161.582C307.001 163.002 307.321 162.902 300.781 164.322Z" fill="white"/>
<path d="M325.939 142.449C325.559 147.549 325.669 156.779 329.549 159.689C329.549 159.689 328.789 164.899 319.549 165.999C309.389 167.209 314.089 161.529 314.089 161.529C319.489 159.529 318.849 155.439 317.419 151.689L325.939 142.449Z" fill="#B55B52"/>
<path opacity="0.2" d="M322.47 146.219L317.42 151.689C317.767 152.56 318.035 153.46 318.22 154.379C320.31 153.819 322.94 151.139 322.9 148.899C322.917 147.987 322.772 147.079 322.47 146.219Z" fill="black"/>
<path d="M331.271 133.76C329.731 142 329.271 145.52 324.531 149.27C317.431 154.9 307.651 151.21 306.691 142.67C305.831 134.99 308.491 122.81 317.031 120.51C318.91 119.994 320.89 119.966 322.783 120.431C324.676 120.895 326.419 121.836 327.846 123.164C329.273 124.491 330.337 126.162 330.936 128.017C331.536 129.871 331.651 131.849 331.271 133.76Z" fill="#B55B52"/>
<path d="M311.071 122.25C308.501 126.19 335.851 139.17 332.881 130.31C329.911 121.45 317.771 112 311.071 122.25Z" fill="#263238"/>
<path d="M325.08 130.802C324.62 134.802 330.08 139.252 330.08 139.252C330.08 139.252 336.58 133.992 332.23 131.532C327.88 129.072 325.08 130.802 325.08 130.802Z" fill="#263238"/>
<path d="M317.211 134.351C317.131 135.031 316.701 135.531 316.261 135.481C315.821 135.431 315.531 134.831 315.611 134.161C315.691 133.491 316.121 132.981 316.561 133.031C317.001 133.081 317.291 133.681 317.211 134.351Z" fill="#263238"/>
<path d="M309.571 133.412C309.481 134.082 309.061 134.592 308.571 134.532C308.081 134.472 307.841 133.892 307.931 133.212C308.021 132.532 308.441 132.032 308.881 132.082C309.321 132.132 309.651 132.732 309.571 133.412Z" fill="#263238"/>
<path d="M309.111 132.15L307.541 131.48C307.541 131.48 308.221 132.85 309.111 132.15Z" fill="#263238"/>
<path d="M312.311 134.891C311.521 136.353 310.531 137.699 309.371 138.891C309.685 139.178 310.058 139.395 310.464 139.524C310.869 139.654 311.298 139.693 311.721 139.641L312.311 134.891Z" fill="#A02724"/>
<path d="M332.57 141.649C331.818 143.081 330.532 144.159 328.99 144.649C326.93 145.279 325.85 143.449 326.38 141.479C326.85 139.709 328.5 137.259 330.58 137.479C331.037 137.535 331.472 137.705 331.846 137.975C332.22 138.244 332.52 138.602 332.718 139.018C332.917 139.434 333.007 139.893 332.981 140.352C332.955 140.812 332.814 141.258 332.57 141.649Z" fill="#B55B52"/>
<path d="M320.47 133.181C320.385 133.182 320.302 133.156 320.232 133.108C320.162 133.06 320.109 132.991 320.08 132.911C319.46 131.171 317.16 130.521 317.14 130.511C317.086 130.5 317.035 130.478 316.99 130.447C316.945 130.416 316.907 130.376 316.878 130.329C316.849 130.282 316.83 130.23 316.822 130.176C316.815 130.122 316.818 130.066 316.832 130.014C316.847 129.961 316.872 129.911 316.906 129.868C316.941 129.826 316.983 129.79 317.032 129.765C317.08 129.739 317.134 129.724 317.188 129.72C317.243 129.716 317.298 129.723 317.35 129.741C317.46 129.741 320.07 130.511 320.83 132.641C320.849 132.69 320.858 132.743 320.856 132.795C320.854 132.848 320.841 132.9 320.819 132.947C320.796 132.995 320.764 133.038 320.725 133.073C320.686 133.108 320.64 133.134 320.59 133.151L320.47 133.181Z" fill="#263238"/>
<path d="M307.711 129.59C307.625 129.59 307.541 129.564 307.472 129.513C307.402 129.463 307.351 129.392 307.325 129.31C307.299 129.228 307.301 129.14 307.329 129.059C307.357 128.978 307.41 128.908 307.481 128.86C308.008 128.503 308.613 128.28 309.245 128.208C309.877 128.137 310.517 128.22 311.111 128.45C311.159 128.471 311.202 128.502 311.238 128.54C311.274 128.579 311.302 128.624 311.321 128.673C311.339 128.722 311.348 128.775 311.346 128.827C311.344 128.88 311.332 128.932 311.311 128.98C311.289 129.028 311.258 129.071 311.22 129.107C311.181 129.142 311.136 129.17 311.086 129.188C311.037 129.205 310.984 129.213 310.932 129.21C310.879 129.207 310.828 129.193 310.781 129.17C310.308 128.999 309.801 128.943 309.302 129.006C308.804 129.068 308.327 129.248 307.911 129.53C307.851 129.569 307.782 129.59 307.711 129.59Z" fill="#263238"/>
<path d="M316.75 133.092L315.18 132.422C315.18 132.422 315.86 133.792 316.75 133.092Z" fill="#263238"/>
<path d="M311.82 142.051C311.82 142.051 314.17 141.311 320.92 140.781C320.29 142.871 318.92 144.641 315.49 144.881C315.061 144.955 314.621 144.939 314.199 144.834C313.776 144.728 313.38 144.537 313.035 144.271C312.69 144.005 312.404 143.67 312.195 143.288C311.986 142.906 311.858 142.485 311.82 142.051Z" fill="#263238"/>
<path d="M317 143.158C315.67 143.188 314.382 143.636 313.32 144.438C313.992 144.805 314.759 144.958 315.52 144.878C316.852 144.856 318.142 144.407 319.2 143.598C318.533 143.221 317.762 143.067 317 143.158Z" fill="#A02724"/>
<path d="M312.121 142.001C312.205 142.244 312.355 142.46 312.555 142.622C312.754 142.785 312.996 142.888 313.251 142.921C315.253 142.758 317.237 142.423 319.181 141.921C319.496 141.872 319.794 141.743 320.046 141.547C320.298 141.351 320.496 141.094 320.621 140.801C317.762 140.986 314.92 141.387 312.121 142.001Z" fill="white"/>
<path d="M333.079 131.249C324.559 132.129 323.719 128.859 323.719 128.859C326.155 129.797 328.764 130.199 331.369 130.039C324.431 128.472 318.099 124.917 313.149 119.809C312.349 120.525 311.65 121.345 311.069 122.249C308.599 125.999 333.729 138.149 333.079 131.249Z" fill="#0168A8"/>
<path d="M311.509 122.999C311.509 122.999 306.339 115.699 302.859 124.369C303.95 123.221 305.388 122.465 306.952 122.217C308.516 121.97 310.118 122.244 311.509 122.999Z" fill="#0168A8"/>
<path d="M189.361 159.438C192.681 162.858 196.181 166.327 199.691 169.577C201.451 171.217 203.271 172.757 205.081 174.247C206.791 175.675 208.614 176.963 210.531 178.098C211.237 178.536 212.001 178.872 212.801 179.098C213.901 179.328 215.051 179.538 216.231 179.738C218.581 180.128 221.001 180.448 223.431 180.738C228.291 181.368 233.221 181.998 238.121 182.738L238.011 187.188C233.011 187.608 228.011 187.787 222.951 187.757C220.431 187.757 217.951 187.668 215.331 187.488C214.041 187.398 212.731 187.267 211.331 187.087C209.698 186.804 208.116 186.274 206.641 185.518C204.203 184.27 201.88 182.807 199.701 181.147C197.591 179.587 195.621 177.927 193.701 176.247C189.844 172.892 186.172 169.33 182.701 165.577L189.361 159.438Z" fill="#FFB573"/>
<path d="M205.17 171.209L197.72 182.099C197.72 182.099 195.17 179.619 191.21 176.229C186.73 172.389 181.64 168.319 180.31 164.419C177.95 157.489 182.09 154.109 192.52 158.609C197 160.549 205.17 171.209 205.17 171.209Z" fill="#0168A8"/>
<path d="M234.262 183.309L239.892 177.559L243.362 184.469C243.362 184.469 237.212 189.009 235.442 187.409L234.262 183.309Z" fill="#FFB573"/>
<path d="M247.071 177.939L248.241 183.359L243.361 184.469L239.891 177.559L247.071 177.939Z" fill="#FFB573"/>
<path opacity="0.2" d="M189.111 166.469L184.861 165.219L181.811 167.219C183.991 170.219 187.811 173.329 191.211 176.219C193.421 178.109 195.211 179.709 196.321 180.769C193.441 169.499 189.111 166.469 189.111 166.469Z" fill="black"/>
<path d="M211.702 404.459L218.692 402.189L214.342 385.699L207.352 387.969L211.702 404.459Z" fill="#FFB573"/>
<path d="M218.79 401.258L210.94 403.808C210.874 403.825 210.812 403.856 210.757 403.898C210.703 403.94 210.658 403.992 210.624 404.052C210.59 404.111 210.569 404.177 210.562 404.245C210.554 404.314 210.56 404.382 210.58 404.448L212.21 410.788C212.316 411.115 212.546 411.388 212.851 411.547C213.156 411.706 213.511 411.739 213.84 411.638C216.56 410.698 217.84 410.118 221.27 408.998C223.39 408.308 232.5 405.598 235.43 404.638C238.36 403.678 237.34 400.818 236.01 400.958C230.01 401.588 222.61 402.208 220.14 401.298C219.708 401.129 219.231 401.114 218.79 401.258Z" fill="#263238"/>
<path opacity="0.2" d="M207.352 387.981L214.352 385.711L216.582 394.211L209.592 396.481L207.352 387.981Z" fill="black"/>
<path d="M190.311 221.1C190.311 221.1 200.241 280.93 203.181 301.8C206.411 324.65 219.061 391.49 219.061 391.49L206.061 395.07C206.061 395.07 187.531 330.3 182.281 308.07C176.581 283.95 164.031 221.07 164.031 221.07L190.311 221.1Z" fill="#263238"/>
<path opacity="0.4" d="M175.381 239.639C180.461 252.319 180.031 279.869 177.971 288.699C174.861 274.199 171.291 256.849 168.541 243.359C169.521 239.899 172.301 231.919 175.381 239.639Z" fill="black"/>
<path d="M221.671 401.667C221.035 401.855 220.381 401.975 219.721 402.027C219.688 402.029 219.656 402.022 219.627 402.006C219.599 401.99 219.576 401.966 219.561 401.937C219.544 401.908 219.535 401.876 219.535 401.842C219.535 401.809 219.544 401.776 219.561 401.747C219.731 401.527 221.271 399.527 222.241 399.587C222.351 399.594 222.457 399.629 222.55 399.689C222.642 399.748 222.718 399.83 222.771 399.927C222.867 400.064 222.926 400.224 222.94 400.391C222.954 400.558 222.923 400.726 222.851 400.877C222.567 401.276 222.147 401.557 221.671 401.667ZM220.091 401.667C221.421 401.507 222.331 401.167 222.551 400.737C222.597 400.637 222.615 400.527 222.603 400.417C222.59 400.308 222.548 400.204 222.481 400.117C222.457 400.07 222.421 400.029 222.378 400C222.334 399.97 222.283 399.952 222.231 399.947C221.711 399.897 220.741 400.867 220.091 401.647V401.667Z" fill="#0168A8"/>
<path d="M219.761 401.998H219.681C219.651 401.994 219.623 401.981 219.6 401.962C219.577 401.942 219.56 401.917 219.551 401.888C219.551 401.808 218.711 399.888 219.191 398.938C219.254 398.821 219.342 398.72 219.45 398.642C219.557 398.564 219.681 398.511 219.811 398.488C219.952 398.446 220.102 398.453 220.238 398.507C220.375 398.562 220.488 398.661 220.561 398.788C220.971 399.498 220.401 401.298 219.841 401.938L219.761 401.998ZM219.761 398.858C219.695 398.876 219.633 398.907 219.58 398.95C219.526 398.993 219.482 399.047 219.451 399.108C219.283 399.906 219.375 400.736 219.711 401.478C220.201 400.739 220.384 399.839 220.221 398.968C220.221 398.878 220.081 398.788 219.831 398.838L219.761 398.858Z" fill="#0168A8"/>
<path d="M156.66 407.668H164.01L164.97 390.648H157.62L156.66 407.668Z" fill="#FFB573"/>
<path d="M164.401 406.821H156.141C156.073 406.818 156.005 406.829 155.941 406.853C155.876 406.876 155.818 406.912 155.768 406.959C155.717 407.005 155.677 407.061 155.648 407.123C155.62 407.185 155.604 407.252 155.601 407.321L155.201 413.861C155.201 414.202 155.335 414.53 155.575 414.773C155.814 415.016 156.14 415.155 156.481 415.161C159.361 415.111 160.731 414.941 164.361 414.941C166.601 414.941 176.091 415.181 179.181 415.181C182.271 415.181 182.181 412.131 180.871 411.851C175.011 410.611 167.741 408.851 165.661 407.271C165.303 406.985 164.859 406.827 164.401 406.821Z" fill="#263238"/>
<path opacity="0.2" d="M157.621 390.66H164.971L164.471 399.43H157.121L157.621 390.66Z" fill="black"/>
<path d="M176.001 220.729C176.001 220.729 176.701 276.889 175.511 297.929C174.201 320.979 167.671 397.309 167.671 397.309H154.161C154.161 397.309 154.571 322.839 153.761 300.019C153.291 286.929 149.641 265.519 148.931 248.239C148.597 238.684 149.47 229.125 151.531 219.789L176.001 220.729Z" fill="#263238"/>
<path d="M167.001 408.097C166.344 408.08 165.69 407.993 165.051 407.837C165.018 407.83 164.988 407.812 164.965 407.787C164.942 407.763 164.927 407.731 164.921 407.697C164.913 407.665 164.915 407.631 164.927 407.601C164.94 407.57 164.963 407.544 164.991 407.527C165.221 407.367 167.301 405.947 168.201 406.297C168.303 406.338 168.392 406.403 168.462 406.487C168.532 406.571 168.58 406.671 168.601 406.777C168.645 406.939 168.648 407.108 168.61 407.27C168.571 407.433 168.493 407.583 168.381 407.707C167.985 408.004 167.494 408.143 167.001 408.097ZM165.521 407.587C166.831 407.847 167.801 407.807 168.141 407.467C168.213 407.385 168.262 407.286 168.283 407.179C168.304 407.071 168.297 406.961 168.261 406.857C168.258 406.803 168.238 406.751 168.204 406.708C168.17 406.665 168.124 406.634 168.071 406.617C167.591 406.427 166.371 407.047 165.521 407.587Z" fill="#0168A8"/>
<path d="M165.081 407.84C165.059 407.849 165.034 407.849 165.011 407.84C164.984 407.831 164.96 407.813 164.942 407.79C164.924 407.767 164.914 407.739 164.911 407.71C164.911 407.62 164.741 405.5 165.481 404.79C165.577 404.698 165.693 404.629 165.819 404.588C165.945 404.546 166.08 404.533 166.211 404.55C166.358 404.554 166.5 404.608 166.612 404.702C166.725 404.797 166.802 404.926 166.831 405.07C167.001 405.87 165.901 407.4 165.171 407.84C165.142 407.85 165.111 407.85 165.081 407.84ZM166.081 404.84C166.013 404.839 165.945 404.852 165.881 404.878C165.818 404.903 165.76 404.942 165.711 404.99C165.307 405.7 165.139 406.519 165.231 407.33C165.871 406.79 166.601 405.62 166.481 405.1C166.481 405 166.411 404.88 166.161 404.85L166.081 404.84Z" fill="#0168A8"/>
<path d="M190.761 223.211H150.191C149.911 219.591 150.741 207.801 150.121 192.791C149.747 181.669 148.409 170.601 146.121 159.711C145.931 158.891 145.751 158.081 145.561 157.261C145.561 157.261 147.611 156.841 150.561 156.411C153.001 156.051 156.071 155.681 159.081 155.541C164.823 155.216 170.578 155.216 176.321 155.541C178.971 155.791 181.561 156.231 183.631 156.631C186.271 157.161 187.821 157.631 187.821 157.631C187.821 157.631 197.791 180.561 190.761 223.211Z" fill="#0168A8"/>
<path d="M169.741 161.06C160.031 160.79 158.581 156.06 158.521 155.84L158.461 155.63L160.111 155.53C165.677 155.219 171.255 155.219 176.821 155.53L177.761 155.63C178.166 155.969 178.478 156.406 178.669 156.899C178.86 157.392 178.922 157.926 178.851 158.45C178.421 160.1 176.151 160.66 174.161 160.89L169.741 161.06Z" fill="white"/>
<path d="M170.051 160.071C160.701 159.911 159.471 155.571 159.471 155.571C163.111 151.981 161.711 142.181 160.471 136.801L164.941 140.501L171.031 145.561C170.849 146.372 170.718 147.193 170.641 148.021C170.311 151.321 171.171 154.321 176.021 155.471C176.021 155.471 181.791 159.291 173.231 159.981L170.051 160.071Z" fill="#FFB573"/>
<path opacity="0.2" d="M170.641 147.998C170.71 147.293 170.817 146.592 170.961 145.898L163.131 139.398C163.054 140.459 163.09 141.525 163.241 142.578C163.661 145.638 167.531 148.818 170.591 149.578C170.574 149.051 170.591 148.523 170.641 147.998Z" fill="black"/>
<path d="M158.312 130.2C159.942 137.7 160.522 142.2 164.952 145.59C166.382 146.712 168.091 147.423 169.895 147.646C171.7 147.87 173.531 147.597 175.192 146.858C176.853 146.118 178.28 144.94 179.322 143.45C180.363 141.959 180.978 140.213 181.102 138.4C181.682 131.4 178.922 120.32 171.022 118.19C169.323 117.684 167.522 117.634 165.799 118.044C164.075 118.455 162.49 119.312 161.202 120.528C159.915 121.745 158.97 123.279 158.462 124.977C157.955 126.675 157.903 128.476 158.312 130.2Z" fill="#FFB573"/>
<path d="M170.152 130.939C170.252 131.559 170.652 132.019 171.052 131.939C171.452 131.859 171.712 131.349 171.612 130.739C171.512 130.129 171.122 129.659 170.712 129.739C170.302 129.819 170.062 130.319 170.152 130.939Z" fill="#263238"/>
<path d="M177.14 130.107C177.23 130.727 177.64 131.187 178.04 131.107C178.44 131.027 178.7 130.517 178.6 129.907C178.5 129.297 178.1 128.827 177.7 128.907C177.3 128.987 177 129.487 177.14 130.107Z" fill="#263238"/>
<path d="M175 130.68C176.034 132.476 177.302 134.127 178.77 135.59C178.388 135.942 177.932 136.207 177.436 136.364C176.94 136.521 176.416 136.568 175.9 136.5L175 130.68Z" fill="#ED893E"/>
<path d="M167.642 129C167.586 129.015 167.527 129.015 167.472 129C167.388 128.951 167.325 128.873 167.297 128.78C167.269 128.687 167.278 128.586 167.322 128.5C167.591 127.989 167.981 127.554 168.46 127.231C168.938 126.908 169.488 126.708 170.062 126.65C170.109 126.646 170.157 126.651 170.203 126.666C170.248 126.682 170.29 126.706 170.325 126.738C170.361 126.769 170.389 126.808 170.41 126.852C170.43 126.895 170.441 126.942 170.442 126.99C170.446 127.039 170.44 127.088 170.424 127.134C170.409 127.181 170.384 127.224 170.351 127.26C170.318 127.297 170.278 127.326 170.234 127.347C170.189 127.367 170.141 127.379 170.092 127.38C169.644 127.433 169.216 127.595 168.844 127.851C168.473 128.107 168.17 128.45 167.962 128.85C167.926 128.9 167.877 128.94 167.821 128.967C167.765 128.993 167.703 129.004 167.642 129Z" fill="#263238"/>
<path d="M179.771 127.36C179.712 127.359 179.654 127.344 179.602 127.316C179.55 127.288 179.505 127.248 179.471 127.2C179.217 126.807 178.877 126.477 178.477 126.235C178.077 125.992 177.627 125.844 177.161 125.8C177.075 125.786 176.996 125.741 176.939 125.675C176.883 125.608 176.852 125.523 176.852 125.435C176.852 125.348 176.883 125.263 176.939 125.196C176.996 125.129 177.075 125.085 177.161 125.07C177.747 125.11 178.315 125.286 178.82 125.585C179.325 125.884 179.754 126.296 180.071 126.79C180.126 126.87 180.147 126.968 180.13 127.064C180.113 127.159 180.06 127.244 179.981 127.3C179.917 127.338 179.845 127.359 179.771 127.36Z" fill="#263238"/>
<path d="M147.501 165.998C143.058 163.499 138.764 160.744 134.641 157.748C132.561 156.248 130.501 154.688 128.511 152.938C127.511 152.058 126.511 151.158 125.511 150.148C124.447 149.061 123.489 147.876 122.651 146.608C122.421 146.268 122.191 145.818 121.971 145.428C121.751 145.038 121.561 144.528 121.431 144.138C121.164 143.388 120.953 142.619 120.801 141.838C120.54 140.459 120.36 139.067 120.261 137.668C120.116 135.066 120.116 132.459 120.261 129.858C120.515 124.791 121.103 119.747 122.021 114.758L126.461 115.158C126.591 120.038 126.751 124.978 127.091 129.778C127.251 132.178 127.511 134.558 127.861 136.778C128.211 138.998 128.791 141.268 129.491 142.008C130.096 142.761 130.765 143.46 131.491 144.098C132.281 144.828 133.161 145.558 134.061 146.268C135.881 147.688 137.811 149.078 139.791 150.428C143.791 153.088 147.931 155.688 152.011 158.148L147.501 165.998Z" fill="#FFB573"/>
<path d="M152.481 154.478C141.871 149.718 138.771 145.918 138.771 145.918L131.561 158.458C131.561 158.458 142.561 170.518 151.311 169.968C156.341 169.648 162.781 159.088 152.481 154.478Z" fill="#0168A8"/>
<path d="M122.001 115.918L121.781 108.488L129.631 113.418C129.631 113.418 128.631 120.018 125.271 119.228L122.001 115.918Z" fill="#FFB573"/>
<path d="M126.791 103.699L133.071 108.069L129.651 113.419L121.801 108.489L126.791 103.699Z" fill="#FFB573"/>
<path opacity="0.4" d="M168.241 390L154.191 391.4C154.191 395.1 154.191 397.27 154.191 397.27H167.661C167.661 397.27 167.861 394.6 168.241 390Z" fill="black"/>
<path d="M153.62 397.309H168.17L168.97 392.199L152.92 392.999L153.62 397.309Z" fill="#263238"/>
<path opacity="0.4" d="M204.201 388.449C205.381 392.589 206.081 395.069 206.081 395.069L219.081 391.489C219.081 391.489 218.521 388.539 217.611 383.699L204.201 388.449Z" fill="black"/>
<path d="M205.76 395.33L219.65 391.5L219.38 385.84L203.74 391.25L205.76 395.33Z" fill="#263238"/>
<path d="M155.251 138.501C155.251 138.501 161.181 145.721 161.531 142.901C161.881 140.081 160.471 140.901 161.311 135.901C161.311 135.901 166.061 136.021 162.811 128.581C159.561 121.141 156.751 124.021 156.751 124.021L154.251 130.331L153.941 133.021V136.081L155.251 138.501Z" fill="#263238"/>
<path opacity="0.5" d="M155.251 138.501C155.251 138.501 161.181 145.721 161.531 142.901C161.881 140.081 160.471 140.901 161.311 135.901C161.311 135.901 166.061 136.021 162.811 128.581C159.561 121.141 156.751 124.021 156.751 124.021L154.251 130.331L153.941 133.021V136.081L155.251 138.501Z" fill="white"/>
<path d="M173.632 124.158L173.192 119.708L175.532 123.538C177.38 122.974 179.264 122.536 181.172 122.228C181.172 122.228 175.002 111.998 169.312 111.878C161.902 111.738 159.622 116.538 159.622 116.538C159.622 116.538 154.312 114.788 150.312 124.628C146.312 134.468 156.002 139.538 156.002 139.538C156.002 139.538 158.002 133.648 165.002 128.608L163.302 124.018L166.482 127.598C168.728 126.185 171.126 125.031 173.632 124.158Z" fill="#263238"/>
<path d="M156.581 137.998C157.794 139.461 159.476 140.46 161.341 140.828C163.711 141.228 164.241 139.038 163.041 136.918C161.961 135.018 159.421 132.508 157.311 133.068C155.201 133.628 155.051 136.178 156.581 137.998Z" fill="#FFB573"/>
<path d="M178.001 138.159C178.001 138.159 175.621 137.529 168.861 137.309C169.581 139.369 171.001 141.069 174.471 141.159C174.903 141.211 175.342 141.174 175.759 141.049C176.176 140.924 176.562 140.714 176.894 140.432C177.225 140.15 177.495 139.803 177.686 139.411C177.876 139.02 177.984 138.594 178.001 138.159Z" fill="#263238"/>
<path d="M172.9 139.51C174.233 139.467 175.544 139.852 176.64 140.61C175.988 141.013 175.226 141.202 174.46 141.15C173.132 141.186 171.826 140.801 170.73 140.05C171.378 139.643 172.138 139.454 172.9 139.51Z" fill="#A02724"/>
<path d="M177.691 138.098C177.619 138.348 177.479 138.574 177.287 138.751C177.095 138.927 176.857 139.047 176.601 139.098C174.585 139.031 172.578 138.797 170.601 138.398C170.285 138.362 169.982 138.248 169.721 138.064C169.461 137.881 169.251 137.634 169.111 137.348C171.987 137.37 174.856 137.621 177.691 138.098Z" fill="white"/>
<path d="M245.69 143.9C245.69 143.9 236.98 135.8 237.37 142.74C237.37 142.74 222.58 142.3 229.75 147.35C229.75 147.35 216.11 153.72 225.02 155.03C225.02 155.03 216.11 166.67 226.27 165.46C226.27 165.46 223.33 179.46 230.27 176.72C230.27 176.72 231.75 183.09 238.4 178.84C238.4 178.84 246.59 184.9 249.85 175.97C249.85 175.97 257.45 179.83 255.62 169.34C255.62 169.34 261.3 166.96 255.43 158.97C255.4 159 264.47 155.59 245.69 143.9Z" fill="#263238"/>
<path d="M282.8 183.079C282.487 181.359 281.824 179.721 280.85 178.269C279.494 176.242 277.892 174.391 276.08 172.759C272.862 169.83 269.319 167.28 265.52 165.159C264.858 164.793 264.089 164.667 263.345 164.804C262.6 164.941 261.927 165.332 261.438 165.91C260.95 166.488 260.677 167.217 260.666 167.974C260.656 168.73 260.908 169.467 261.38 170.059L261.47 170.159C263.91 173.229 266.47 176.339 268.63 179.379C269.456 180.532 270.195 181.745 270.84 183.009L270.72 183.069C270.047 183.376 269.356 183.64 268.65 183.859C266.963 184.392 265.251 184.839 263.52 185.199C261.7 185.589 259.83 185.919 257.94 186.199C256.05 186.479 254.08 186.809 252.32 187.069H252.16C250.445 187.271 248.881 188.145 247.811 189.5C246.741 190.855 246.253 192.579 246.455 194.294C246.656 196.009 247.531 197.573 248.886 198.643C250.241 199.713 251.965 200.201 253.68 199.999C255.97 199.799 258.01 199.509 260.17 199.129C262.33 198.749 264.43 198.289 266.58 197.709C268.816 197.127 271.008 196.389 273.14 195.499C274.344 194.998 275.513 194.417 276.64 193.759C278.107 192.913 279.427 191.836 280.55 190.569C281.382 189.604 282.027 188.491 282.45 187.289C282.577 186.917 282.677 186.536 282.75 186.149C282.827 185.773 282.877 185.392 282.9 185.009C282.927 184.364 282.894 183.718 282.8 183.079Z" fill="#263238"/>
<path d="M262.39 163.089L256.81 161.309L255.74 170.859C258.584 171.128 261.452 170.766 264.14 169.799C264.494 169.642 264.791 169.378 264.988 169.045C265.185 168.711 265.273 168.325 265.24 167.939C265.173 166.965 264.881 166.02 264.387 165.178C263.892 164.336 263.209 163.621 262.39 163.089Z" fill="#FFC3BD"/>
<path d="M251.379 164.79L251.439 168.14C251.453 168.874 251.755 169.573 252.282 170.084C252.808 170.596 253.515 170.878 254.249 170.87H255.739L256.809 161.32L253.569 162.03C252.941 162.165 252.379 162.514 251.979 163.017C251.579 163.521 251.367 164.148 251.379 164.79Z" fill="#FFC3BD"/>
<path opacity="0.2" d="M253.679 200C255.969 199.8 258.009 199.51 260.169 199.13C262.329 198.75 264.429 198.29 266.579 197.71C268.815 197.128 271.007 196.39 273.139 195.5C274.343 194.999 275.512 194.418 276.639 193.76C265.869 199.01 260.469 192.37 260.469 192.37H258.569L253.399 191.16L246.639 194.08L248.739 198.32C249.402 198.926 250.183 199.388 251.033 199.677C251.883 199.966 252.784 200.076 253.679 200Z" fill="black"/>
<path d="M265.159 406.238C266.202 402.434 266.717 398.503 266.689 394.558C266.689 394.558 275.119 392.468 274.789 395.398C274.179 400.698 277.089 409.398 282.789 411.898C286.039 413.328 283.159 415.358 280.559 415.378C276.429 415.378 276.239 414.728 273.099 412.848C270.419 411.248 269.359 410.618 266.839 410.648C264.729 410.678 264.669 408.618 265.159 406.238Z" fill="#263238"/>
<path d="M258.1 231.109C258.1 231.109 273.27 290.509 277.2 317.209C281.32 345.259 276.03 394.659 275.98 396.689C272.25 397.529 268.74 397.919 265.8 397.039C265.8 397.039 255.21 354.239 252.22 323.039C228.01 267.279 233.15 244.269 233.15 244.269L258.1 231.109Z" fill="#0168A8"/>
<path opacity="0.2" d="M237.419 259.27C237.089 265.77 238.139 276.45 239.419 288.27C241.779 296.21 244.959 305.32 249.199 315.67C257.869 289.42 255.209 256.46 237.419 259.27Z" fill="black"/>
<path d="M234.631 412.789C227.321 411.719 222.721 406.339 223.631 401.029C224.121 398.099 214.721 397.199 214.721 397.199C215.581 406.429 213.621 407.609 212.851 409.929C212.081 412.249 212.041 414.859 213.991 415.049C216.321 415.269 217.431 414.889 220.331 415.199C223.711 415.569 227.331 415.949 233.391 416.379C235.771 416.549 237.881 413.269 234.631 412.789Z" fill="#263238"/>
<path d="M257.16 241.46C257.16 241.46 252.91 284.18 244.46 316C241.11 343.19 224.1 402.31 224.1 402.31C220.833 402.856 217.483 402.595 214.34 401.55C214.34 401.55 210.83 357.28 220.34 313.88C219.67 294.78 216.9 278.43 217.34 266.14C218.04 248.64 221.26 239.07 221.26 239.07L257.16 241.46Z" fill="#0168A8"/>
<path d="M262.44 199.552C263.56 202.862 267.8 211.112 261 215.782C262.27 218.622 263.34 237.892 260.77 241.332C257.01 244.092 237.45 243.552 220.6 241.332C219.89 234.332 222.97 219.942 218.27 197.442C218.019 196.212 218.028 194.943 218.296 193.717C218.565 192.491 219.087 191.334 219.829 190.322C220.571 189.309 221.517 188.463 222.605 187.838C223.694 187.213 224.901 186.822 226.15 186.692C227.57 186.542 229.07 186.432 230.61 186.352C235.973 185.966 241.356 185.966 246.72 186.352C248.46 186.512 250.26 186.732 251.98 186.972C258.18 187.842 259.6 191.202 262.44 199.552Z" fill="#263238"/>
<path d="M231.609 169C232.899 174.18 234.149 182.64 232.109 187.14C232.109 187.14 238.109 187.41 246.339 192.94C246.861 193.293 247.474 193.485 248.103 193.494C248.733 193.503 249.351 193.328 249.882 192.99C250.414 192.652 250.835 192.166 251.093 191.593C251.352 191.019 251.438 190.382 251.339 189.76C251.18 189.15 250.864 188.592 250.421 188.143C249.979 187.694 249.427 187.369 248.819 187.2C244.749 186.2 244.109 181.3 244.109 177.44L231.609 169Z" fill="#FFC3BD"/>
<path opacity="0.2" d="M244.11 177.402L237 172.602C236.94 173.689 237.16 174.774 237.64 175.752C239.135 178.554 241.572 180.739 244.52 181.922C244.226 180.433 244.089 178.918 244.11 177.402Z" fill="black"/>
<path d="M228.23 159.449C230.23 167.879 230.94 171.449 235.93 175.119C243.45 180.569 253.16 176.269 253.65 167.409C254.08 159.409 250.65 146.979 241.92 145.039C233.19 143.099 226.21 150.999 228.23 159.449Z" fill="#FFC3BD"/>
<path d="M242.829 162.379C242.959 163.069 243.419 163.569 243.829 163.489C244.239 163.409 244.549 162.779 244.429 162.089C244.309 161.399 243.839 160.889 243.429 160.969C243.019 161.049 242.709 161.679 242.829 162.379Z" fill="#263238"/>
<path d="M248.82 162.051C249.715 163.53 250.812 164.876 252.08 166.051C251.77 166.367 251.395 166.612 250.98 166.77C250.566 166.927 250.122 166.992 249.68 166.961L248.82 162.051Z" fill="#ED847E"/>
<path d="M244.729 168.618C244.333 168.617 243.938 168.654 243.549 168.728C243.522 168.732 243.496 168.741 243.472 168.755C243.448 168.769 243.428 168.788 243.412 168.811C243.396 168.833 243.385 168.859 243.379 168.886C243.374 168.913 243.374 168.941 243.379 168.968C243.389 169.022 243.42 169.07 243.465 169.102C243.51 169.134 243.565 169.147 243.619 169.138C244.479 168.966 245.366 168.998 246.211 169.233C247.055 169.467 247.832 169.897 248.479 170.488C248.518 170.525 248.57 170.546 248.624 170.546C248.678 170.546 248.73 170.525 248.769 170.488C248.789 170.469 248.805 170.447 248.815 170.422C248.826 170.397 248.832 170.37 248.832 170.343C248.832 170.316 248.826 170.289 248.815 170.264C248.805 170.239 248.789 170.217 248.769 170.198C247.684 169.159 246.232 168.591 244.729 168.618Z" fill="#263238"/>
<path d="M227.62 167.301C227.946 168.012 228.418 168.647 229.006 169.164C229.593 169.681 230.283 170.068 231.03 170.301C232.96 170.831 233.91 168.721 233.36 166.581C232.87 164.651 231.28 162.051 229.36 162.481C227.44 162.911 226.73 165.411 227.62 167.301Z" fill="#FFC3BD"/>
<path d="M240.38 158.449C240.434 158.433 240.484 158.407 240.527 158.37C240.57 158.334 240.605 158.289 240.63 158.239C240.846 157.765 241.171 157.35 241.58 157.028C241.989 156.706 242.469 156.487 242.98 156.389C243.082 156.366 243.172 156.307 243.232 156.221C243.292 156.136 243.319 156.032 243.306 155.928C243.294 155.825 243.243 155.73 243.164 155.661C243.086 155.593 242.984 155.556 242.88 155.559C242.232 155.677 241.621 155.948 241.1 156.35C240.578 156.751 240.159 157.272 239.88 157.869C239.856 157.917 239.842 157.97 239.839 158.024C239.835 158.078 239.843 158.132 239.86 158.183C239.878 158.234 239.906 158.282 239.942 158.322C239.978 158.362 240.021 158.395 240.07 158.419C240.117 158.445 240.168 158.461 240.222 158.466C240.275 158.471 240.329 158.465 240.38 158.449Z" fill="#263238"/>
<path d="M253.33 157.191C253.412 157.184 253.491 157.152 253.554 157.099C253.617 157.045 253.662 156.974 253.683 156.893C253.704 156.813 253.699 156.729 253.67 156.651C253.641 156.574 253.589 156.508 253.52 156.461C253.006 156.049 252.401 155.767 251.755 155.638C251.11 155.509 250.442 155.538 249.81 155.721C249.707 155.76 249.624 155.836 249.577 155.935C249.531 156.034 249.524 156.148 249.56 156.251C249.598 156.354 249.675 156.437 249.774 156.484C249.873 156.531 249.986 156.537 250.09 156.501C250.592 156.362 251.119 156.344 251.629 156.45C252.139 156.556 252.616 156.783 253.02 157.111C253.062 157.148 253.112 157.174 253.166 157.188C253.219 157.202 253.276 157.203 253.33 157.191Z" fill="#263238"/>
<path d="M250.219 160.41C250.183 160.415 250.149 160.427 250.118 160.446C250.087 160.465 250.06 160.49 250.039 160.52C250.016 160.549 250 160.583 249.992 160.619C249.983 160.656 249.982 160.693 249.989 160.73C249.995 160.766 250.009 160.801 250.03 160.832C250.051 160.863 250.077 160.889 250.109 160.91C250.469 161.179 250.889 161.357 251.333 161.429C251.777 161.5 252.232 161.463 252.659 161.32C252.694 161.307 252.726 161.288 252.753 161.263C252.78 161.238 252.802 161.208 252.817 161.174C252.832 161.14 252.84 161.104 252.84 161.067C252.84 161.03 252.833 160.994 252.819 160.96C252.806 160.924 252.785 160.892 252.759 160.865C252.734 160.838 252.702 160.816 252.668 160.801C252.633 160.786 252.596 160.778 252.558 160.778C252.521 160.778 252.484 160.785 252.449 160.8C252.111 160.903 251.754 160.925 251.407 160.864C251.059 160.803 250.731 160.661 250.449 160.45C250.416 160.425 250.378 160.409 250.339 160.402C250.299 160.395 250.258 160.398 250.219 160.41Z" fill="#263238"/>
<path d="M243.24 161.05L244.82 160.27C244.82 160.27 244.2 161.73 243.24 161.05Z" fill="#263238"/>
<path opacity="0.2" d="M228.609 196.59L218.389 198.06C218.882 200.5 219.285 202.833 219.599 205.06C225.689 205.3 228.829 200.6 228.609 196.59Z" fill="black"/>
<path d="M223.84 186.858H223.65C220.85 186.718 217.65 186.688 215.14 186.448C215.49 185.718 215.91 184.948 216.37 184.168C217.16 182.868 218.05 181.538 218.99 180.218C220.86 177.568 222.99 174.888 224.99 172.218L225.08 172.118C225.544 171.51 225.78 170.757 225.746 169.992C225.711 169.227 225.409 168.499 224.891 167.935C224.374 167.371 223.674 167.007 222.915 166.907C222.156 166.807 221.386 166.977 220.74 167.388C217.69 169.347 214.81 171.558 212.13 173.998C210.719 175.252 209.383 176.587 208.13 177.998C206.727 179.542 205.509 181.243 204.5 183.068C203.847 184.247 203.356 185.508 203.04 186.818C202.839 187.717 202.758 188.638 202.8 189.558C202.857 190.754 203.149 191.926 203.66 193.008C203.847 193.406 204.067 193.788 204.32 194.148C204.557 194.501 204.821 194.836 205.11 195.148C205.542 195.604 206.021 196.013 206.54 196.368C207.241 196.859 207.991 197.275 208.78 197.608C209.893 198.081 211.044 198.463 212.22 198.748C214.153 199.237 216.123 199.571 218.11 199.748C219.997 199.93 221.895 199.98 223.79 199.898C225.513 199.898 227.167 199.213 228.386 197.994C229.605 196.775 230.29 195.122 230.29 193.398C230.29 191.674 229.605 190.021 228.386 188.802C227.167 187.583 225.513 186.898 223.79 186.898L223.84 186.858Z" fill="#263238"/>
<path opacity="0.2" d="M247.44 193.15C249.338 192.882 251.077 191.942 252.34 190.5C252.34 190.5 253.97 196.7 247.34 194.23C247.223 194.188 247.123 194.108 247.056 194.004C246.99 193.899 246.96 193.775 246.971 193.651C246.983 193.528 247.035 193.411 247.12 193.32C247.204 193.23 247.317 193.17 247.44 193.15Z" fill="black"/>
<path d="M228.619 186.47C229.239 185.751 229.642 184.87 229.779 183.93C229.882 183.469 230.162 183.066 230.558 182.808C230.954 182.55 231.436 182.458 231.899 182.55C234.899 183.13 240.899 183.83 245.399 181.55C251.649 178.39 244.479 183.39 250.569 187.3C250.569 187.3 254.149 193.39 247.569 193.89C240.989 194.39 228.619 186.47 228.619 186.47Z" fill="#263238"/>
<path d="M227.88 162.131C227.88 162.131 229.77 168.211 235.77 158.971C235.77 158.971 240.62 158.161 244.32 148.631C244.32 148.631 242.77 154.231 244.52 154.631C246.27 155.031 248 146.631 248 146.631C246.218 145.036 244.027 143.969 241.673 143.548C239.319 143.128 236.894 143.371 234.67 144.251C226.52 147.131 225.48 157.291 227.88 162.131Z" fill="#263238"/>
<path d="M219.87 168.17L219.6 162.32L229.1 163.76C229.1 163.76 228.23 169.46 225.01 172.6L223.82 172.17C222.897 171.854 222.06 171.329 221.375 170.634C220.689 169.94 220.174 169.097 219.87 168.17Z" fill="#FFC3BD"/>
<path d="M224.37 157.999L227.59 158.929C228.295 159.131 228.891 159.605 229.249 160.245C229.607 160.886 229.697 161.642 229.5 162.349L229.1 163.789L219.6 162.349L221.13 159.399C221.424 158.826 221.908 158.374 222.499 158.119C223.09 157.863 223.751 157.821 224.37 157.999Z" fill="#FFC3BD"/>
</svg>
