<svg width="449" height="449" viewBox="0 0 449 449" fill="none" xmlns="http://www.w3.org/2000/svg">
<path d="M288.42 101.87C288.42 101.87 239.622 79.6083 187.682 103.827C135.742 128.046 105.964 182.456 80.5596 225.955C55.1552 269.454 63.4976 316.573 99.4176 340.854C135.338 365.136 163.67 336.364 216.732 339.445C269.795 342.525 283.373 351.307 329.88 325.22C376.388 299.133 390.477 229.224 360.367 173.988C330.257 118.752 288.42 101.87 288.42 101.87Z" fill="#E97A4A"/>
<path opacity="0.7" d="M288.42 101.87C288.42 101.87 239.622 79.6083 187.682 103.827C135.742 128.046 105.964 182.456 80.5596 225.955C55.1552 269.454 63.4976 316.573 99.4176 340.854C135.338 365.136 163.67 336.364 216.732 339.445C269.795 342.525 283.373 351.307 329.88 325.22C376.388 299.133 390.477 229.224 360.367 173.988C330.257 118.752 288.42 101.87 288.42 101.87Z" fill="white"/>
<path d="M319.463 321.268C316.042 318.898 311.588 323.001 309.891 325.839C308.481 328.192 306.667 331.82 306.245 332.673L306.191 332.466L306.29 332.386L306.191 332.439C305.417 329.471 304.302 326.602 302.868 323.89C303.614 322.992 306.64 321.924 307.358 321.637C310.16 320.424 312.863 319.454 314.542 316.698C315.835 314.515 316.419 311.444 313.59 310.214C309.774 308.544 306.209 313.438 305.086 316.545C304.188 318.987 303.21 322.615 302.886 323.783C301.646 321.448 300.239 319.206 298.675 317.075C299.753 315.92 300.958 314.89 302.267 314.004C304.673 312.118 307.026 310.492 307.915 307.403C308.607 304.961 308.382 301.845 305.338 301.378C301.225 300.74 299.052 306.388 298.738 309.675C298.54 311.983 298.486 315.234 298.468 316.76C297.283 315.144 296.115 313.68 295.047 312.342C293.978 311.004 292.927 309.648 292.146 308.544L292.425 308.418C292.32 308.461 292.205 308.477 292.092 308.463L292.047 308.409C292.613 307.403 295.397 305.778 296.008 305.365C298.54 303.659 301.009 302.204 302.114 299.195C303.012 296.807 303.012 293.682 299.986 292.99C295.927 292.092 293.323 297.534 292.802 300.794C292.389 303.344 292.074 307.08 291.976 308.301C291.841 308.104 291.715 307.915 291.607 307.726C290.171 305.385 288.896 302.949 287.791 300.435L288.087 300.381C287.978 300.406 287.864 300.406 287.755 300.381C287.71 300.291 287.674 300.192 287.629 300.102C288.501 298.796 289.516 297.591 290.656 296.51C292.721 294.256 294.786 292.272 295.146 289.084C295.433 286.561 294.715 283.525 291.634 283.552C287.468 283.552 286.201 289.515 286.453 292.811C286.606 294.822 286.983 297.534 287.234 299.195C286.525 297.525 286.004 296.124 285.681 295.199C285.519 294.741 285.402 294.409 285.339 294.203C285.263 292.789 285.296 291.372 285.438 289.964C285.573 286.92 285.878 284.064 284.109 281.388C282.717 279.26 280.203 277.401 277.823 279.404C274.653 282.098 277.5 287.486 279.808 289.82C281.433 291.482 283.867 293.655 285.016 294.661C285.321 295.559 286.04 297.615 287.126 300.111C285.931 299.276 284.811 298.338 283.777 297.31C281.487 295.289 279.458 293.26 276.261 292.954C273.737 292.703 270.711 293.493 270.801 296.546C270.918 300.704 276.871 301.854 280.158 301.539C282.538 301.306 285.878 300.749 287.342 300.507C288.459 303.073 289.755 305.558 291.221 307.942C291.302 308.086 291.401 308.229 291.491 308.364C290.11 307.855 288.778 307.22 287.513 306.469C284.819 305.068 282.331 303.605 279.161 304.09C276.647 304.476 273.908 305.984 274.752 308.939C275.892 312.953 281.936 312.594 285.052 311.48C287.297 310.672 290.395 309.316 291.724 308.714C292.523 309.873 293.52 311.157 294.688 312.594C295.855 314.03 297.13 315.665 298.423 317.452C297.525 317.829 294.275 315.862 293.547 315.494C290.853 314.093 288.375 312.63 285.196 313.114C282.69 313.501 279.951 315.009 280.796 317.964C281.936 321.978 287.98 321.619 291.087 320.505C293.987 319.463 298.271 317.506 298.423 317.452V317.596C298.415 317.551 298.415 317.505 298.423 317.461C299.936 319.542 301.302 321.726 302.509 323.998C301.351 324.259 298.316 323.406 297.606 323.253C294.625 322.615 291.859 321.852 288.922 323.154C286.606 324.178 284.361 326.351 285.95 328.991C288.096 332.583 293.843 330.625 296.546 328.74C298.693 327.24 301.647 324.833 302.554 324.088C303.959 326.766 305.056 329.595 305.823 332.52C304.566 332.673 301.782 331.892 301.108 331.748C298.127 331.119 295.361 330.347 292.425 331.649C290.108 332.682 287.863 334.846 289.452 337.486C291.598 341.078 297.346 339.121 300.049 337.235C302.069 335.816 304.808 333.598 305.877 332.745C306.89 336.777 307.215 340.952 306.838 345.092H307.242C307.625 340.929 307.306 336.731 306.299 332.673C307.026 331.901 310.456 331.389 311.202 331.227C314.192 330.59 317.021 330.159 319.167 327.77C320.828 325.974 321.987 323.028 319.463 321.268Z" fill="white"/>
<path d="M346.628 336.211C343.467 336.758 341.599 338.905 339.444 341.123C338.959 341.617 337.082 343.817 335.95 344.382C334.956 341.526 334.296 338.564 333.984 335.555C335.151 335.672 338.941 336.031 341.554 336.085C344.858 336.148 350.704 334.558 350.534 330.401C350.39 327.329 347.319 326.809 344.823 327.204C341.653 327.752 339.785 329.898 337.639 332.107C337.127 332.628 335.079 335.025 333.975 335.447C333.717 332.888 333.639 330.313 333.741 327.743L333.84 327.841L333.759 327.725C333.894 327.725 338.564 326.934 341.554 326.189C344.76 325.39 349.986 322.319 348.738 318.358C347.795 315.431 344.679 315.664 342.38 316.769C339.47 318.134 338.24 320.72 336.759 323.387C336.363 324.097 334.729 327.554 333.795 327.725C333.876 325.516 334.047 323.459 334.208 321.609C334.37 319.759 334.496 318.143 334.514 316.742C335.95 316.491 339.282 315.898 341.599 315.323C344.805 314.524 350.031 311.453 348.783 307.493C347.885 304.565 344.724 304.799 342.425 305.903C339.444 307.25 338.231 309.809 336.75 312.503C336.112 313.834 335.358 315.105 334.496 316.302C334.496 316.131 334.496 315.961 334.496 315.799C334.389 313.001 334.089 310.214 333.598 307.457C334.927 306.864 338.016 305.472 340.117 304.332C343.027 302.769 347.301 298.513 345.119 294.984C343.485 292.379 340.539 293.403 338.572 294.984C336.085 297.022 335.528 299.833 334.747 302.778C334.457 304.212 334.046 305.618 333.517 306.981C333.032 304.287 332.502 302.203 332.242 301.27C332.637 299.797 333.454 296.636 333.885 294.355C334.496 291.104 333.885 285.079 329.745 284.585C326.692 284.225 325.632 287.162 325.65 289.703C325.65 292.918 327.518 295.091 329.323 297.57C330.222 298.664 331.036 299.826 331.757 301.045C331.82 301.252 331.909 301.593 332.026 302.06C332.269 303.012 332.61 304.466 332.924 306.244C332.206 304.727 331.02 302.266 330.024 300.506C328.398 297.624 324.061 293.394 320.577 295.684C317.999 297.372 319.086 300.3 320.729 302.23C322.813 304.673 325.632 305.185 328.605 305.903C330.144 306.17 331.649 306.604 333.095 307.196L333.149 307.493C333.08 307.584 332.991 307.658 332.888 307.708L333.167 307.591C333.656 310.294 333.956 313.028 334.065 315.772C334.065 315.997 334.065 316.221 334.065 316.455C333.31 315.503 330.966 312.566 329.206 310.672C326.961 308.247 321.753 305.149 318.897 308.184C316.787 310.42 318.529 313.024 320.577 314.47C323.172 316.365 326.036 316.194 329.081 316.212C329.817 316.212 333.041 316.015 334.065 316.536V316.607C333.976 316.681 333.871 316.733 333.759 316.76L334.065 316.706C334.065 318.08 333.912 319.679 333.759 321.475C333.607 323.271 333.463 325.067 333.373 327.051C332.475 325.794 330.679 323.127 329.206 321.313C327.141 318.736 322.175 315.269 319.113 318.08C316.841 320.163 318.385 322.884 320.316 324.519C322.768 326.593 325.632 326.638 328.677 326.871C330.253 326.881 331.822 327.071 333.355 327.437C333.241 330.079 333.316 332.726 333.58 335.358C332.682 334.558 329.817 332.107 327.734 330.562C325.04 328.605 319.391 326.512 317.137 330.023C315.476 332.619 317.667 334.846 319.957 335.941C322.857 337.315 325.641 336.624 328.641 336.076C329.359 335.941 332.484 335.178 333.598 335.483C333.91 338.543 334.576 341.557 335.582 344.463L335.654 344.67C334.828 344.194 331.308 342.182 328.829 341.015C325.839 339.596 319.849 338.653 318.332 342.533C317.209 345.397 319.777 347.166 322.238 347.786C325.354 348.585 327.949 347.364 330.787 346.241C331.496 345.963 334.63 344.445 335.672 344.715C337.09 348.645 339.154 352.311 341.778 355.563L342.102 355.311C339.49 352.085 337.441 348.442 336.04 344.535C337.405 344.67 340.916 344.993 343.386 345.047C346.69 345.11 352.536 343.529 352.366 339.363C352.222 336.336 349.151 335.78 346.628 336.211Z" fill="white"/>
<path d="M103.853 325.91C100.701 325.281 98.178 326.637 95.4032 327.903C94.7746 328.191 92.2332 329.556 90.9671 329.699C91.0681 326.664 91.5201 323.651 92.3141 320.719C93.3557 321.249 96.804 322.947 99.1927 323.943C102.246 325.192 108.272 325.82 109.592 321.869C110.561 318.941 107.894 317.316 105.407 316.822C102.255 316.194 99.7315 317.55 96.9567 318.825C96.2922 319.121 93.5174 320.621 92.341 320.621C93.0174 318.139 93.8697 315.708 94.8913 313.347C94.9152 313.386 94.9334 313.428 94.9452 313.473V313.329C95.0709 313.329 99.7136 314.326 102.767 314.703C106.044 315.116 112.025 314.137 112.259 309.979C112.429 306.908 109.43 306.037 106.871 306.208C103.665 306.432 101.581 308.399 99.2466 310.357C98.618 310.868 95.8522 313.518 94.9182 313.329C95.8162 311.299 96.7142 309.441 97.4955 307.77C98.2768 306.1 99.0221 304.636 99.5429 303.334C100.98 303.631 104.293 304.277 106.664 304.573C109.942 304.978 115.922 303.999 116.156 299.841C116.327 296.77 113.327 295.899 110.768 296.069C107.562 296.294 105.479 298.261 103.135 300.218C102.062 301.218 100.902 302.119 99.6687 302.912C99.7315 302.759 99.7854 302.598 99.8393 302.445C100.743 299.804 101.463 297.104 101.994 294.363C103.458 294.291 106.835 294.103 109.178 293.806C112.456 293.393 118.015 290.969 117.26 286.883C116.668 283.857 113.552 283.758 111.136 284.548C108.092 285.554 106.556 287.969 104.76 290.448C103.966 291.68 103.064 292.84 102.066 293.914C102.578 291.22 102.839 289.101 102.964 288.131C103.862 286.901 105.766 284.243 106.987 282.267C108.721 279.456 110.328 273.61 106.637 271.671C103.943 270.225 101.878 272.569 100.98 274.966C99.8483 277.975 100.764 280.687 101.572 283.632C102.012 284.976 102.352 286.351 102.587 287.745C102.587 287.96 102.533 288.311 102.479 288.787C102.363 289.765 102.156 291.247 101.842 293.034C101.716 291.355 101.492 288.634 101.195 286.631C100.719 283.363 98.1959 277.849 94.119 278.729C91.1107 279.376 91.0658 282.501 91.9099 284.898C92.9696 287.925 95.4211 289.388 97.9265 291.184C99.2727 291.986 100.526 292.935 101.662 294.013C101.647 294.11 101.626 294.206 101.599 294.3C101.504 294.361 101.397 294.401 101.285 294.417H101.581C101.061 297.115 100.353 299.774 99.4621 302.373C99.3903 302.58 99.3095 302.795 99.2286 303.011C98.8605 301.844 97.738 298.269 96.7771 295.827C95.5558 292.765 91.8112 287.996 88.0575 289.792C85.2827 291.13 85.9652 294.175 87.3391 296.312C89.0723 299.006 91.8291 299.904 94.6488 300.99C95.3313 301.26 98.4025 302.239 99.1388 303.092V303.164C99.0291 303.184 98.9164 303.184 98.8066 303.164L99.1029 303.226C98.5911 304.502 97.8906 305.92 97.1004 307.564C96.3101 309.207 95.5379 310.788 94.7386 312.629C94.3884 311.138 93.6161 307.986 92.9426 305.777C91.9459 302.625 88.5604 297.596 84.6811 299.123C81.8164 300.245 82.2834 303.334 83.4957 305.561C85.0313 308.381 87.6893 309.459 90.4462 310.77C91.9121 311.351 93.3094 312.091 94.6129 312.979C93.5513 315.402 92.666 317.899 91.9638 320.45C91.3981 319.381 89.62 316.059 88.2371 313.868C86.4411 311.084 81.9511 307.088 78.5477 309.548C76.0692 311.344 77.2995 314.236 79.0506 316.086C81.2507 318.412 84.0973 318.78 87.1326 319.337C87.851 319.471 91.0479 319.866 91.9638 320.567C91.1616 323.528 90.7036 326.571 90.5989 329.637H90.4821L90.5989 329.699C90.5989 329.771 90.5989 329.843 90.5989 329.915C90.0062 329.179 87.4379 326.027 85.5521 324.042C83.2712 321.653 78.0269 318.609 75.2071 321.68C73.1238 323.943 74.8928 326.521 77.0031 327.966C79.6163 329.825 82.4809 329.628 85.5252 329.601C86.2974 329.601 89.7547 329.34 90.6348 329.933C90.5427 334.114 91.1498 338.281 92.4308 342.263L92.8169 342.137C91.5351 338.181 90.9279 334.037 91.0209 329.879C92.2512 330.499 95.4121 332.061 97.6931 332.995C100.755 334.252 106.781 334.872 108.092 330.921C109.008 328.029 106.341 326.404 103.853 325.91Z" fill="white"/>
<path d="M146.86 348.603C144.767 348.19 143.097 349.088 141.256 349.932C140.319 350.443 139.324 350.841 138.293 351.118C138.363 349.111 138.665 347.119 139.191 345.182C139.882 345.532 142.145 346.664 143.753 347.319C145.773 348.145 149.778 348.567 150.649 345.945C151.296 344.005 149.527 342.928 147.874 342.596C145.782 342.183 144.112 343.081 142.271 343.925C141.831 344.122 139.99 345.119 139.209 345.11C139.662 343.466 140.226 341.855 140.897 340.288C140.903 340.317 140.903 340.348 140.897 340.378V340.279C140.987 340.279 144.058 340.943 146.087 341.177C148.261 341.446 152.23 340.8 152.373 338.043C152.49 336.004 150.497 335.421 148.781 335.537C146.662 335.69 145.279 336.992 143.726 338.285C143.313 338.635 141.472 340.387 140.852 340.261C141.427 338.914 142.019 337.684 142.558 336.57C143.097 335.456 143.564 334.496 143.914 333.634C144.866 333.822 147.066 334.253 148.638 334.451C150.811 334.72 154.78 334.074 154.924 331.308C155.04 329.269 153.047 328.695 151.332 328.811C149.212 328.955 147.83 330.266 146.276 331.559C145.562 332.225 144.789 332.826 143.968 333.355C143.968 333.247 144.049 333.14 144.085 333.041C144.687 331.281 145.164 329.48 145.513 327.653C146.483 327.608 148.728 327.482 150.299 327.285C152.472 327.006 156.154 325.399 155.624 322.687C155.238 320.684 153.164 320.613 151.565 321.142C149.545 321.807 148.53 323.414 147.336 325.049C146.806 325.869 146.205 326.642 145.54 327.357C145.881 325.561 146.052 324.16 146.114 323.522C146.707 322.705 147.973 320.945 148.808 319.634C149.958 317.766 151.026 313.887 148.584 312.602C146.788 311.642 145.423 313.213 144.83 314.785C144.076 316.778 144.687 318.583 145.216 320.532C145.514 321.411 145.742 322.311 145.899 323.226C145.899 323.369 145.854 323.603 145.818 323.917C145.746 324.564 145.611 325.552 145.396 326.728C145.315 325.614 145.162 323.809 144.974 322.48C144.651 320.316 142.98 316.661 140.277 317.245C138.284 317.676 138.248 319.741 138.805 321.331C139.514 323.342 141.139 324.33 142.801 325.489C143.695 326.018 144.527 326.648 145.279 327.366C145.279 327.428 145.279 327.491 145.279 327.554C145.214 327.595 145.14 327.62 145.064 327.626H145.261C144.916 329.417 144.445 331.181 143.851 332.906C143.807 333.041 143.753 333.185 143.699 333.328C143.456 332.556 142.711 330.185 142.073 328.587C141.265 326.557 138.778 323.396 136.29 324.591C134.494 325.489 134.898 327.491 135.814 328.91C136.964 330.706 138.778 331.281 140.664 332.017C141.121 332.188 143.151 332.843 143.663 333.409V333.454C143.592 333.466 143.519 333.466 143.447 333.454L143.645 333.499C143.304 334.343 142.837 335.295 142.316 336.372C141.795 337.45 141.274 338.51 140.744 339.731C140.511 338.743 139.999 336.651 139.541 335.187C138.876 333.095 136.631 329.799 134.063 330.769C132.159 331.514 132.465 333.571 133.273 335.043C134.288 336.911 136.057 337.63 137.88 338.501C138.856 338.878 139.784 339.369 140.646 339.964C139.932 341.57 139.331 343.223 138.85 344.912C138.481 344.212 137.296 342.012 136.38 340.557C135.204 338.707 132.186 336.067 129.95 337.693C128.307 338.896 129.124 340.8 130.283 342.021C131.746 343.565 133.632 343.817 135.626 344.185C136.102 344.275 138.221 344.535 138.832 344.993C138.301 346.957 138 348.976 137.934 351.01C137.934 351.055 137.934 351.109 137.934 351.154C137.538 350.669 135.841 348.576 134.584 347.256C133.075 345.676 129.6 343.664 127.732 345.694C126.349 347.193 127.517 348.909 128.891 349.878C130.624 351.118 132.528 350.983 134.548 350.965C135.06 350.965 137.35 350.794 137.934 351.189C137.876 353.961 138.279 356.722 139.128 359.361L139.388 359.28C138.54 356.654 138.143 353.903 138.212 351.145C139.029 351.558 141.121 352.599 142.639 353.219C144.66 354.045 148.665 354.467 149.536 351.845C150.281 350.013 148.512 348.935 146.86 348.603Z" fill="white"/>
<path d="M140.331 348.076C138.535 349.154 137.844 350.941 137.036 352.8C136.674 353.792 136.191 354.736 135.599 355.61C134.312 354.072 133.206 352.391 132.303 350.6C133.057 350.393 135.491 349.702 137.134 349.145C139.2 348.417 142.451 346.065 141.355 343.523C140.547 341.656 138.508 342.024 137.063 342.886C135.267 343.963 134.575 345.75 133.767 347.609C133.41 348.65 132.908 349.636 132.276 350.537C131.52 349.009 130.869 347.43 130.328 345.813H130.408L130.328 345.759C130.408 345.714 133.129 344.143 134.818 342.976C136.506 341.808 139.137 338.602 137.413 336.447C136.147 334.849 134.279 335.747 133.102 336.95C131.612 338.477 131.45 340.371 131.163 342.338C131.082 342.868 130.875 345.4 130.336 345.723C129.861 344.332 129.492 343.029 129.151 341.835C128.81 340.641 128.523 339.617 128.199 338.737C129.043 338.243 130.965 337.103 132.267 336.196C134.063 334.956 136.596 331.822 134.871 329.667C133.596 328.069 131.728 328.967 130.552 330.17C129.07 331.697 128.909 333.591 128.612 335.558C128.527 336.532 128.356 337.497 128.1 338.441C128.1 338.333 128.02 338.234 127.984 338.135C127.259 336.423 126.416 334.764 125.46 333.169C126.152 332.487 127.741 330.897 128.783 329.703C130.22 328.051 131.89 324.396 129.681 322.726C128.056 321.495 126.466 322.824 125.622 324.279C124.562 326.129 124.868 328.006 125.083 330.017C125.233 330.974 125.305 331.941 125.299 332.909C124.401 331.355 123.548 330.215 123.17 329.658C123.072 328.661 122.838 326.506 122.569 324.989C122.183 322.833 120.396 319.232 117.711 319.897C115.726 320.391 115.762 322.456 116.373 324.028C117.136 326.021 118.797 326.955 120.494 328.051C121.308 328.523 122.085 329.054 122.82 329.64L123.224 330.206C123.601 330.745 124.122 331.562 124.787 332.586C123.988 331.813 122.668 330.565 121.635 329.703C119.956 328.302 116.247 326.695 114.648 328.931C113.445 330.583 114.801 332.146 116.283 332.954C118.142 333.987 120.009 333.636 122.021 333.385C123.041 333.189 124.081 333.108 125.119 333.142C125.155 333.194 125.188 333.248 125.218 333.304C125.197 333.377 125.16 333.445 125.11 333.502L125.254 333.367C126.184 334.933 127.009 336.559 127.723 338.234L127.885 338.656C127.193 338.243 125.056 336.968 123.512 336.205C121.554 335.226 117.594 334.525 116.534 337.103C115.753 338.988 117.432 340.192 119.058 340.641C121.114 341.207 122.847 340.434 124.742 339.743C125.2 339.572 127.158 338.701 127.912 338.782C127.875 338.848 127.823 338.903 127.759 338.944L127.939 338.845C128.244 339.698 128.54 340.722 128.837 341.871C129.133 343.02 129.492 344.161 129.905 345.463C129.07 344.888 127.301 343.667 125.972 342.886C124.086 341.763 120.198 340.775 118.95 343.245C118.052 345.041 119.623 346.388 121.213 346.954C123.215 347.672 125.002 347.026 126.951 346.46C127.931 346.094 128.949 345.841 129.986 345.705C130.533 347.374 131.199 349 131.98 350.573C131.226 350.294 128.882 349.441 127.229 348.965C125.119 348.373 121.096 348.408 120.53 351.111C120.108 353.114 121.985 353.985 123.664 354.129C125.784 354.299 127.346 353.231 129.052 352.171C129.474 351.92 131.225 350.707 131.989 350.644C132.902 352.463 134.02 354.171 135.32 355.736H135.249H135.329L135.428 355.844C134.8 355.745 132.141 355.323 130.328 355.179C128.145 355 124.212 355.817 124.176 358.583C124.176 360.621 126.161 361.115 127.831 360.927C129.95 360.693 131.27 359.328 132.77 357.963C133.147 357.622 134.746 355.97 135.464 355.871C137.265 357.977 139.404 359.768 141.795 361.169L141.939 360.936C139.561 359.542 137.435 357.757 135.653 355.655C136.551 355.422 138.787 354.802 140.331 354.254C142.397 353.518 145.647 351.165 144.552 348.624C143.815 346.846 141.777 347.214 140.331 348.076Z" fill="white"/>
<path d="M117.684 246.411C117.685 242.499 116.173 238.738 113.465 235.915C110.757 233.091 107.063 231.424 103.154 231.262V231.1H111.02C110.73 229.053 109.71 227.18 108.148 225.824C106.587 224.469 104.589 223.723 102.521 223.723C100.453 223.723 98.4549 224.469 96.8934 225.824C95.3319 227.18 94.312 229.053 94.0212 231.1H101.897V231.262C98.6749 231.393 95.5788 232.548 93.0582 234.558C90.5377 236.569 88.7241 239.332 87.8809 242.444C87.0378 245.556 87.209 248.856 88.3698 251.865C89.5306 254.873 91.6204 257.433 94.3355 259.172L92.333 265.108C92.2893 265.237 92.2716 265.374 92.2809 265.511C92.2902 265.647 92.3263 265.781 92.3872 265.903C92.4481 266.026 92.5325 266.135 92.6357 266.225C92.7389 266.315 92.8588 266.384 92.9885 266.428C93.0958 266.463 93.2079 266.481 93.3208 266.481C93.531 266.478 93.7355 266.412 93.9082 266.292C94.0809 266.172 94.2141 266.004 94.2906 265.808L96.1675 260.222C98.113 261.12 100.227 261.594 102.369 261.614C104.511 261.634 106.634 261.2 108.596 260.339L110.392 265.808C110.426 265.948 110.489 266.079 110.577 266.194C110.665 266.308 110.776 266.403 110.902 266.473C111.029 266.542 111.168 266.584 111.312 266.597C111.455 266.61 111.6 266.592 111.737 266.546C111.873 266.5 111.999 266.426 112.106 266.329C112.212 266.232 112.297 266.113 112.356 265.981C112.414 265.85 112.445 265.707 112.445 265.563C112.446 265.418 112.416 265.276 112.358 265.143L110.455 259.324C112.663 257.969 114.487 256.071 115.752 253.81C117.018 251.549 117.683 249.002 117.684 246.411ZM102.525 258.48C100.139 258.479 97.8061 257.769 95.8225 256.442C93.8389 255.115 92.2934 253.229 91.3813 251.024C90.4692 248.818 90.2315 246.392 90.6982 244.051C91.1649 241.711 92.3151 239.561 94.0033 237.874C95.6916 236.187 97.8421 235.038 100.183 234.573C102.524 234.108 104.95 234.348 107.155 235.262C109.36 236.175 111.244 237.722 112.57 239.707C113.896 241.691 114.603 244.025 114.603 246.411C114.599 249.612 113.324 252.681 111.06 254.943C108.796 257.206 105.726 258.478 102.525 258.48Z" fill="#263238"/>
<path d="M102.525 245.012H102.472L98.4485 238.645C98.4032 238.562 98.3414 238.489 98.2669 238.431C98.1925 238.373 98.1069 238.331 98.0155 238.307C97.9241 238.284 97.8288 238.279 97.7355 238.293C97.6422 238.308 97.5528 238.341 97.473 238.392C97.3931 238.442 97.3244 238.508 97.2711 238.586C97.2178 238.664 97.181 238.752 97.163 238.845C97.1451 238.938 97.1463 239.033 97.1666 239.125C97.1869 239.218 97.2259 239.305 97.2811 239.381L101.295 245.748C101.187 245.95 101.129 246.175 101.125 246.404C101.126 246.65 101.192 246.892 101.316 247.105C101.441 247.318 101.619 247.494 101.834 247.616V252.923C101.853 253.094 101.935 253.252 102.063 253.366C102.192 253.481 102.358 253.544 102.53 253.544C102.702 253.544 102.868 253.481 102.996 253.366C103.125 253.252 103.206 253.094 103.226 252.923V247.616C103.493 247.461 103.701 247.224 103.819 246.939C103.936 246.654 103.957 246.338 103.877 246.041C103.797 245.743 103.622 245.48 103.377 245.293C103.133 245.105 102.834 245.003 102.525 245.003V245.012Z" fill="#263238"/>
<path d="M109.311 274.418C125.143 270.833 135.07 255.092 131.485 239.261C127.9 223.429 112.159 213.501 96.3278 217.086C80.4962 220.672 70.5685 236.412 74.1538 252.244C77.739 268.075 93.4794 278.003 109.311 274.418Z" stroke="#E97A4A" stroke-width="2" stroke-linecap="round" stroke-linejoin="round"/>
<path d="M358.707 239.768V230.716C358.646 230.127 358.355 229.586 357.898 229.209C357.441 228.833 356.854 228.652 356.264 228.704H340.81C340.22 228.652 339.633 228.833 339.176 229.209C338.719 229.586 338.429 230.127 338.367 230.716V239.768C338.385 240.163 338.519 240.544 338.752 240.863C338.985 241.183 339.307 241.426 339.678 241.564C339.306 241.699 338.983 241.942 338.749 242.262C338.516 242.582 338.383 242.964 338.367 243.36V248.46C338.399 248.914 338.579 249.345 338.879 249.687C339.179 250.029 339.583 250.264 340.028 250.355C339.076 251.474 338.496 252.861 338.367 254.324V266.286C338.431 266.873 338.722 267.412 339.179 267.786C339.636 268.161 340.221 268.341 340.81 268.288H356.264C356.853 268.341 357.438 268.161 357.895 267.786C358.352 267.412 358.643 266.873 358.707 266.286V254.261C358.579 252.798 357.998 251.411 357.046 250.292C357.491 250.201 357.895 249.967 358.195 249.624C358.495 249.282 358.675 248.851 358.707 248.397V243.297C358.691 242.901 358.559 242.519 358.325 242.199C358.092 241.879 357.768 241.636 357.396 241.501C357.757 241.368 358.073 241.134 358.306 240.827C358.538 240.519 358.677 240.152 358.707 239.768Z" fill="#263238"/>
<path d="M347.006 223.289H350.059C350.238 223.289 350.416 223.324 350.581 223.393C350.747 223.462 350.897 223.562 351.024 223.689C351.151 223.816 351.251 223.966 351.32 224.132C351.388 224.297 351.424 224.475 351.424 224.654V227.582H345.641V224.654C345.641 224.475 345.676 224.297 345.745 224.132C345.813 223.966 345.914 223.816 346.04 223.689C346.167 223.562 346.318 223.462 346.483 223.393C346.649 223.324 346.826 223.289 347.006 223.289Z" fill="#263238"/>
<path d="M350.787 226.324H346.297V230.617H350.787V226.324Z" fill="#263238"/>
<path d="M339.543 240.601C339.577 240.94 339.702 241.263 339.904 241.536C340.106 241.81 340.379 242.023 340.693 242.155C340.362 242.29 340.077 242.518 339.871 242.811C339.666 243.104 339.549 243.449 339.534 243.807V248.584C339.55 249.002 339.701 249.403 339.965 249.728C340.229 250.052 340.592 250.281 340.998 250.38C340.149 251.445 339.639 252.74 339.534 254.098V265.287C339.576 265.822 339.826 266.318 340.231 266.67C340.636 267.021 341.163 267.199 341.699 267.164H355.375C355.91 267.199 356.437 267.021 356.842 266.67C357.248 266.318 357.498 265.822 357.539 265.287V254.071C357.434 252.713 356.924 251.418 356.076 250.353C356.482 250.254 356.844 250.025 357.108 249.701C357.373 249.377 357.524 248.975 357.539 248.557V243.807C357.525 243.449 357.408 243.104 357.202 242.811C356.997 242.518 356.712 242.29 356.381 242.155C356.695 242.023 356.967 241.81 357.17 241.536C357.372 241.263 357.497 240.94 357.53 240.601C357.53 240.601 357.53 240.529 357.53 240.493V235.438C355.389 236.235 353.162 236.777 350.894 237.054C346.656 237.494 345.461 236.021 341.726 236.021C340.958 236.03 340.204 236.221 339.525 236.578V240.493C339.525 240.493 339.525 240.565 339.525 240.601H339.543Z" fill="white"/>
<path d="M353.13 249.32C353.158 249.964 353.056 250.608 352.828 251.211C352.601 251.815 352.254 252.366 351.808 252.831C351.362 253.297 350.826 253.668 350.233 253.921C349.64 254.174 349.002 254.305 348.357 254.305C347.713 254.305 347.075 254.174 346.481 253.921C345.888 253.668 345.353 253.297 344.907 252.831C344.461 252.366 344.114 251.815 343.887 251.211C343.659 250.608 343.557 249.964 343.585 249.32C343.585 246.68 348.353 241.238 348.353 241.238C348.353 241.238 353.13 246.68 353.13 249.32Z" fill="#263238"/>
<path d="M369.322 266.541C380.8 255.063 380.8 236.453 369.322 224.975C357.843 213.497 339.234 213.497 327.756 224.975C316.277 236.453 316.278 255.063 327.756 266.541C339.234 278.019 357.843 278.019 369.322 266.541Z" stroke="#E97A4A" stroke-width="2" stroke-linecap="round" stroke-linejoin="round"/>
<path d="M123.502 191.678C129.9 191.678 135.086 185.735 135.086 178.405C135.086 171.075 129.9 165.133 123.502 165.133C117.104 165.133 111.918 171.075 111.918 178.405C111.918 185.735 117.104 191.678 123.502 191.678Z" fill="#263238"/>
<path d="M123.502 192.1C116.875 192.1 111.496 185.958 111.496 178.405C111.496 170.853 116.884 164.711 123.502 164.711C130.121 164.711 135.509 170.853 135.509 178.405C135.509 185.958 130.121 192.1 123.502 192.1ZM123.502 165.555C117.342 165.555 112.331 171.32 112.331 178.405C112.331 185.491 117.342 191.274 123.502 191.274C129.663 191.274 134.7 185.491 134.7 178.405C134.7 171.32 129.654 165.555 123.502 165.555Z" fill="white"/>
<path d="M119.713 191.678C126.111 191.678 131.297 185.735 131.297 178.405C131.297 171.075 126.111 165.133 119.713 165.133C113.315 165.133 108.129 171.075 108.129 178.405C108.129 185.735 113.315 191.678 119.713 191.678Z" fill="#263238"/>
<path d="M119.713 192.1C113.085 192.1 107.697 185.958 107.697 178.405C107.697 170.853 113.085 164.711 119.713 164.711C126.34 164.711 131.719 170.853 131.719 178.405C131.719 185.958 126.331 192.1 119.713 192.1ZM119.713 165.555C113.552 165.555 108.541 171.32 108.541 178.405C108.541 185.491 113.552 191.274 119.713 191.274C125.873 191.274 130.875 185.509 130.875 178.423C130.875 171.338 125.864 165.555 119.713 165.555Z" fill="white"/>
<path d="M120.97 179.879H97.1641V176.09H120.97C121.219 176.089 121.466 176.137 121.697 176.232C121.927 176.326 122.136 176.466 122.313 176.642C122.489 176.818 122.628 177.028 122.723 177.258C122.818 177.489 122.866 177.735 122.865 177.985C122.865 178.233 122.816 178.48 122.721 178.71C122.625 178.94 122.486 179.149 122.31 179.324C122.134 179.5 121.925 179.64 121.695 179.735C121.465 179.83 121.219 179.879 120.97 179.879Z" fill="#263238"/>
<path d="M120.971 180.302H96.7246V175.668H120.971C121.585 175.668 122.174 175.912 122.609 176.347C123.043 176.781 123.287 177.37 123.287 177.985C123.287 178.599 123.043 179.189 122.609 179.623C122.174 180.058 121.585 180.302 120.971 180.302ZM97.6226 179.458H120.971C121.361 179.458 121.736 179.302 122.012 179.026C122.288 178.75 122.443 178.375 122.443 177.985C122.443 177.594 122.288 177.22 122.012 176.943C121.736 176.667 121.361 176.512 120.971 176.512H97.6226V179.458Z" fill="white"/>
<path d="M102.858 191.678C109.255 191.678 114.442 185.735 114.442 178.405C114.442 171.075 109.255 165.133 102.858 165.133C96.4599 165.133 91.2734 171.075 91.2734 178.405C91.2734 185.735 96.4599 191.678 102.858 191.678Z" fill="#263238"/>
<path d="M102.857 192.1C96.2298 192.1 90.8418 185.958 90.8418 178.405C90.8418 170.853 96.2298 164.711 102.857 164.711C109.484 164.711 114.863 170.853 114.863 178.405C114.863 185.958 109.475 192.1 102.857 192.1ZM102.857 165.555C96.6968 165.555 91.6859 171.32 91.6859 178.405C91.6859 185.491 96.6968 191.274 102.857 191.274C109.017 191.274 114.046 185.491 114.046 178.405C114.046 171.32 109.008 165.555 102.857 165.555Z" fill="white"/>
<path d="M99.0588 191.678C105.457 191.678 110.643 185.735 110.643 178.405C110.643 171.075 105.457 165.133 99.0588 165.133C92.661 165.133 87.4746 171.075 87.4746 178.405C87.4746 185.735 92.661 191.678 99.0588 191.678Z" fill="#263238"/>
<path d="M99.059 192.1C92.4407 192.1 87.0527 185.958 87.0527 178.405C87.0527 170.853 92.4407 164.711 99.059 164.711C105.677 164.711 111.074 170.853 111.074 178.405C111.074 185.958 105.686 192.1 99.059 192.1ZM99.059 165.555C92.9077 165.555 87.8968 171.32 87.8968 178.405C87.8968 185.491 92.9077 191.274 99.059 191.274C105.21 191.274 110.23 185.509 110.23 178.423C110.23 171.338 105.219 165.555 99.059 165.555Z" fill="white"/>
<path d="M103.272 178.408C103.272 181.102 101.377 183.248 99.0421 183.248C96.7073 183.248 94.8125 181.084 94.8125 178.408C94.8125 175.732 96.7073 173.559 99.0421 173.559C101.377 173.559 103.272 175.732 103.272 178.408Z" fill="#263238"/>
<path d="M99.0598 183.666C96.5005 183.666 94.4082 181.305 94.4082 178.404C94.4082 175.504 96.5005 173.133 99.0598 173.133C101.619 173.133 103.711 175.495 103.711 178.404C103.711 181.314 101.628 183.666 99.0598 183.666ZM99.0598 173.977C96.9585 173.977 95.2523 175.962 95.2523 178.404C95.2523 180.847 96.9585 182.822 99.0598 182.822C101.161 182.822 102.867 180.838 102.867 178.404C102.867 175.97 101.161 173.977 99.0598 173.977Z" fill="white"/>
<path d="M101.61 178.408C101.61 181.102 99.7148 183.248 97.38 183.248C95.0452 183.248 93.1504 181.084 93.1504 178.408C93.1504 175.732 95.0362 173.559 97.38 173.559C99.7238 173.559 101.61 175.732 101.61 178.408Z" fill="#263238"/>
<path d="M97.3802 183.666C94.8119 183.666 92.7285 181.305 92.7285 178.404C92.7285 175.504 94.8119 173.133 97.3802 173.133C99.9484 173.133 102.032 175.495 102.032 178.404C102.032 181.314 99.9395 183.666 97.3802 183.666ZM97.3802 173.977C95.2788 173.977 93.5637 175.962 93.5637 178.404C93.5637 180.847 95.2788 182.822 97.3802 182.822C99.4815 182.822 101.188 180.838 101.188 178.404C101.188 175.97 99.4725 173.977 97.3802 173.977Z" fill="white"/>
<path d="M138.846 189.39C145.3 174.496 138.459 157.19 123.565 150.735C108.671 144.281 91.3641 151.122 84.9096 166.016C78.4551 180.91 85.2967 198.217 100.191 204.671C115.085 211.126 132.391 204.284 138.846 189.39Z" stroke="#E97A4A" stroke-width="2" stroke-linecap="round" stroke-linejoin="round"/>
<path d="M362.54 164.245C362.54 164.245 365.926 160.204 363.295 159.163C360.664 158.121 358.302 166.23 358.302 166.23C358.302 166.23 358.832 161.911 357.063 159.944C355.294 157.977 354.773 162.261 355.383 165.772C355.64 167.328 356.065 168.851 356.65 170.316C355.917 169.541 355.121 168.829 354.27 168.188C348.576 163.823 342.883 173.576 342.883 173.576C342.883 173.576 328.991 185.25 326.674 193.332C324.357 201.414 348.72 188.33 355.41 183.22C360.233 179.547 360.457 175.632 358.104 172.094C360.484 172.3 365.414 172.561 366.806 171.447C368.665 169.957 363.582 169.202 363.582 169.202C363.582 169.202 371.395 166.814 372.391 163.276C373.388 159.737 362.54 164.245 362.54 164.245Z" fill="#263238"/>
<path d="M335.053 187.396C334.987 187.416 334.916 187.42 334.847 187.407C334.779 187.395 334.714 187.366 334.658 187.325C334.162 186.968 333.585 186.74 332.979 186.66C332.92 186.657 332.863 186.642 332.81 186.616C332.758 186.59 332.711 186.554 332.672 186.509C332.634 186.465 332.604 186.413 332.586 186.357C332.568 186.302 332.561 186.243 332.566 186.184C332.569 186.126 332.584 186.068 332.61 186.015C332.636 185.963 332.672 185.916 332.717 185.877C332.761 185.839 332.813 185.81 332.869 185.791C332.924 185.773 332.983 185.766 333.042 185.771C333.818 185.858 334.558 186.146 335.188 186.606C335.282 186.676 335.345 186.78 335.364 186.896C335.382 187.012 335.355 187.13 335.287 187.226C335.231 187.308 335.149 187.368 335.053 187.396Z" fill="white"/>
<path d="M349.547 184.396C349.433 184.43 349.31 184.418 349.204 184.363C349.098 184.307 349.018 184.213 348.981 184.1C348.447 182.175 347.462 180.405 346.108 178.936C346.044 178.849 346.014 178.741 346.023 178.634C346.032 178.526 346.08 178.425 346.158 178.35C346.235 178.274 346.337 178.229 346.445 178.223C346.553 178.217 346.66 178.25 346.745 178.317C348.206 179.879 349.269 181.77 349.843 183.83C349.877 183.945 349.865 184.068 349.81 184.173C349.755 184.279 349.66 184.359 349.547 184.396Z" fill="white"/>
<path d="M344.698 177.569C344.641 177.593 344.58 177.606 344.518 177.606C344.457 177.606 344.396 177.593 344.339 177.569C343.67 177.149 342.926 176.862 342.148 176.725C342.029 176.709 341.922 176.648 341.848 176.554C341.774 176.46 341.74 176.341 341.753 176.222C341.766 176.104 341.826 175.997 341.918 175.923C342.011 175.849 342.129 175.814 342.247 175.827C343.152 175.981 344.018 176.311 344.797 176.797C344.869 176.842 344.928 176.907 344.965 176.984C345.001 177.061 345.016 177.147 345.005 177.232C344.995 177.317 344.96 177.397 344.906 177.463C344.852 177.529 344.779 177.578 344.698 177.605V177.569Z" fill="white"/>
<path d="M355.195 181.739C355.127 181.752 355.057 181.752 354.989 181.739C354.872 181.717 354.768 181.65 354.699 181.553C354.631 181.456 354.602 181.335 354.621 181.218C354.814 180.22 354.706 179.187 354.309 178.251C353.912 177.316 353.245 176.519 352.394 175.965C352.29 175.904 352.215 175.804 352.185 175.688C352.154 175.572 352.171 175.448 352.232 175.345C352.293 175.241 352.392 175.166 352.508 175.136C352.625 175.105 352.748 175.123 352.852 175.183C353.857 175.837 354.649 176.772 355.128 177.872C355.607 178.972 355.752 180.189 355.546 181.37C355.534 181.461 355.494 181.546 355.431 181.612C355.368 181.678 355.285 181.722 355.195 181.739Z" fill="white"/>
<path d="M342.543 187.923C342.428 187.957 342.305 187.946 342.199 187.89C342.094 187.835 342.014 187.74 341.977 187.627C341.731 187.021 341.365 186.47 340.903 186.007C340.44 185.544 339.889 185.179 339.283 184.933C339.173 184.887 339.086 184.801 339.039 184.692C338.992 184.583 338.99 184.46 339.031 184.349C339.051 184.294 339.082 184.243 339.122 184.2C339.162 184.157 339.21 184.122 339.264 184.098C339.317 184.074 339.375 184.06 339.434 184.059C339.493 184.057 339.551 184.068 339.606 184.089C340.348 184.384 341.022 184.829 341.584 185.396C342.147 185.963 342.586 186.64 342.875 187.385C342.899 187.5 342.879 187.62 342.817 187.721C342.755 187.821 342.657 187.894 342.543 187.923Z" fill="white"/>
<path d="M355.887 206.307C371.697 202.627 381.532 186.828 377.852 171.018C374.173 155.208 358.374 145.374 342.564 149.053C326.754 152.732 316.92 168.531 320.599 184.341C324.278 200.152 340.077 209.986 355.887 206.307Z" stroke="#E97A4A" stroke-width="2" stroke-linecap="round" stroke-linejoin="round"/>
<path d="M167.54 120.789C168.083 120.635 168.549 120.287 168.851 119.81C169.902 118.149 169.417 115.024 168.797 112.806C167.472 110.966 165.752 109.447 163.763 108.359C161.774 107.271 159.566 106.643 157.303 106.52C162.727 108.854 166.732 114.287 167.54 120.789Z" fill="#263238"/>
<path d="M152.023 125.809C156.766 126.514 161.601 126.266 166.247 125.082C166.315 124.459 166.351 123.832 166.355 123.205C166.355 122.9 166.355 122.601 166.355 122.307H166.31C162.961 122.307 159.916 120.206 156.701 117.997C155.161 116.897 153.567 115.875 151.924 114.935C149.54 113.597 146.845 112.915 144.112 112.959C142.29 115.516 141.307 118.575 141.301 121.714C142.342 122.765 145.27 124.911 152.023 125.809Z" fill="#263238"/>
<path d="M170.791 116.57C170.922 117.942 170.637 119.322 169.974 120.53C169.714 120.94 169.376 121.294 168.978 121.571C168.58 121.848 168.131 122.044 167.657 122.147C167.657 122.497 167.657 122.847 167.657 123.207C167.657 123.566 167.657 124.167 167.604 124.643C169.043 124.158 170.405 123.465 171.645 122.587C171.645 122.3 171.645 122.021 171.645 121.743C171.663 119.982 171.374 118.232 170.791 116.57Z" fill="#263238"/>
<path d="M167.029 128.36C168.027 128.235 169.037 128.47 169.876 129.025C170.668 127.558 171.214 125.971 171.492 124.328C170.231 125.079 168.887 125.681 167.487 126.124C167.381 126.878 167.228 127.625 167.029 128.36Z" fill="#263238"/>
<path d="M164.891 130.371C164.091 130.757 163.211 131.269 162.259 131.826C159.844 133.236 157.114 134.834 154.061 135.319C153.365 135.425 152.663 135.479 151.959 135.481C151.153 135.479 150.348 135.41 149.553 135.274C152.895 136.999 156.761 137.413 160.392 136.433C162.346 134.793 163.887 132.716 164.891 130.371Z" fill="#263238"/>
<path d="M166.823 129.709L166.571 129.763C165.862 131.763 164.807 133.623 163.455 135.258C165.759 134.075 167.722 132.322 169.157 130.167C168.47 129.712 167.631 129.548 166.823 129.709Z" fill="#263238"/>
<path d="M152.536 113.749C154.222 114.71 155.859 115.756 157.439 116.883C160.573 119.039 163.312 120.924 166.212 120.951C165.314 113.615 160.034 107.742 153.344 106.844C150.179 107.522 147.311 109.188 145.154 111.603C147.747 111.742 150.273 112.476 152.536 113.749Z" fill="#263238"/>
<path d="M153.855 134C156.657 133.56 159.243 132.024 161.578 130.677C162.828 129.881 164.151 129.204 165.529 128.656C165.744 127.961 165.917 127.253 166.05 126.537C163.307 127.219 160.489 127.554 157.662 127.534C155.719 127.528 153.778 127.396 151.852 127.139C146.258 126.394 143.097 124.813 141.391 123.547C141.812 127.047 143.438 130.291 145.988 132.724C148.425 133.924 151.164 134.368 153.855 134Z" fill="#263238"/>
<path d="M163.163 150.373C178.973 146.694 188.807 130.895 185.128 115.085C181.449 99.2746 165.65 89.4405 149.84 93.1196C134.029 96.7987 124.195 112.598 127.875 128.408C131.554 144.218 147.353 154.052 163.163 150.373Z" stroke="#E97A4A" stroke-width="2" stroke-linecap="round" stroke-linejoin="round"/>
<path d="M318.97 122.764C318.97 130.648 312.522 139.018 306.344 139.018C304.835 139.018 300.893 139.018 299.492 138.479C291.841 135.524 288.887 128.197 288.887 121.821C288.887 118.516 289.875 114.906 292.479 112.697C295.954 109.779 299.779 111.62 303.811 111.62C307.323 111.62 312.244 110.183 314.92 112.15C318.314 114.646 318.97 118.84 318.97 122.764Z" fill="#263238"/>
<path d="M303.426 112.691C304.028 110.819 304.733 108.981 305.536 107.186C306.105 106.055 306.995 105.118 308.095 104.492L309.703 105.166C308.534 105.941 307.492 106.892 306.614 107.985C305.503 109.775 304.559 111.662 303.794 113.625" fill="#263238"/>
<path d="M304.468 110.276C304.483 109.871 304.405 109.467 304.242 109.095C304.079 108.724 303.834 108.394 303.525 108.13C301.856 107.016 300.106 106.028 298.29 105.176C298.29 105.176 297.886 107.457 299.188 108.768C300.49 110.079 304.468 110.276 304.468 110.276Z" fill="#263238"/>
<path d="M314.83 117.468C314.327 118.366 312.792 118.419 311.409 117.62C310.026 116.821 309.308 115.456 309.82 114.576C310.331 113.696 311.858 113.624 313.25 114.423C314.642 115.223 315.342 116.588 314.83 117.468Z" fill="white"/>
<path d="M331.411 132.11C337.135 116.92 329.462 99.9661 314.273 94.2416C299.083 88.5171 282.129 96.19 276.404 111.38C270.68 126.569 278.353 143.523 293.542 149.248C308.732 154.973 325.686 147.3 331.411 132.11Z" stroke="#E97A4A" stroke-width="2" stroke-linecap="round" stroke-linejoin="round"/>
<mask id="mask0_5155_5557" style="mask-type:luminance" maskUnits="userSpaceOnUse" x="211" y="72" width="51" height="51">
<path d="M236.425 122.847C250.262 122.847 261.479 111.63 261.479 97.7925C261.479 83.9554 250.262 72.7383 236.425 72.7383C222.588 72.7383 211.371 83.9554 211.371 97.7925C211.371 111.63 222.588 122.847 236.425 122.847Z" fill="white"/>
</mask>
<g mask="url(#mask0_5155_5557)">
<path d="M252.779 95.7908L252.644 95.719C252.554 95.719 243.511 90.8339 241.365 90.4028C238.756 90.125 236.129 90.047 233.508 90.1694H232.52C231.155 90.1694 230.023 90.4477 229.88 90.8069C229.826 90.9686 229.969 91.3278 230.571 91.8756C232.367 93.5099 235.851 93.7614 237.522 93.8871C237.914 93.8945 238.305 93.9396 238.689 94.0218C239.609 94.5924 240.426 95.3151 241.105 96.159L241.661 96.7876L218.394 99.1763C218.106 99.1918 217.836 99.3211 217.643 99.5358C217.45 99.7505 217.351 100.033 217.366 100.321C217.382 100.609 217.511 100.88 217.726 101.072C217.94 101.265 218.223 101.365 218.511 101.349L236.022 101.08L216.329 105.489C216.208 105.515 216.093 105.567 215.993 105.639C215.892 105.712 215.808 105.804 215.745 105.911C215.678 106.017 215.634 106.135 215.615 106.259C215.597 106.383 215.604 106.509 215.637 106.63C215.698 106.836 215.827 107.016 216.003 107.14C216.179 107.264 216.392 107.325 216.607 107.312L231.343 106.064L231.505 106.908L218.331 110.76C218.088 110.842 217.883 111.012 217.758 111.236C217.632 111.461 217.595 111.724 217.654 111.974C217.712 112.225 217.862 112.444 218.073 112.59C218.285 112.736 218.544 112.798 218.798 112.763L231.532 110.536L231.756 111.371L224.097 114.164C224.027 114.192 223.966 114.237 223.919 114.295C223.872 114.353 223.84 114.422 223.827 114.496C223.818 114.571 223.828 114.648 223.858 114.717C223.888 114.787 223.937 114.847 223.998 114.891C224.037 114.922 224.082 114.944 224.129 114.956C224.177 114.969 224.227 114.971 224.276 114.963C226.404 114.748 237.1 113.616 238.887 113.221C240.835 112.79 251.001 108.596 251.099 108.551H251.252L271.682 108.111L267.03 93.0879H266.985L252.779 95.7908Z" fill="#263238"/>
<path d="M221.133 109.064L225.407 107.816L225.668 107.43L221.806 107.762L221.133 109.064Z" fill="#263238"/>
<path d="M225.821 107.421L225.723 107.718L227.141 107.305L225.821 107.421Z" fill="#263238"/>
<path d="M219.84 102.21C219.499 102.731 219.22 103.108 219.041 103.405C218.861 103.701 218.762 103.863 218.637 104.105L227.617 102.094L219.84 102.21Z" fill="#263238"/>
<path d="M223.288 104.745L222.238 106.864L231.361 106.092L231.523 106.936L225.39 108.732L224.357 111.821L229.026 111.004C230.338 109.675 231.55 108.31 231.55 108.31C230.92 109.111 230.35 109.958 229.844 110.842L231.55 110.546L231.774 111.381L229.475 112.216C229.489 112.258 229.51 112.298 229.538 112.333C230.212 113.006 231.334 113.671 231.999 113.006C232.663 112.342 238.033 105.409 239.183 104.736C241.942 103.171 244.559 101.368 247.004 99.3477C247.75 98.7101 249.312 97.0578 251.252 94.9295C248.558 93.5466 243.026 90.691 241.374 90.3677C238.765 90.0898 236.138 90.0118 233.516 90.1342H232.529C231.164 90.1342 230.032 90.4126 229.889 90.7718C229.835 90.9334 229.978 91.2926 230.58 91.8404C232.376 93.4748 235.86 93.7262 237.531 93.8519C237.923 93.8593 238.314 93.9044 238.698 93.9866C239.618 94.5573 240.435 95.2799 241.114 96.1239L241.67 96.7525L222.103 98.7819C221.492 99.6799 220.918 100.578 220.424 101.305L236.04 101.063L218.215 105.068C217.938 105.769 217.713 106.489 217.541 107.223L221.187 106.918C222.229 105.813 223.288 104.745 223.288 104.745Z" fill="#263238"/>
<path d="M219.041 109.44C219.407 108.884 219.825 108.364 220.289 107.887L217.326 108.138L217.254 108.542C217.254 108.542 218.592 110.329 219.041 109.44Z" fill="#263238"/>
<path d="M223.063 91.1218C224.54 90.8155 226.045 90.665 227.553 90.6728L222.704 97.8838L239.865 96.0878C239.438 95.5986 238.942 95.175 238.392 94.8306C238.077 94.7808 237.759 94.7508 237.44 94.7408C235.537 94.5971 231.989 94.3367 229.978 92.5048C229.664 92.2264 228.721 91.3643 229.08 90.4843C229.475 89.4516 231.406 89.2989 232.519 89.2989H233.489C236.186 89.1724 238.888 89.2565 241.571 89.5503C243.367 89.9095 249.258 92.9358 251.853 94.3008C258.014 87.476 267.335 76.5922 267.335 76.5922L252.338 71.0156C251.665 71.0156 244.741 84.6383 244.741 84.6383C244.741 84.6383 232.681 82.8423 231.118 83.0758C229.556 83.3092 222.623 87.0988 221.061 87.7723C219.498 88.4458 217.711 89.1103 218.6 90.0083C219.206 90.5293 219.925 90.9013 220.7 91.0947C221.475 91.288 222.284 91.2973 223.063 91.1218Z" fill="#263238"/>
<path d="M226.297 113.375L225.668 113.608C225.836 113.587 226 113.539 226.153 113.465L226.297 113.375Z" fill="#263238"/>
<path d="M226.925 112.25L224.348 112.699C224.428 112.837 224.521 112.966 224.626 113.085L226.925 112.25Z" fill="#263238"/>
<path d="M224.644 108.938L220.603 110.114L220.379 110.554C220.459 111.196 220.625 111.824 220.873 112.422L222.328 112.161C222.992 111.353 223.899 110.015 224.644 108.938Z" fill="#263238"/>
</g>
<path d="M229.099 82.8764C229.099 82.8764 225.92 76.0965 223.559 78.3864C221.044 80.8918 229.099 82.8764 229.099 82.8764Z" fill="#263238"/>
<path d="M238.869 82.8764C238.869 82.8764 242.048 76.0965 244.419 78.3864C246.951 80.8918 238.869 82.8764 238.869 82.8764Z" fill="#263238"/>
<path d="M230.652 82.3904C230.537 82.388 230.427 82.3406 230.346 82.2584C230.266 82.1761 230.221 82.0655 230.221 81.9504V67.0795C230.223 66.9659 230.269 66.8576 230.35 66.7772C230.43 66.6969 230.538 66.6507 230.652 66.6484C230.708 66.6484 230.764 66.6596 230.817 66.6812C230.869 66.7029 230.917 66.7347 230.957 66.7747C230.997 66.8147 231.028 66.8622 231.05 66.9145C231.072 66.9668 231.083 67.0229 231.083 67.0795V81.9504C231.084 82.0077 231.074 82.0647 231.053 82.1181C231.031 82.1714 231 82.22 230.96 82.261C230.92 82.302 230.872 82.3345 230.819 82.3567C230.766 82.379 230.709 82.3904 230.652 82.3904Z" fill="#263238"/>
<path d="M233.814 87.7965C233.7 87.7965 233.59 87.7511 233.509 87.6702C233.428 87.5894 233.383 87.4798 233.383 87.3654V84.2045C233.383 84.0902 233.428 83.9805 233.509 83.8997C233.59 83.8188 233.7 83.7734 233.814 83.7734C233.927 83.7757 234.036 83.8219 234.116 83.9022C234.196 83.9826 234.243 84.0909 234.245 84.2045V87.3654C234.243 87.479 234.196 87.5873 234.116 87.6677C234.036 87.748 233.927 87.7942 233.814 87.7965Z" fill="white"/>
<path d="M233.814 84.6446C233.757 84.6446 233.7 84.6331 233.647 84.6109C233.594 84.5887 233.546 84.5561 233.506 84.5152C233.466 84.4742 233.434 84.4256 233.413 84.3723C233.392 84.3189 233.382 84.2619 233.383 84.2045V76.1225C233.382 76.0656 233.392 76.009 233.413 75.9562C233.434 75.9033 233.466 75.8553 233.506 75.815C233.547 75.7748 233.595 75.743 233.648 75.7218C233.7 75.7006 233.757 75.6903 233.814 75.6915C233.871 75.6915 233.927 75.7027 233.979 75.7243C234.031 75.746 234.079 75.7777 234.119 75.8178C234.159 75.8578 234.191 75.9053 234.212 75.9576C234.234 76.0099 234.245 76.0659 234.245 76.1225V84.2045C234.245 84.3197 234.2 84.4303 234.119 84.5125C234.039 84.5948 233.929 84.6422 233.814 84.6446Z" fill="#263238"/>
<path d="M237.638 86.4404C237.524 86.4404 237.414 86.395 237.333 86.3141C237.252 86.2333 237.207 86.1237 237.207 86.0093V72.7369C237.207 72.6217 237.252 72.5112 237.333 72.4289C237.413 72.3466 237.523 72.2992 237.638 72.2969C237.695 72.2969 237.752 72.3083 237.805 72.3305C237.858 72.3527 237.906 72.3853 237.946 72.4263C237.986 72.4673 238.018 72.5158 238.039 72.5692C238.06 72.6225 238.07 72.6795 238.069 72.7369V86.0273C238.068 86.0827 238.056 86.1374 238.034 86.1881C238.011 86.2389 237.979 86.2848 237.939 86.3231C237.899 86.3615 237.852 86.3916 237.8 86.4117C237.749 86.4318 237.694 86.4416 237.638 86.4404Z" fill="#263238"/>
<path d="M237.638 71.8393C237.581 71.8393 237.525 71.8282 237.473 71.8065C237.421 71.7848 237.373 71.7531 237.333 71.7131C237.293 71.673 237.261 71.6255 237.24 71.5732C237.218 71.5209 237.207 71.4649 237.207 71.4083V67.9869C237.207 67.8717 237.252 67.7612 237.333 67.6789C237.413 67.5966 237.523 67.5492 237.638 67.5469C237.695 67.5469 237.752 67.5583 237.805 67.5805C237.858 67.6027 237.906 67.6353 237.946 67.6763C237.986 67.7173 238.018 67.7658 238.039 67.8192C238.06 67.8725 238.07 67.9295 238.069 67.9869V71.3634C238.077 71.4239 238.072 71.4854 238.053 71.5437C238.035 71.6019 238.004 71.6555 237.963 71.7008C237.922 71.746 237.872 71.7818 237.816 71.8057C237.76 71.8297 237.699 71.8411 237.638 71.8393Z" fill="#263238"/>
<path d="M226.602 92.7719C225.724 92.364 224.773 92.1342 223.805 92.0957C222.837 92.0571 221.871 92.2106 220.963 92.5474C217.811 93.6699 219.167 95.9239 221.187 95.4749C223.208 95.0259 226.602 92.7719 226.602 92.7719Z" fill="#263238"/>
<path d="M227.724 97.7101C227.61 97.7101 227.5 97.6647 227.419 97.5839C227.338 97.503 227.293 97.3934 227.293 97.2791V93.2201C227.295 93.1065 227.341 92.9982 227.422 92.9179C227.502 92.8375 227.61 92.7914 227.724 92.7891C227.838 92.7891 227.948 92.8345 228.029 92.9153C228.11 92.9961 228.155 93.1058 228.155 93.2201V97.2791C228.156 97.336 228.146 97.3926 228.125 97.4455C228.104 97.4983 228.072 97.5463 228.032 97.5866C227.991 97.6269 227.943 97.6586 227.89 97.6798C227.838 97.701 227.781 97.7113 227.724 97.7101Z" fill="white"/>
<path d="M255.907 118.896C267.386 107.418 267.386 88.8084 255.907 77.3303C244.429 65.8522 225.82 65.8522 214.342 77.3303C202.863 88.8084 202.863 107.418 214.342 118.896C225.82 130.374 244.429 130.374 255.907 118.896Z" stroke="#E97A4A" stroke-width="2" stroke-linecap="round" stroke-linejoin="round"/>
<path d="M216.417 394.223C259.848 394.223 295.055 388.795 295.055 382.1C295.055 375.404 259.848 369.977 216.417 369.977C172.987 369.977 137.779 375.404 137.779 382.1C137.779 388.795 172.987 394.223 216.417 394.223Z" fill="#263238"/>
<path d="M203.379 250.086C202.032 255.873 201.012 261.731 200.326 267.633C199.033 278.149 201.17 294.573 201.17 294.573C201.17 294.573 185.904 286.742 177.597 287.775C169.291 288.808 135.84 300.679 131.431 300.266C131.431 300.266 128.136 306.112 131.341 306.031C135.724 305.924 182.429 306.929 189.981 307.783C197.695 308.681 208.623 311.015 212.431 307.531C215.035 305.169 224.563 275.535 224.706 265.819C224.755 260.356 225.139 254.901 225.856 249.484" fill="white"/>
<path d="M203.379 250.086C202.032 255.873 201.012 261.731 200.326 267.633C199.033 278.149 201.17 294.573 201.17 294.573C201.17 294.573 185.904 286.742 177.597 287.775C169.291 288.808 135.84 300.679 131.431 300.266C131.431 300.266 128.136 306.112 131.341 306.031C135.724 305.924 182.429 306.929 189.981 307.783C197.695 308.681 208.623 311.015 212.431 307.531C215.035 305.169 224.563 275.535 224.706 265.819C224.755 260.356 225.139 254.901 225.856 249.484" stroke="#263238" stroke-linecap="round" stroke-linejoin="round"/>
<path d="M200.317 267.606C199.033 278.121 201.215 294.546 201.215 294.546C201.215 294.546 185.949 286.715 177.642 287.748C174.702 288.254 171.796 288.941 168.941 289.804C166.857 293.854 164.998 300.059 167.899 306.74C178.028 307.046 187.053 307.405 190.026 307.755C197.739 308.653 208.668 310.988 212.476 307.504C215.08 305.142 224.608 275.508 224.751 265.792C224.8 260.328 225.184 254.873 225.901 249.457L203.397 250.023C202.042 255.821 201.013 261.692 200.317 267.606Z" fill="#263238" stroke="#263238" stroke-linecap="round" stroke-linejoin="round"/>
<path d="M214.873 254.449L209.871 256.972C209.871 256.972 208.201 256.792 211.371 252.41" fill="white"/>
<path d="M214.873 254.449L209.871 256.972C209.871 256.972 208.201 256.792 211.371 252.41" stroke="#263238" stroke-linecap="round" stroke-linejoin="round"/>
<path d="M231.631 150.095C231.631 150.095 226.602 146.61 218.107 146.224C209.612 145.838 203.847 157.431 204.969 164.777C206.092 172.123 205.742 179.845 195.693 178.687C185.645 177.529 173.288 178.687 170.549 189.463C167.81 200.239 179.816 213.808 193.34 208.788C206.864 203.768 203.605 193.836 209.953 191.78C216.302 189.723 222.705 189.849 223.477 182.126C224.25 174.403 219.23 167.444 222.705 160.484C224.785 156.343 227.85 152.775 231.631 150.095Z" fill="#263238" stroke="#263238" stroke-linecap="round" stroke-linejoin="round"/>
<path d="M226.135 151.672C226.135 151.672 215.593 149.624 212.073 158.407C208.552 167.189 216.473 174.804 213.869 183.551C211.264 192.297 201.297 199.068 193.08 196.123C184.863 193.177 176.907 190.376 176.35 195.018C175.793 199.661 181.909 200.873 183.373 199.993C184.836 199.113 182.789 197.362 182.789 197.362" stroke="white" stroke-linecap="round" stroke-linejoin="round"/>
<path d="M192.378 185.976C191.154 185.655 189.904 185.445 188.643 185.348" stroke="white" stroke-linecap="round" stroke-linejoin="round"/>
<path d="M217.936 150.504C217.936 150.504 207.977 152.3 207.977 162.798C207.977 173.295 212.952 179.788 208.561 186.523C205.517 191.192 201.377 189.109 196.15 187.196" stroke="white" stroke-linecap="round" stroke-linejoin="round"/>
<path d="M237.386 160.508C237.386 160.508 237.736 166.156 236.488 169.488C235.239 172.819 229.663 178.145 229.986 180.982C230.309 183.82 238.445 189.657 241.041 188.678C243.636 187.699 245.8 172.954 245.8 172.954C245.8 172.954 241.238 162.465 237.386 160.508Z" fill="white" stroke="#263238" stroke-linecap="round" stroke-linejoin="round"/>
<path d="M241.94 170.772C243.61 173.897 245.038 176.493 248.756 177.175C253.847 178.073 255.724 171.518 256.407 164.873C256.575 164.945 256.754 164.994 256.936 165.016C257.573 165.111 258.222 165.059 258.835 164.865C259.449 164.67 260.009 164.338 260.475 163.894C260.888 163.472 260.259 162.663 259.433 161.792C257.008 159.224 256.802 157.24 256.829 153.71C256.909 152.131 256.776 150.548 256.434 149.005C256.342 148.67 256.231 148.34 256.101 148.017C252.393 138.947 233.831 138.615 232.825 149.813C232.537 153.773 233 157.753 234.19 161.541" fill="white"/>
<mask id="mask1_5155_5557" style="mask-type:luminance" maskUnits="userSpaceOnUse" x="232" y="141" width="29" height="37">
<path d="M241.94 170.772C243.61 173.897 245.038 176.493 248.756 177.175C253.847 178.073 255.724 171.518 256.407 164.873C256.575 164.945 256.754 164.994 256.936 165.016C257.573 165.111 258.222 165.059 258.835 164.865C259.449 164.67 260.009 164.338 260.475 163.894C260.888 163.472 260.259 162.663 259.433 161.792C257.008 159.224 256.802 157.24 256.829 153.71C256.909 152.131 256.776 150.548 256.434 149.005C256.342 148.67 256.231 148.34 256.101 148.017C252.393 138.947 233.831 138.615 232.825 149.813C232.537 153.773 233 157.753 234.19 161.541" fill="white"/>
</mask>
<g mask="url(#mask1_5155_5557)">
<path d="M256.828 153.738C256.908 152.159 256.775 150.576 256.433 149.032C256.341 148.697 256.23 148.367 256.1 148.044C252.392 138.975 233.83 138.642 232.824 149.84C232.535 153.782 232.995 157.744 234.18 161.514C241.579 159.071 249.174 157.268 256.882 156.126C256.828 155.399 256.828 154.618 256.828 153.738Z" fill="#E97A4A"/>
<path opacity="0.5" d="M256.828 153.738C256.908 152.159 256.775 150.576 256.433 149.032C256.341 148.697 256.23 148.367 256.1 148.044C252.392 138.975 233.83 138.642 232.824 149.84C232.535 153.782 232.995 157.744 234.18 161.514C241.579 159.071 249.174 157.268 256.882 156.126C256.828 155.399 256.828 154.618 256.828 153.738Z" fill="white"/>
</g>
<path d="M241.94 170.772C243.61 173.897 245.038 176.493 248.756 177.175C253.847 178.073 255.724 171.518 256.407 164.873C256.575 164.945 256.754 164.994 256.936 165.016C257.573 165.111 258.222 165.059 258.835 164.865C259.449 164.67 260.009 164.338 260.475 163.894C260.888 163.472 260.259 162.663 259.433 161.792C257.008 159.224 256.802 157.24 256.829 153.71C256.909 152.131 256.776 150.548 256.434 149.005C256.342 148.67 256.231 148.34 256.101 148.017C252.393 138.947 233.831 138.615 232.825 149.813C232.537 153.773 233 157.753 234.19 161.541" stroke="#263238" stroke-linecap="round" stroke-linejoin="round"/>
<path d="M254.259 157.852C254.259 158.535 254.07 159.1 253.747 159.118C253.424 159.136 253.136 158.598 253.091 157.915C253.047 157.233 253.28 156.667 253.603 156.649C253.927 156.631 254.223 157.152 254.259 157.852Z" fill="#263238"/>
<path d="M254.134 167.575C254.134 167.575 251.377 167.755 250.82 165.734" stroke="#263238" stroke-linecap="round" stroke-linejoin="round"/>
<path d="M255.032 146.231C249.761 138.993 232.69 144.282 231.756 154.645C231.289 159.881 231.091 166.912 236.12 167.729C237.674 162.853 242.693 162.718 242.532 160.213C242.307 156.495 249.716 156.621 248.728 150.999C247.947 146.123 251.817 149.069 255.032 146.231Z" fill="#263238" stroke="#263238" stroke-linecap="round" stroke-linejoin="round"/>
<path d="M231.935 158.803L257.797 150.084C257.797 150.084 254.421 141.104 250.038 138.805C245.656 136.506 235.239 138.805 231.683 143.367C228.127 147.929 230.256 151.233 231.935 158.803Z" fill="#E97A4A"/>
<mask id="mask2_5155_5557" style="mask-type:luminance" maskUnits="userSpaceOnUse" x="229" y="137" width="29" height="22">
<path d="M231.935 158.803L257.797 150.084C257.797 150.084 254.421 141.104 250.038 138.805C245.656 136.506 235.239 138.805 231.683 143.367C228.127 147.929 230.256 151.233 231.935 158.803Z" fill="white"/>
</mask>
<g mask="url(#mask2_5155_5557)">
<path opacity="0.2" d="M236.389 145.955C236.676 141.662 241.157 138.852 242.387 138.16C238.194 138.816 233.767 140.701 231.683 143.369C228.091 147.93 230.255 151.235 231.935 158.805L239.909 156.111C238.427 153.202 236.173 149.071 236.389 145.955Z" fill="black"/>
</g>
<path d="M231.935 158.803L257.797 150.084C257.797 150.084 254.421 141.104 250.038 138.805C245.656 136.506 235.239 138.805 231.683 143.367C228.127 147.929 230.256 151.233 231.935 158.803Z" stroke="#263238" stroke-linecap="round" stroke-linejoin="round"/>
<path d="M249.16 153.198C249.16 153.198 260.295 152.812 265.782 153.378C271.269 153.943 267.865 151.133 257.799 150.082C257.799 150.082 251.082 152.471 249.16 153.198Z" fill="white" stroke="#263238" stroke-linecap="round" stroke-linejoin="round"/>
<path d="M232.851 174.5C232.851 174.5 243.286 182.133 245.531 189.021C248.332 197.633 247.156 204.583 244.471 212.369C241.786 220.155 238.275 220.514 236.173 228.793C233.857 237.935 233.399 255.796 228.9 263.941C220.548 279.072 197.209 265.566 196.814 251.055C196.383 235.367 210.904 226 212.583 218.116C214.379 209.567 212.394 197.731 216.346 189.721C220.297 181.711 227.849 174.213 232.851 174.5Z" fill="#263238" stroke="#263238" stroke-linecap="round" stroke-linejoin="round"/>
<path d="M229.779 181.973C227.112 182.707 224.73 184.232 222.946 186.346C218.59 191.536 213.319 211.966 212.25 215.082C210.679 219.698 207.94 236.311 209.045 236.634C210.149 236.957 217.028 236.742 228.926 237.882C240.825 239.023 263.095 232.764 263.095 232.764C263.095 232.764 266.768 235.233 269.965 234.263C270.378 234.137 270.746 234.012 271.087 233.895C272.074 233.549 272.91 232.869 273.449 231.973C273.668 231.635 273.834 231.266 273.943 230.878C274.124 230.296 274.149 229.676 274.015 229.082C273.996 227.785 273.689 226.51 273.117 225.346C272.354 224.044 271.869 224.762 270.809 224.197C269.479 223.613 267.997 223.468 266.579 223.784C265.681 224.152 262.529 228.462 262.529 228.462C262.529 228.462 249.455 229.98 237.969 226.298C227.597 222.984 225.128 223.002 225.128 223.002C225.128 223.002 235.132 200.022 238.598 193.593" fill="#E97A4A"/>
<path d="M229.779 181.973C227.112 182.707 224.73 184.232 222.946 186.346C218.59 191.536 213.319 211.966 212.25 215.082C210.679 219.698 207.94 236.311 209.045 236.634C210.149 236.957 217.028 236.742 228.926 237.882C240.825 239.023 263.095 232.764 263.095 232.764C263.095 232.764 266.768 235.233 269.965 234.263C270.378 234.137 270.746 234.012 271.087 233.895C272.074 233.549 272.91 232.869 273.449 231.973C273.668 231.635 273.834 231.266 273.943 230.878C274.124 230.296 274.149 229.676 274.015 229.082C273.996 227.785 273.689 226.51 273.117 225.346C272.354 224.044 271.869 224.762 270.809 224.197C269.479 223.613 267.997 223.468 266.579 223.784C265.681 224.152 262.529 228.462 262.529 228.462C262.529 228.462 249.455 229.98 237.969 226.298C227.597 222.984 225.128 223.002 225.128 223.002C225.128 223.002 235.132 200.022 238.598 193.593" stroke="#263238" stroke-linecap="round" stroke-linejoin="round"/>
<path d="M269.966 234.326L270.783 234.057C271.408 233.862 271.988 233.544 272.487 233.121C272.987 232.699 273.397 232.18 273.693 231.596C273.805 231.39 273.889 231.169 273.944 230.941C274.125 230.359 274.15 229.739 274.016 229.145C273.997 227.848 273.69 226.573 273.118 225.409C272.355 224.107 271.87 224.825 270.81 224.26C269.48 223.676 267.999 223.531 266.581 223.847C265.683 224.215 262.531 228.525 262.531 228.525C259.516 228.798 256.486 228.876 253.461 228.759L253.578 235.161C259.109 233.949 263.132 232.818 263.132 232.818C263.132 232.818 266.769 235.278 269.966 234.326Z" fill="white" stroke="#263238" stroke-linecap="round" stroke-linejoin="round"/>
<path d="M270.774 224.266C270.774 224.266 271.879 227.319 271.196 228.926C270.514 230.534 268.215 226.636 268.215 226.636" stroke="#263238" stroke-linecap="round" stroke-linejoin="round"/>
<path d="M269.823 231.684L269.365 228.703C269.365 228.703 265.701 232.6 264.094 230.993" stroke="#263238" stroke-linecap="round" stroke-linejoin="round"/>
<path d="M249.753 202.947C249.313 200.918 248.738 198.906 248.118 196.904C247.292 194.273 246.376 191.66 245.532 189.064C245.332 188.473 245.089 187.896 244.805 187.34V186.011C244.805 184.574 246.484 181.943 246.484 181.943C245.236 180.555 243.875 179.273 242.416 178.109C239.309 175.478 233.804 171.895 233.804 171.895L231.218 174.714C226.315 175.819 219.885 182.626 216.347 189.81C212.396 197.82 214.416 209.655 212.584 218.204C211.633 222.694 206.55 227.624 202.41 233.928C212.042 239.429 222.723 242.843 233.759 243.95C234.532 238.293 235.187 232.797 236.175 228.882C237.239 224.806 239.297 221.057 242.165 217.971C246.304 213.454 251.252 209.835 249.753 202.947Z" fill="#E97A4A"/>
<mask id="mask3_5155_5557" style="mask-type:luminance" maskUnits="userSpaceOnUse" x="202" y="171" width="49" height="73">
<path d="M249.753 202.947C249.313 200.918 248.738 198.906 248.118 196.904C247.292 194.273 246.376 191.66 245.532 189.064C245.332 188.473 245.089 187.896 244.805 187.34V186.011C244.805 184.574 246.484 181.943 246.484 181.943C245.236 180.555 243.875 179.273 242.416 178.109C239.309 175.478 233.804 171.895 233.804 171.895L231.218 174.714C226.315 175.819 219.885 182.626 216.347 189.81C212.396 197.82 214.416 209.655 212.584 218.204C211.633 222.694 206.55 227.624 202.41 233.928C212.042 239.429 222.723 242.843 233.759 243.95C234.532 238.293 235.187 232.797 236.175 228.882C237.239 224.806 239.297 221.057 242.165 217.971C246.304 213.454 251.252 209.835 249.753 202.947Z" fill="white"/>
</mask>
<g mask="url(#mask3_5155_5557)">
<path opacity="0.2" d="M216.795 237.969C216.795 236.64 226.099 226.349 228.092 223.691C230.086 221.033 219.786 223.026 218.124 223.026C216.463 223.026 222.776 215.384 227.104 207.419C231.433 199.454 230.418 197.451 230.418 197.451L219.112 192.449C219.112 192.449 217.316 193.302 214.694 194.577C213.006 202.058 214.065 211.199 212.575 218.159C211.623 222.649 206.54 227.579 202.4 233.883C206.878 236.469 211.616 238.576 216.535 240.169C216.671 239.442 216.758 238.707 216.795 237.969Z" fill="black"/>
</g>
<path d="M249.753 202.947C249.313 200.918 248.738 198.906 248.118 196.904C247.292 194.273 246.376 191.66 245.532 189.064C245.332 188.473 245.089 187.896 244.805 187.34V186.011C244.805 184.574 246.484 181.943 246.484 181.943C245.236 180.555 243.875 179.273 242.416 178.109C239.309 175.478 233.804 171.895 233.804 171.895L231.218 174.714C226.315 175.819 219.885 182.626 216.347 189.81C212.396 197.82 214.416 209.655 212.584 218.204C211.633 222.694 206.55 227.624 202.41 233.928C212.042 239.429 222.723 242.843 233.759 243.95C234.532 238.293 235.187 232.797 236.175 228.882C237.239 224.806 239.297 221.057 242.165 217.971C246.304 213.454 251.252 209.835 249.753 202.947Z" stroke="#263238" stroke-linecap="round" stroke-linejoin="round"/>
<path d="M233.732 181.002C231.135 180.077 228.32 179.952 225.65 180.643C219.104 182.376 203.03 196.053 200.354 198.001C196.411 200.866 184.612 212.872 185.294 213.815C185.977 214.758 191.76 218.494 200.838 226.279C209.917 234.065 228.676 241.114 228.676 241.114C228.676 241.114 233.274 245.901 236.444 246.942C237.396 247.257 238.168 247.463 238.806 247.607C238.985 247.67 239.174 247.733 239.354 247.777C239.978 248.005 240.653 248.057 241.305 247.929C241.957 247.801 242.562 247.497 243.053 247.05C243.532 246.679 243.906 246.19 244.14 245.631C244.864 244.551 245.339 243.325 245.532 242.039C245.658 240.54 243.431 240.243 242.892 239.193C242.144 237.945 241.013 236.972 239.668 236.418C238.77 236.22 233.669 237.908 233.669 237.908C233.669 237.908 222.175 231.622 214.874 221.951C208.301 213.276 206.271 211.866 206.271 211.866C206.271 211.866 227.68 198.836 234.19 195.55" fill="#E97A4A"/>
<mask id="mask4_5155_5557" style="mask-type:luminance" maskUnits="userSpaceOnUse" x="185" y="180" width="61" height="68">
<path d="M233.732 181.002C231.135 180.077 228.32 179.952 225.65 180.643C219.104 182.376 203.03 196.053 200.354 198.001C196.411 200.866 184.612 212.872 185.294 213.815C185.977 214.758 191.76 218.494 200.838 226.279C209.917 234.065 228.676 241.114 228.676 241.114C228.676 241.114 233.274 245.901 236.444 246.942C237.396 247.257 238.168 247.463 238.806 247.607C238.985 247.67 239.174 247.733 239.354 247.777C239.978 248.005 240.653 248.057 241.305 247.929C241.957 247.801 242.562 247.497 243.053 247.05C243.532 246.679 243.906 246.19 244.14 245.631C244.864 244.551 245.339 243.325 245.532 242.039C245.658 240.54 243.431 240.243 242.892 239.193C242.144 237.945 241.013 236.972 239.668 236.418C238.77 236.22 233.669 237.908 233.669 237.908C233.669 237.908 222.175 231.622 214.874 221.951C208.301 213.276 206.271 211.866 206.271 211.866C206.271 211.866 227.68 198.836 234.19 195.55" fill="white"/>
</mask>
<g mask="url(#mask4_5155_5557)">
<path opacity="0.2" d="M242.039 246.59C234.729 244.597 226.1 237.952 219.787 233.965C213.474 229.977 196.205 215.367 193.879 214.702C191.553 214.038 194.544 213.041 198.199 210.383C201.854 207.725 193.547 210.383 191.553 210.383C189.56 210.383 220.451 190.456 224.779 185.482C228.039 181.719 223.72 182.123 221.412 182.545C213.842 186.829 202.554 196.392 200.336 198C196.394 200.864 184.594 212.871 185.276 213.813C185.959 214.756 191.742 218.492 200.821 226.278C209.9 234.063 228.659 241.113 228.659 241.113C228.659 241.113 233.257 245.899 236.427 246.941C237.378 247.255 238.151 247.462 238.788 247.605C238.968 247.668 239.156 247.731 239.336 247.776C239.96 248.003 240.635 248.056 241.287 247.928C241.939 247.799 242.544 247.495 243.036 247.048L243.179 246.923L242.039 246.59Z" fill="black"/>
</g>
<path d="M233.732 181.002C231.135 180.077 228.32 179.952 225.65 180.643C219.104 182.376 203.03 196.053 200.354 198.001C196.411 200.866 184.612 212.872 185.294 213.815C185.977 214.758 191.76 218.494 200.838 226.279C209.917 234.065 228.676 241.114 228.676 241.114C228.676 241.114 233.274 245.901 236.444 246.942C237.396 247.257 238.168 247.463 238.806 247.607C238.985 247.67 239.174 247.733 239.354 247.777C239.978 248.005 240.653 248.057 241.305 247.929C241.957 247.801 242.562 247.497 243.053 247.05C243.532 246.679 243.906 246.19 244.14 245.631C244.864 244.551 245.339 243.325 245.532 242.039C245.658 240.54 243.431 240.243 242.892 239.193C242.144 237.945 241.013 236.972 239.668 236.418C238.77 236.22 233.669 237.908 233.669 237.908C233.669 237.908 222.175 231.622 214.874 221.951C208.301 213.276 206.271 211.866 206.271 211.866C206.271 211.866 227.68 198.836 234.19 195.55" stroke="#263238" stroke-linecap="round" stroke-linejoin="round"/>
<path d="M242.901 239.192C242.152 237.945 241.022 236.971 239.677 236.417C238.779 236.22 233.678 237.908 233.678 237.908C231.825 236.854 230.027 235.706 228.29 234.469L224.15 239.291C226.844 240.449 228.64 241.087 228.64 241.087C228.64 241.087 233.238 245.873 236.408 246.915C237.36 247.229 238.132 247.436 238.77 247.58C238.949 247.642 239.138 247.705 239.318 247.75C239.942 247.978 240.617 248.03 241.269 247.902C241.921 247.774 242.526 247.47 243.017 247.023C243.496 246.651 243.87 246.163 244.104 245.604C244.827 244.524 245.303 243.297 245.496 242.012C245.666 240.539 243.439 240.261 242.901 239.192Z" fill="white" stroke="#263238" stroke-linecap="round" stroke-linejoin="round"/>
<path d="M241.383 162.11C241.383 162.11 238.581 157.009 236.372 158.805C234.163 160.601 236.794 164.004 239.73 164.983C242.667 165.962 241.455 164.085 241.455 164.085" fill="white"/>
<path d="M241.383 162.11C241.383 162.11 238.581 157.009 236.372 158.805C234.163 160.601 236.794 164.004 239.73 164.983C242.667 165.962 241.455 164.085 241.455 164.085" stroke="#263238" stroke-linecap="round" stroke-linejoin="round"/>
<path d="M209.377 264.057C213.471 268.364 217.803 272.439 222.353 276.261C230.435 283.113 245.153 289.372 245.153 289.372C245.153 289.372 237.134 308.077 237.43 316.402C237.727 324.726 246.563 359.147 245.755 363.493C245.755 363.493 250.622 367.184 251.493 364.104C252.912 359.129 255.57 318.692 256.63 310.987C257.671 303.435 260.437 289.839 260.428 286.328C260.428 279.593 242.325 260.349 234.287 254.898C229.752 251.852 225.406 248.532 221.275 244.957" fill="white"/>
<path d="M209.377 264.057C213.471 268.364 217.803 272.439 222.353 276.261C230.435 283.113 245.153 289.372 245.153 289.372C245.153 289.372 237.134 308.077 237.43 316.402C237.727 324.726 246.563 359.147 245.755 363.493C245.755 363.493 250.622 367.184 251.493 364.104C252.912 359.129 255.57 318.692 256.63 310.987C257.671 303.435 260.437 289.839 260.428 286.328C260.428 279.593 242.325 260.349 234.287 254.898C229.752 251.852 225.406 248.532 221.275 244.957" stroke="#263238" stroke-linecap="round" stroke-linejoin="round"/>
<path d="M234.287 254.89C229.752 251.844 225.406 248.525 221.275 244.949L209.377 264.059C213.471 268.366 217.803 272.44 222.353 276.263C230.435 283.114 245.153 289.373 245.153 289.373C245.153 289.373 237.134 308.079 237.43 316.403C237.766 320.147 238.339 323.867 239.146 327.538C244.38 328.625 249.761 328.813 255.058 328.095C255.696 320.336 256.262 313.673 256.63 310.988C257.671 303.436 260.437 289.84 260.428 286.329C260.419 279.594 242.325 260.35 234.287 254.89Z" fill="#263238" stroke="#263238" stroke-linecap="round" stroke-linejoin="round"/>
<path d="M207.492 266.348C211.551 269.634 217.909 274.43 222.354 276.226" stroke="white" stroke-linecap="round" stroke-linejoin="round"/>
<path d="M203.549 263.062C203.549 263.062 204.24 263.664 205.345 264.616" stroke="white" stroke-linecap="round" stroke-linejoin="round"/>
<path d="M216.453 243.547L230.309 251.413" stroke="white" stroke-linecap="round" stroke-linejoin="round"/>
<path d="M207.645 238.867C207.645 238.867 201.664 242.019 201.979 244.848C202.293 247.677 209.217 242.962 208.588 246.105C207.959 249.248 204.547 249.832 207.959 251.143C211.372 252.454 226.53 264.676 235.977 270.98C245.424 277.284 255.176 285.77 254.233 288.284C253.29 290.799 244.472 313.428 246.358 328.263" stroke="white" stroke-linecap="round" stroke-linejoin="round"/>
<path d="M167.027 300.831C167.027 300.831 189.693 304.289 199.131 305.232C208.569 306.174 209.521 304.289 207.949 302.403C206.378 300.517 209.521 303.031 210.149 300.194C210.778 297.356 212.044 279.737 212.358 275.328" stroke="white" stroke-linecap="round" stroke-linejoin="round"/>
<path d="M132.293 300.749C132.293 300.749 126.465 292.595 124.553 293.565C122.64 294.534 118.096 297.713 115.636 299.033C113.175 300.353 108.775 305.679 108.811 307.403C108.847 309.127 113.507 306.334 116.596 305.714C119.686 305.095 131.342 306.083 131.342 306.083C131.342 306.083 130.713 301.602 132.293 300.749Z" fill="#E97A4A" stroke="#263238" stroke-linecap="round" stroke-linejoin="round"/>
<path d="M126.412 294.148C125.657 293.601 125.002 293.322 124.553 293.547C122.649 294.499 118.096 297.695 115.636 299.016C113.175 300.336 108.775 305.661 108.811 307.385C108.811 308.022 109.475 308.04 110.436 307.78C112.313 304.053 116.363 302.114 120.188 298.8C122.145 297.098 124.225 295.543 126.412 294.148Z" fill="white" stroke="#263238" stroke-linecap="round" stroke-linejoin="round"/>
<path d="M245.755 363.492C245.755 363.492 241.561 372.607 243.357 373.783C245.153 374.96 250.164 377.375 252.535 378.812C254.906 380.249 261.703 381.506 263.185 380.608C264.667 379.71 259.925 377.061 257.86 374.69C255.795 372.32 251.511 364.121 251.511 364.121C251.511 364.121 247.282 364.444 245.755 363.492Z" fill="#E97A4A" stroke="#263238" stroke-linecap="round" stroke-linejoin="round"/>
<path d="M263.168 380.591C263.805 380.205 263.275 379.486 262.27 378.606C260.925 378.764 259.569 378.791 258.22 378.687C255.615 378.427 246.698 373.676 242.954 371.629C242.801 372.671 242.864 373.488 243.313 373.784C245.109 374.969 250.12 377.376 252.49 378.813C254.861 380.25 261.686 381.48 263.168 380.591Z" fill="white" stroke="#263238" stroke-linecap="round" stroke-linejoin="round"/>
</svg>
