<svg width="578" height="371" viewBox="0 0 578 371" fill="none" xmlns="http://www.w3.org/2000/svg">
<path d="M568 0H10C4.47715 0 0 4.47715 0 10V361C0 366.523 4.47715 371 10 371H568C573.523 371 578 366.523 578 361V10C578 4.47715 573.523 0 568 0Z" fill="#171717"/>
<g clip-path="url(#clip0_253_275)">
<path d="M289 156C272.433 156 259 169.433 259 186C259 202.567 272.433 216 289 216C305.567 216 319 202.567 319 186C319 169.433 305.567 156 289 156ZM300.14 186.34L283.265 196.411C283.144 196.485 282.99 196.488 282.866 196.415C282.745 196.345 282.668 196.215 282.668 196.071V185.999V175.927C282.668 175.784 282.745 175.653 282.866 175.583C282.99 175.511 283.144 175.515 283.265 175.586L300.14 185.66C300.261 185.729 300.332 185.861 300.332 185.999C300.332 186.139 300.261 186.269 300.14 186.34Z" fill="white"/>
</g>
<defs>
<clipPath id="clip0_253_275">
<rect width="60" height="60" fill="white" transform="translate(259 156)"/>
</clipPath>
</defs>
</svg>
