<svg width="100" height="101" viewBox="0 0 100 101" fill="none" xmlns="http://www.w3.org/2000/svg">
<g clip-path="url(#clip0_4431_3223)">
<path d="M0 50.2031C0 22.5933 22.3902 0.203125 50 0.203125C77.6098 0.203125 100 22.5933 100 50.2031C100 77.813 77.6098 100.203 50 100.203C22.3902 100.203 0 77.813 0 50.2031Z" fill="#FFEFD6"/>
<path d="M44.418 47.5625L44.6598 51.6536C44.6598 51.6536 48.0657 53.0039 49.5369 53.0039C51.0081 53.0039 55.341 51.6536 55.341 51.6536L55.5828 47.5625H44.418Z" fill="#3D3C3C"/>
<path d="M17.332 27.2512C17.332 26.5055 20.5162 26.9086 21.4836 26.707L22.6122 27.231C29.6053 26.8078 32.8701 27.3318 32.8701 27.3318C37.0418 26.8884 44.5388 27.1504 46.1108 27.4325C47.0579 27.5938 46.1914 31.7453 45.0023 31.7453C43.1885 31.5639 34.2607 30.0726 32.8701 29.9114C32.6887 29.8912 22.592 28.944 22.592 28.944C22.592 28.944 22.1889 28.944 21.5037 29.1859C20.5767 29.5083 19.1861 29.4277 18.4405 29.065C17.8359 28.7828 17.332 28.017 17.332 27.2512Z" fill="#F4B382"/>
<path d="M20.4964 27.1898C20.4964 27.1898 19.4887 27.2705 19.388 26.7465C19.3073 26.3031 19.3275 26.1419 21.4637 26.8876C21.4637 26.8876 21.4234 27.1898 20.4964 27.1898Z" fill="#F4B382"/>
<path d="M82.6681 27.2512C82.6681 26.5055 79.4839 26.9086 78.5165 26.707L77.388 27.231C70.3948 26.8078 67.13 27.3318 67.13 27.3318C62.9583 26.8884 55.4613 27.1504 53.8894 27.4325C52.9422 27.5938 53.8088 31.7453 54.9978 31.7453C56.8116 31.5639 65.7394 30.0726 67.13 29.9114C67.3114 29.8912 77.4081 28.944 77.4081 28.944C77.4081 28.944 77.8112 28.944 78.4964 29.1859C79.4234 29.5083 80.814 29.4277 81.5597 29.065C82.1643 28.7828 82.6681 28.017 82.6681 27.2512Z" fill="#F4B382"/>
<path d="M79.5045 27.1898C79.5045 27.1898 80.5121 27.2705 80.6129 26.7465C80.6935 26.3031 80.6733 26.1419 78.5371 26.8876C78.5371 26.8876 78.5774 27.1898 79.5045 27.1898Z" fill="#F4B382"/>
<path d="M55.341 34.019C55.7239 31.7014 53.8295 27.4893 53.8295 27.4893C52.9226 27.3684 51.9754 27.3281 51.27 27.3281H48.7307C48.0052 27.3281 47.0782 27.3684 46.1713 27.4893C46.1713 27.4893 44.2769 31.7215 44.6598 34.019C45.0226 36.1754 45.6272 39.3394 44.418 47.5821H50.0004H55.5828C54.3736 39.3394 54.9782 36.1754 55.341 34.019Z" fill="#E97A4A"/>
<path d="M51.693 24.9922H48.2871C48.8111 26.6044 48.3274 27.33 48.3274 27.33C48.3274 27.33 48.4282 28.3779 50.0001 28.3779C51.5519 28.3779 51.6527 27.33 51.6527 27.33C51.6527 27.33 51.169 26.6044 51.693 24.9922Z" fill="#E2A379"/>
<path d="M53.4867 20.3177C53.4867 16.2669 51.9147 15.3398 50.0002 15.3398C48.0655 15.3398 46.5137 16.2669 46.5137 20.3177C46.5137 21.6881 46.7555 22.7562 47.1183 23.5825C47.9244 25.3963 49.315 26.0412 50.0002 26.0412C50.6854 26.0412 52.0759 25.3963 52.8821 23.5825C53.2448 22.7562 53.4867 21.6881 53.4867 20.3177Z" fill="#F4B382"/>
<path d="M50.9867 24.387C50.9867 24.387 50.5434 24.6087 49.9992 24.6087C49.4551 24.6087 49.0117 24.387 49.0117 24.387C49.0117 24.3266 49.3342 23.9638 49.5357 23.9437C49.6566 23.9235 49.9992 24.0444 49.9992 24.0444C49.9992 24.0444 50.3217 23.9235 50.4627 23.9437C50.6643 23.9638 50.9867 24.387 50.9867 24.387Z" fill="#D6876B"/>
<path d="M50.9867 24.3878C50.9867 24.3878 50.5434 24.7909 49.9992 24.7909C49.4551 24.7909 49.0117 24.3878 49.0117 24.3878C49.0117 24.3878 49.1125 24.2669 49.6969 24.2266C49.7977 24.2266 49.9186 24.3072 49.9992 24.3072C50.0798 24.3072 50.1806 24.2266 50.2612 24.2266C50.8658 24.2669 50.9867 24.3878 50.9867 24.3878Z" fill="#CC785E"/>
<path d="M50 16.7881C51.0128 16.7881 51.8339 16.2286 51.8339 15.5386C51.8339 14.8485 51.0128 14.2891 50 14.2891C48.9871 14.2891 48.166 14.8485 48.166 15.5386C48.166 16.2286 48.9871 16.7881 50 16.7881Z" fill="#4C230C"/>
<path d="M53.6282 20.4789C53.6282 16.4281 52.5198 15.3398 50.0006 15.3398C47.4815 15.3398 46.373 16.4483 46.373 20.4789C46.373 20.4789 51.7539 19.31 51.7539 17.8388C51.7539 19.3302 53.6282 20.4789 53.6282 20.4789Z" fill="#602F0F"/>
<path d="M46.1719 21.7475C46.3532 22.8559 46.5951 22.8962 46.9377 22.8357L46.5749 20.4375C46.2323 20.498 45.9703 20.639 46.1719 21.7475Z" fill="#F4B382"/>
<path d="M53.4272 20.4375L53.0645 22.8357C53.4071 22.8962 53.6287 22.8357 53.8303 21.7475C54.0318 20.639 53.7698 20.498 53.4272 20.4375Z" fill="#F4B382"/>
<path d="M46.7761 20.6568C46.756 20.5359 46.756 20.4351 46.756 20.3343C46.756 20.2134 46.7761 20.1328 46.7761 20.1328L46.373 20.294C46.373 20.3545 46.373 20.415 46.373 20.4754C46.373 20.4754 46.4134 20.4553 46.494 20.4351C46.494 20.4351 46.494 20.4351 46.4738 20.4351C46.5343 20.5359 46.5947 20.6769 46.6753 20.8986C46.6753 20.8986 46.8366 21.0196 46.7761 20.6568Z" fill="#602F0F"/>
<path d="M53.2251 20.3545C53.2251 20.4351 53.2251 20.556 53.205 20.6568C53.1445 21.0196 53.3057 20.8986 53.3057 20.8986C53.3662 20.6769 53.4468 20.5359 53.5073 20.4351C53.5879 20.4553 53.6282 20.4754 53.6282 20.4754C53.6282 20.415 53.6282 20.3545 53.6282 20.294L53.2251 20.1328C53.205 20.1328 53.2251 20.2134 53.2251 20.3545Z" fill="#602F0F"/>
<path d="M54.192 86.0974C53.3858 85.8959 51.4713 84.3441 51.2093 84.2232C50.7659 84.0015 50.1009 83.8 50.1009 83.0946C50.1009 82.5908 50.1815 82.1071 50.1412 81.7847C50.0202 80.1119 49.3149 76.8874 49.1738 74.852C49.1537 74.3884 49.1335 73.9048 49.1134 73.4009C49.0932 71.4058 53.1843 72.615 53.1037 73.3405C52.8618 76.2425 52.2976 81.2808 52.0759 82.3086C52.0759 82.3086 55.0585 84.4046 54.9578 85.1704C54.9376 85.6138 54.9981 86.299 54.192 86.0974Z" fill="#F4B382"/>
<path d="M49.6177 66.8686C49.2751 69.1661 49.1341 71.3829 49.1542 73.3781C49.8193 73.1362 52.54 73.1161 53.1446 73.3176C53.205 72.5921 53.2453 72.0077 53.2655 71.6449C53.3259 69.8311 53.3259 67.0097 53.3259 67.0097C53.467 65.3773 56.4497 54.1117 56.228 51.653C56.0063 49.1943 55.5831 47.582 55.5831 47.582H52.9632C52.4392 49.1943 49.5976 48.8315 49.3154 50.4639C49.4767 54.031 49.7185 59.3918 49.5976 62.1125C49.517 63.7247 49.6177 66.8686 49.6177 66.8686Z" fill="#3D3C3C"/>
<path d="M43.8533 53.4674C41.838 53.7495 40.266 53.8503 38.0693 54.0317C37.7267 54.6363 37.4647 57.3368 37.5655 57.9615C36.3362 58.1832 30.1895 59.7753 30.1895 56.45C30.1895 51.573 44.9214 47.9454 44.4176 47.5625C44.4176 47.5625 50.6651 50.787 47.4809 52.6008C47.4809 52.6008 45.8686 53.2054 43.8533 53.4674Z" fill="#3D3C3C"/>
<path d="M35.3887 54.5359C35.3887 54.5359 37.3838 53.9716 39.1775 53.5686C39.1573 53.5887 37.928 53.3872 35.3887 54.5359Z" fill="#282828"/>
<path d="M49.6784 58.3466C49.6381 57.5203 49.7187 54.2555 49.7791 53.9532C49.8799 53.2277 49.5978 52.6634 48.9126 52.482C48.3886 52.3409 47.8646 52.4417 47.5623 52.5828C45.6679 53.3889 41.073 53.006 38.0702 53.8524C37.6066 53.9935 37.3446 58.0443 37.5663 57.9637C41.5365 56.5933 46.212 55.1019 47.6832 54.5981C47.6832 54.5981 47.8243 58.9109 48.5901 58.9512C49.0536 58.9915 49.7187 59.1729 49.6784 58.3466Z" fill="#E2A379"/>
</g>
<defs>
<clipPath id="clip0_4431_3223">
<rect width="100" height="100" fill="white" transform="translate(0 0.203125)"/>
</clipPath>
</defs>
</svg>
