<svg width="5716" height="968" viewBox="0 0 5716 968" fill="none" xmlns="http://www.w3.org/2000/svg">
<path d="M5715.29 534.258C5591.22 439.972 5427.88 395.077 5266.11 405.235C5214.25 408.57 5162.76 417.046 5112.25 430.56C4922.7 481.004 4745.12 591.471 4562.27 688.302C4549.23 695.218 4536.15 702.055 4523.03 708.816C4075.9 940.581 3549.17 1063.66 3070.6 836.069C2856.42 734.797 2663.02 568.499 2461.53 431.919C2392.6 384.864 2321.51 341.833 2248.56 303C2073.83 211.447 1895.33 154.484 1717.79 121.009C1633.76 104.941 1549.44 93.9543 1465.05 92.6446C1416.33 91.6052 1367.62 94.2047 1319.22 100.425C1098.78 129.113 884.756 242.772 666.858 322.899C448.94 403.027 200.692 444.597 1 297.147" stroke="#E97A4A" stroke-width="1.18077" stroke-miterlimit="10"/>
<path d="M5703.36 485.505C5577.24 398.627 5413.97 359.151 5253.25 374.049C5201.76 378.906 5150.76 388.793 5100.85 403.601C4913.55 458.849 4738.85 572.778 4558.4 672.676C4545.54 679.81 4532.62 686.868 4519.66 693.845C4077.83 933.182 3553.59 1062.64 3075.07 840.326C2860.69 741.318 2666.71 576.852 2464.67 442.824C2395.55 396.608 2324.23 354.578 2251.02 316.917C2075.6 228.226 1896.61 175.7 1719.02 147.334C1634.99 133.686 1550.81 125.274 1466.72 126.285C1418.18 126.599 1369.7 130.417 1321.61 137.717C1102.47 171.27 889.983 286.421 673.377 368.903C456.77 451.39 209.814 496.577 8.94922 353.056" stroke="#E97A4A" stroke-width="1.18077" stroke-miterlimit="10"/>
<path d="M5693.42 437.022C5565.16 357.254 5401.85 323.053 5242.06 342.744C5190.92 349.135 5140.37 360.469 5091 376.617C4905.84 436.843 4733.89 554.615 4555.73 657.91C4543.02 665.287 4530.26 672.585 4517.45 679.801C4080.62 927.499 3558.49 1063.77 3079.7 845.984C2864.96 748.908 2670.27 585.732 2467.54 453.803C2397.22 408.165 2325.85 366.247 2253.05 330.492C2076.83 244.362 1897.22 196.094 1719.46 172.741C1635.38 161.466 1551.29 155.599 1467.43 158.934C1419.02 160.6 1370.76 165.648 1322.92 174.052C1104.94 212.578 893.859 329.603 678.385 414.713C462.912 499.829 217.088 548.776 14.9121 408.707" stroke="#E97A4A" stroke-width="1.18077" stroke-miterlimit="10"/>
<path d="M5679.51 389.571C5549.24 316.85 5386.07 287.902 5227.37 312.432C5176.62 320.37 5126.59 333.167 5077.82 350.68C4894.98 415.959 4725.96 537.728 4550.27 644.543C4537.74 652.172 4525.15 659.72 4512.51 667.187C4081.12 923.548 3561.66 1066.8 3083.1 853.326C2868.22 758.078 2673.02 596.015 2469.82 466.049C2399.3 421.069 2327.74 379.918 2254.73 345.206C2077.89 261.555 1897.85 217.509 1720.1 199.159C1636.06 190.254 1552.13 186.935 1468.59 192.605C1420.39 195.628 1372.37 201.918 1324.85 211.437C1108.26 254.997 898.769 374.031 684.687 461.872C470.585 549.718 226.133 602.497 22.8633 465.735" stroke="#E97A4A" stroke-width="1.18077" stroke-miterlimit="10"/>
<path d="M5665.6 342.361C5533.27 277.006 5370.18 253.427 5212.52 282.7C5162.16 292.152 5112.62 306.355 5064.43 325.158C4883.85 395.206 4717.7 520.453 4544.41 630.329C4532.05 638.18 4519.63 645.944 4507.15 653.628C4081.06 917.551 3564.08 1067.18 3085.58 858.927C2870.5 765.921 2674.72 605.67 2470.97 478.229C2400.23 434.101 2328.45 393.896 2255.19 360.377C2077.68 279.565 1897.14 239.931 1719.35 226.667C1635.31 220.17 1551.51 219.413 1468.29 227.395C1420.25 231.767 1372.49 239.269 1325.24 249.864C1109.97 298.271 902.029 418.804 689.219 508.999C476.429 599.197 233.268 655.581 28.8262 522.718" stroke="#E97A4A" stroke-width="1.18077" stroke-miterlimit="10"/>
<path d="M5655.66 293.02C5521.23 234.817 5358.16 216.523 5201.48 250.633C5151.5 261.627 5102.43 277.282 5054.8 297.436C4876.41 372.468 4713.08 501.598 4542.13 614.887C4529.94 622.98 4517.68 630.989 4505.36 638.911C4084.41 911.239 3569.74 1067.71 3091.13 864.016C2875.76 772.954 2679.33 614.001 2474.97 488.672C2403.97 445.256 2331.95 405.866 2258.43 373.43C2080.17 295.198 1899.08 259.846 1721.18 251.621C1637.12 247.511 1553.42 249.311 1470.46 259.63C1422.6 265.361 1375.07 274.1 1328.09 285.806C1114.04 339.209 907.555 461.626 695.977 554.461C484.4 647.301 242.472 707.466 36.7773 578.075" stroke="#E97A4A" stroke-width="1.18077" stroke-miterlimit="10"/>
<path d="M5641.74 245.396C5505.26 194.503 5342.27 181.539 5186.63 220.395C5137.03 232.897 5088.46 249.961 5041.4 271.409C4865.27 351.204 4704.81 483.857 4536.27 600.234C4524.25 608.549 4512.16 616.777 4500 624.917C4084.34 904.873 3572.15 1067.74 3093.61 869.181C2878.03 780.319 2681.03 623.113 2476.11 500.254C2404.89 457.671 2332.66 419.209 2258.9 387.949C2079.96 312.516 1898.38 281.544 1720.43 278.381C1636.78 276.27 1553.1 281.374 1470.16 293.646C1422.48 300.719 1375.19 310.668 1328.5 323.451C1115.75 381.701 910.813 505.652 700.527 600.862C490.241 696.08 249.605 759.855 42.7383 634.3" stroke="#E97A4A" stroke-width="1.18077" stroke-miterlimit="10"/>
<path d="M5629.82 198.805C5491.29 155.15 5328.37 147.481 5173.77 191.128C5124.57 205.149 5076.48 223.635 5030 246.403C4856.11 331.046 4698.53 467.379 4532.4 586.982C4520.55 595.527 4508.62 603.986 4496.62 612.355C4086.26 900.261 3576.55 1069.71 3098.07 876.037C2882.29 789.262 2684.7 633.61 2479.25 513.067C2407.8 471.262 2335.35 433.678 2261.35 403.554C2081.73 330.823 1899.66 304.186 1721.66 306.07C1637.99 306.404 1554.45 313.934 1471.83 328.593C1424.34 337.014 1377.32 348.183 1330.89 362.057C1119.43 425.216 916.041 550.849 707.047 648.547C498.053 746.253 258.709 813.709 50.6895 691.83" stroke="#E97A4A" stroke-width="1.18077" stroke-miterlimit="10"/>
<path d="M5617.89 149.32C5477.26 112.864 5314.35 110.479 5160.75 158.963C5111.92 174.514 5064.31 194.444 5018.38 218.557C4846.68 308.116 4691.92 448.269 4528.14 571.211C4516.45 579.995 4504.68 588.69 4492.85 597.295C4087.63 893.43 3580.22 1069.63 3101.63 880.651C2885.57 795.881 2687.33 641.636 2481.26 523.293C2409.56 482.227 2336.87 445.489 2262.6 416.471C2082.24 346.374 1899.62 324.047 1721.51 330.979C1637.77 333.762 1554.37 343.726 1472.03 360.786C1425.08 370.516 1378.37 382.789 1331.74 397.94C1121.52 466.068 919.579 593.501 711.818 693.781C504.056 794.068 265.924 865.271 56.6523 746.951" stroke="#E97A4A" stroke-width="1.18077" stroke-miterlimit="10"/>
<path d="M5605.97 101.005C5463.23 71.731 5300.34 74.6326 5147.73 128.004C5099.28 145.097 5052.14 166.486 5006.76 191.964C4837.24 286.51 4685.31 430.588 4523.87 556.96C4512.35 565.99 4500.75 574.93 4489.07 583.775C4089 888.358 3583.9 1071.43 3105.2 887.035C2888.85 804.216 2689.97 651.273 2483.27 535.053C2411.33 494.703 2338.39 458.783 2263.85 430.854C2082.75 363.346 1899.57 345.325 1721.35 357.321C1637.57 362.557 1554.27 374.967 1472.21 394.441C1425.46 405.517 1378.91 419.142 1332.6 435.322C1123.6 508.471 923.137 637.799 716.608 740.733C510.039 843.674 273.139 918.676 62.6152 803.845" stroke="#E97A4A" stroke-width="1.18077" stroke-miterlimit="10"/>
<path d="M5596.03 53.9649C5451.19 31.9329 5288.3 40.1132 5136.69 98.2876C5088.63 116.894 5041.96 139.705 4997.13 166.507C4829.78 265.874 4680.69 413.638 4521.6 543.222C4510.24 552.483 4498.8 561.651 4487.28 570.723C4092.36 883.23 3589.56 1072.87 3110.75 893.378C2894.12 812.656 2694.59 661.279 2487.28 547.385C2415.08 507.819 2341.89 472.781 2267.1 445.989C2085.25 381.192 1901.51 367.507 1723.18 384.551C1639.36 392.236 1556.18 407.072 1474.39 428.929C1427.8 441.328 1381.49 456.174 1335.44 473.465C1127.68 551.517 928.683 682.514 723.366 787.927C518.03 893.346 282.323 972.023 70.5664 860.882" stroke="#E97A4A" stroke-width="1.18077" stroke-miterlimit="10"/>
<path d="M5580.13 6.47451C5433.29 -8.31126 5270.52 5.12805 5120.02 68.0565C5072.38 88.1549 5026.21 112.367 4981.96 140.471C4816.91 244.566 4670.77 395.894 4514.13 528.582C4502.95 538.066 4491.68 547.454 4480.33 556.745C4090.84 876.913 3590.7 1072.96 3112.13 898.5C2895.37 819.937 2695.33 670.247 2487.55 558.766C2415.15 520.014 2341.78 485.887 2266.77 460.253C2084.31 398.211 1900.15 388.869 1721.83 410.936C1638.03 421.06 1555.03 438.307 1473.58 462.523C1427.21 476.236 1381.13 492.286 1335.4 510.674C1129.01 593.556 931.623 726.114 727.658 833.914C523.693 941.724 289.377 1024.01 76.5273 916.633" stroke="#E97A4A" stroke-width="1.18077" stroke-miterlimit="10"/>
</svg>
