<svg width="60" height="60" viewBox="0 0 60 60" fill="none" xmlns="http://www.w3.org/2000/svg">
<path d="M29.9928 9.81641C26.1175 9.81641 22.9648 12.9691 22.9648 16.8443C22.9648 20.7195 26.1175 23.8722 29.9928 23.8722C33.868 23.8722 37.0207 20.7195 37.0207 16.8443C37.0207 12.9691 33.868 9.81641 29.9928 9.81641ZM29.9928 21.4818C27.4357 21.4818 25.3552 19.4014 25.3552 16.8443C25.3552 14.2871 27.4357 12.2068 29.9928 12.2068C32.55 12.2068 34.6303 14.2872 34.6303 16.8443C34.6303 19.4014 32.55 21.4818 29.9928 21.4818Z" fill="#F26221"/>
<path d="M13.1679 16.9688C9.98336 16.9688 7.39258 19.5595 7.39258 22.7441C7.39258 25.9287 9.98336 28.5195 13.1679 28.5195C16.3525 28.5195 18.9433 25.9287 18.9433 22.7441C18.9433 19.5595 16.3524 16.9688 13.1679 16.9688ZM13.1679 26.1289C11.3015 26.1289 9.78309 24.6105 9.78309 22.7441C9.78309 20.8777 11.3015 19.3593 13.1679 19.3593C15.0344 19.3593 16.5528 20.8778 16.5528 22.7441C16.5528 24.6104 15.0344 26.1289 13.1679 26.1289Z" fill="#F26221"/>
<path d="M46.8359 16.9688C43.6514 16.9688 41.0605 19.5595 41.0605 22.7441C41.0605 25.9287 43.6514 28.5195 46.8359 28.5195C50.0205 28.5195 52.6111 25.9287 52.6111 22.7441C52.6111 19.5595 50.0204 16.9688 46.8359 16.9688ZM46.8359 26.1289C44.9695 26.1289 43.4511 24.6105 43.4511 22.7441C43.4511 20.8777 44.9695 19.3593 46.8359 19.3593C48.7022 19.3593 50.2206 20.8778 50.2206 22.7441C50.2206 24.6104 48.7022 26.1289 46.8359 26.1289Z" fill="#F26221"/>
<path d="M58.8048 47.7934H55.4442V38.9934C55.4442 34.2473 51.5829 30.386 46.8367 30.386C44.1974 30.386 41.833 31.5811 40.253 33.4573C39.02 28.9488 34.888 25.625 29.9937 25.625C25.1036 25.625 20.9754 28.9509 19.7455 33.4618C18.1677 31.5829 15.805 30.386 13.1675 30.386C8.42145 30.386 4.56 34.2473 4.56 38.9934V47.7934H1.1952C0.535078 47.7934 0 48.3284 0 48.9886C0 49.6487 0.535078 50.1838 1.1952 50.1838H58.8048C59.4648 50.1838 60 49.6487 60 48.9886C60 48.3284 59.4648 47.7934 58.8048 47.7934ZM19.3718 47.7934H6.95039V38.9934C6.95039 35.5654 9.73934 32.7765 13.1674 32.7765C16.5885 32.7765 19.3717 35.5654 19.3717 38.9934V47.7934H19.3718ZM38.2295 47.7934H21.7622V36.2596C21.7622 31.7137 25.4548 28.0154 29.9937 28.0154C34.5396 28.0154 38.2379 31.7137 38.2379 36.2596L38.2295 47.7934ZM53.0537 47.7932H40.6283V38.6684C40.7979 35.3908 43.5178 32.7764 46.8368 32.7764C50.2648 32.7764 53.0537 35.5653 53.0537 38.9933V47.7932Z" fill="#F26221"/>
<path d="M24.2675 38.6172C23.6073 38.6172 23.0723 39.1523 23.0723 39.8124V45.5474C23.0723 46.2075 23.6073 46.7426 24.2675 46.7426C24.9276 46.7426 25.4627 46.2075 25.4627 45.5474V39.8125C25.4627 39.1525 24.9276 38.6172 24.2675 38.6172Z" fill="#F26221"/>
<path d="M24.2675 34.7949C23.6073 34.7949 23.0723 35.33 23.0723 35.9901V36.245C23.0723 36.9051 23.6073 37.4402 24.2675 37.4402C24.9276 37.4402 25.4627 36.9051 25.4627 36.245V35.9901C25.4627 35.33 24.9276 34.7949 24.2675 34.7949Z" fill="#F26221"/>
</svg>
