<svg width="61" height="60" viewBox="0 0 61 60" fill="none" xmlns="http://www.w3.org/2000/svg">
<g clip-path="url(#clip0_796_1184)">
<path d="M54.6836 12H42.6836V7H51.6836C52.2836 7 52.6836 6.6 52.6836 6C52.6836 2.6 50.0836 0 46.6836 0H6.68359C1.98359 0 0.683594 3.9 0.683594 6V59C0.683594 59.6 1.08359 60 1.68359 60H9.68359H41.6836H49.6836C50.2836 60 50.6836 59.6 50.6836 59V19H59.6836C60.2836 19 60.6836 18.6 60.6836 18C60.6836 14.6 58.0836 12 54.6836 12ZM50.5836 5H42.7836C42.8836 4.6 43.0836 4.2 43.2836 3.8L43.3836 3.7C43.4836 3.5 43.5836 3.4 43.7836 3.3C43.8836 3.2 43.8836 3.2 43.9836 3.1C44.0836 3 44.1836 2.9 44.3836 2.8C44.4836 2.8 44.4836 2.7 44.5836 2.7C44.6836 2.6 44.8836 2.5 45.0836 2.5C45.1836 2.5 45.1836 2.4 45.2836 2.4C45.4836 2.3 45.6836 2.3 45.7836 2.2C45.8836 2.2 45.8836 2.2 45.9836 2.2C46.1836 2.2 46.4836 2.1 46.7836 2.1C48.5836 2 50.1836 3.3 50.5836 5ZM2.68359 6C2.68359 5.8 2.68359 2 6.68359 2H42.1836C41.2836 3 40.6836 4.4 40.6836 6V12H14.6836C9.98359 12 8.68359 15.9 8.68359 18V58H2.68359V6ZM48.6836 58H41.6836H10.6836V18C10.6836 17.8 10.6836 14 14.6836 14H50.1836C49.2836 15 48.6836 16.4 48.6836 18V58ZM50.7836 17C50.8836 16.6 51.0836 16.2 51.2836 15.8L51.3836 15.7C51.4836 15.5 51.5836 15.4 51.7836 15.3C51.8836 15.2 51.8836 15.2 51.9836 15.1C52.0836 15 52.1836 14.9 52.3836 14.8C52.4836 14.8 52.4836 14.7 52.5836 14.7C52.6836 14.6 52.8836 14.5 53.0836 14.5C53.1836 14.5 53.1836 14.4 53.2836 14.4C53.4836 14.3 53.6836 14.3 53.7836 14.2C53.8836 14.2 53.8836 14.2 53.9836 14.2C54.1836 14.2 54.4836 14.1 54.7836 14.1C56.6836 14.1 58.2836 15.4 58.6836 17.1H50.7836V17Z" fill="#F26221"/>
<path d="M44.6836 35H39.6836V37H43.6836V45H31.6836C31.0836 45 30.6836 45.4 30.6836 46V53H27.6836V48C27.6836 47.4 27.2836 47 26.6836 47H15.6836V45H13.6836V54C13.6836 54.6 14.0836 55 14.6836 55H44.6836C45.2836 55 45.6836 54.6 45.6836 54V36C45.6836 35.4 45.2836 35 44.6836 35ZM15.6836 49H25.6836V53H15.6836V49ZM32.6836 53V47H43.6836V53H32.6836Z" fill="#F26221"/>
<path d="M15.6836 37H33.6836V35H14.6836C14.0836 35 13.6836 35.4 13.6836 36V39H15.6836V37Z" fill="#F26221"/>
<path d="M37.6836 42V31.4L38.9836 32.7L40.3836 31.3L37.3836 28.3C36.9836 27.9 36.3836 27.9 35.9836 28.3L32.9836 31.3L34.3836 32.7L35.6836 31.4V41H12.6836V43H36.6836C37.2836 43 37.6836 42.6 37.6836 42Z" fill="#F26221"/>
<path d="M36.6836 49H34.6836V51H36.6836V49Z" fill="#F26221"/>
<path d="M41.6836 49H39.6836V51H41.6836V49Z" fill="#F26221"/>
<path d="M20.6836 18H14.6836V20H20.6836V18Z" fill="#F26221"/>
<path d="M30.6836 22H14.6836V24H30.6836V22Z" fill="#F26221"/>
<path d="M36.6836 4H28.6836V6H36.6836V4Z" fill="#F26221"/>
<path d="M36.6836 8H24.6836V10H36.6836V8Z" fill="#F26221"/>
<path d="M41.6836 18H39.6836V20H41.6836V18Z" fill="#F26221"/>
<path d="M45.6836 18H43.6836V20H45.6836V18Z" fill="#F26221"/>
<path d="M41.6836 22H39.6836V24H41.6836V22Z" fill="#F26221"/>
<path d="M45.6836 22H43.6836V24H45.6836V22Z" fill="#F26221"/>
</g>
<defs>
<clipPath id="clip0_796_1184">
<rect width="60" height="60" fill="white" transform="translate(0.683594)"/>
</clipPath>
</defs>
</svg>
