<svg width="36" height="35" viewBox="0 0 36 35" fill="none" xmlns="http://www.w3.org/2000/svg">
<path opacity="0.8" fill-rule="evenodd" clip-rule="evenodd" d="M18.3001 2.28516C18.9042 2.28516 19.3939 2.76086 19.3939 3.34766V6.18099C19.3939 6.76779 18.9042 7.24349 18.3001 7.24349C17.6961 7.24349 17.2064 6.76779 17.2064 6.18099V3.34766C17.2064 2.76086 17.6961 2.28516 18.3001 2.28516ZM2.62305 17.5143C2.62305 16.9275 3.11274 16.4518 3.7168 16.4518H6.63346C7.23752 16.4518 7.72721 16.9275 7.72721 17.5143C7.72721 18.1011 7.23752 18.5768 6.63346 18.5768H3.7168C3.11274 18.5768 2.62305 18.1011 2.62305 17.5143ZM28.873 17.5143C28.873 16.9275 29.3628 16.4518 29.9668 16.4518H32.8835C33.4875 16.4518 33.9772 16.9275 33.9772 17.5143C33.9772 18.1011 33.4875 18.5768 32.8835 18.5768H29.9668C29.3628 18.5768 28.873 18.1011 28.873 17.5143ZM18.3001 27.7852C18.9042 27.7852 19.3939 28.2609 19.3939 28.8477V31.681C19.3939 32.2678 18.9042 32.7435 18.3001 32.7435C17.6961 32.7435 17.2064 32.2678 17.2064 31.681V28.8477C17.2064 28.2609 17.6961 27.7852 18.3001 27.7852Z" fill="#0168A8"/>
<g opacity="0.5">
<path d="M8.77738 8.26432C9.20451 7.84939 9.89704 7.84939 10.3242 8.26432L10.8248 8.75061C11.2519 9.16555 11.2519 9.83828 10.8248 10.2532C10.3976 10.6681 9.70511 10.6681 9.27797 10.2532L8.77738 9.76692C8.35025 9.352 8.35025 8.67925 8.77738 8.26432Z" fill="#0168A8"/>
<path d="M27.8247 8.26432C28.2519 8.67925 28.2519 9.352 27.8247 9.76692L27.3242 10.2532C26.8971 10.6681 26.2045 10.6681 25.7774 10.2532C25.3502 9.83828 25.3502 9.16555 25.7774 8.75061L26.278 8.26432C26.7052 7.84939 27.3976 7.84939 27.8247 8.26432Z" fill="#0168A8"/>
<path d="M10.8245 24.78C11.2516 25.1949 11.2516 25.8677 10.8245 26.2826L10.3242 26.7685C9.89705 27.1835 9.20451 27.1835 8.77738 26.7685C8.35025 26.3536 8.35025 25.681 8.77738 25.266L9.27766 24.78C9.70479 24.365 10.3973 24.365 10.8245 24.78Z" fill="#0168A8"/>
<path d="M25.7774 24.78C26.2045 24.365 26.8971 24.365 27.3242 24.78L27.8245 25.266C28.2516 25.681 28.2516 26.3536 27.8245 26.7685C27.3973 27.1835 26.7049 27.1835 26.2777 26.7685L25.7774 26.2826C25.3502 25.8677 25.3502 25.1949 25.7774 24.78Z" fill="#0168A8"/>
</g>
<path d="M11.0098 16.1819C11.0098 19.7835 13.9406 21.7028 16.0861 23.4207C16.8431 24.0269 17.5723 24.5977 18.3014 24.5977C19.0306 24.5977 19.7598 24.0269 20.5168 23.4207C22.6623 21.7028 25.5931 19.7835 25.5931 16.1819C25.5931 12.5803 21.5825 10.0261 18.3014 13.4887C15.0203 10.0261 11.0098 12.5803 11.0098 16.1819Z" fill="#0168A8"/>
</svg>
