<svg width="61" height="61" viewBox="0 0 61 61" fill="none" xmlns="http://www.w3.org/2000/svg">
<g clip-path="url(#clip0_796_1146)">
<path d="M29.2372 22.4075C28.7433 22.6545 28.5422 23.2545 28.7892 23.7484C28.9653 24.0994 29.3182 24.3015 29.6852 24.3015C29.8352 24.3015 29.9883 24.2675 30.1313 24.1965C30.2352 24.1435 32.6843 22.8895 32.6843 20.3015C32.6843 18.8875 31.9373 18.1395 31.3913 17.5945C30.9013 17.1045 30.6843 16.8635 30.6843 16.3014C30.6843 15.7394 30.9013 15.4985 31.3913 15.0084C31.9372 14.4634 32.6843 13.7154 32.6843 12.3014C32.6843 9.71343 30.2353 8.45941 30.1313 8.40738C29.6422 8.16339 29.0453 8.36038 28.7963 8.8494C28.5463 9.34042 28.7433 9.94042 29.2313 10.1934C29.2452 10.2005 30.6843 10.9594 30.6843 12.3014C30.6843 12.8634 30.4672 13.1043 29.9773 13.5944C29.4313 14.1395 28.6842 14.8875 28.6842 16.3014C28.6842 17.7154 29.4312 18.4634 29.9773 19.0085C30.4672 19.4984 30.6843 19.7395 30.6843 20.3015C30.6843 21.6435 29.2453 22.4024 29.2372 22.4075Z" fill="#F26221"/>
<path d="M22.6841 22.3016C22.6841 23.6346 21.2651 24.3916 21.2311 24.4095C20.7421 24.6586 20.5431 25.2566 20.7891 25.7485C20.9651 26.0995 21.3181 26.3015 21.6851 26.3015C21.8351 26.3015 21.9882 26.2675 22.1311 26.1965C22.2351 26.1436 24.6842 24.8895 24.6842 22.3016C24.6842 20.8876 23.9372 20.1396 23.3911 19.5946C22.9012 19.1046 22.6841 18.8636 22.6841 18.3015C22.6841 16.9595 24.1221 16.2005 24.1312 16.1965C24.6251 15.9495 24.8262 15.3485 24.5781 14.8545C24.3321 14.3605 23.7321 14.1585 23.2371 14.4075C23.1332 14.4595 20.6841 15.7136 20.6841 18.3015C20.6841 19.7155 21.4311 20.4635 21.9772 21.0085C22.4672 21.4985 22.6841 21.7396 22.6841 22.3016Z" fill="#F26221"/>
<path d="M38.684 22.3007C38.684 23.6337 37.266 24.3907 37.2321 24.4087C36.7421 24.6577 36.5431 25.2557 36.7891 25.7477C36.9651 26.0986 37.3181 26.3007 37.6851 26.3007C37.8351 26.3007 37.9881 26.2667 38.1311 26.1957C38.2361 26.1427 40.6842 24.8887 40.6842 22.3007C40.6842 20.8867 39.9372 20.1387 39.3911 19.5937C38.9011 19.1037 38.6841 18.8627 38.6841 18.3006C38.6841 16.9586 40.1221 16.1996 40.1311 16.1956C40.6251 15.9486 40.8262 15.3477 40.5781 14.8536C40.3301 14.3596 39.7301 14.1596 39.2371 14.4066C39.1321 14.4587 36.6841 15.7127 36.6841 18.3006C36.6841 19.7146 37.431 20.4626 37.9771 21.0077C38.467 21.4976 38.684 21.7387 38.684 22.3007Z" fill="#F26221"/>
<path d="M14.6833 32.3005C15.3673 32.3005 15.9963 32.6505 16.3683 33.2365C16.6533 33.6854 17.2403 33.8325 17.7064 33.5704C18.4904 33.1264 19.4014 33.2574 20.0274 33.8334C20.3113 34.0935 20.7184 34.1665 21.0754 34.0254C21.4314 33.8824 21.6754 33.5484 21.7014 33.1644C21.7734 32.1194 22.6434 31.3004 23.6834 31.3004C24.3544 31.3004 24.9774 31.6364 25.3494 32.1984C25.7205 32.7585 26.6465 32.7585 27.0164 32.1984C27.6985 31.1714 29.2894 31.0274 30.1444 31.9474C30.3813 32.2024 30.7324 32.3174 31.0744 32.2474C31.4143 32.1794 31.6964 31.9394 31.8164 31.6134C32.1054 30.8275 32.8554 30.3005 33.6834 30.3005C34.7855 30.3005 35.6835 31.1974 35.6824 32.2754C35.6794 32.2964 35.6685 32.3924 35.6664 32.4135C35.6403 32.7514 35.7874 33.0805 36.0583 33.2855C36.3273 33.4915 36.6853 33.5464 37.0033 33.4304C37.8683 33.1185 38.6074 33.3674 39.1444 33.9474C39.3813 34.2024 39.7333 34.3165 40.0744 34.2474C40.4143 34.1795 40.6964 33.9395 40.8164 33.6135C41.1054 32.8275 41.8554 32.3005 42.6834 32.3005C43.5774 32.3005 44.3674 32.9095 44.6034 33.7815C44.6773 34.0575 44.8674 34.2885 45.1224 34.4155C45.3774 34.5435 45.6754 34.5545 45.9414 34.4485C46.8514 34.0815 47.8625 34.4366 48.3684 35.2356C48.6523 35.6856 49.2404 35.8345 49.7054 35.5706C50.5644 35.0866 51.5713 35.2966 52.1713 35.9646C52.3683 36.1845 52.6423 36.2966 52.9154 36.2966C53.1543 36.2966 53.3934 36.2125 53.5833 36.0406C53.9943 35.6716 54.0293 35.0396 53.6603 34.6286C52.6353 33.4876 50.9753 33.0186 49.5144 33.4827C48.6503 32.6076 47.3934 32.1647 46.1554 32.3367C45.4584 31.1027 44.1404 30.3007 42.6834 30.3007C41.4644 30.3007 40.3295 30.8676 39.5835 31.7887C38.9665 31.4517 38.2654 31.2778 37.5574 31.3028C37.1134 29.5787 35.5444 28.3008 33.6834 28.3008C32.4654 28.3008 31.3324 28.8657 30.5864 29.7847C29.2234 29.0378 27.3965 29.2048 26.1835 30.1798C25.4835 29.6168 24.6065 29.3007 23.6835 29.3007C22.1185 29.3007 20.7455 30.2208 20.0955 31.5627C19.2804 31.2497 18.3585 31.2146 17.5146 31.4817C16.7716 30.7317 15.7626 30.3007 14.6836 30.3007C14.1316 30.3007 13.6836 30.7487 13.6836 31.3007C13.6836 31.8526 14.1312 32.3005 14.6833 32.3005Z" fill="#F26221"/>
<path d="M59.6834 38.3008H1.68355C1.1316 38.3008 0.683594 38.7488 0.683594 39.3007C0.683594 42.0577 2.92655 44.3008 5.68361 44.3008H6.73865C7.23763 48.7948 11.0586 52.3008 15.6837 52.3008H45.6835C50.3086 52.3008 54.1285 48.7948 54.6275 44.3008H55.6835C58.4404 44.3008 60.6835 42.0578 60.6835 39.3007C60.6834 38.7488 60.2364 38.3008 59.6834 38.3008ZM55.6833 42.3007H53.6833C53.1303 42.3007 52.6833 42.7487 52.6833 43.3007C52.6833 47.1607 49.5424 50.3006 45.6834 50.3006H15.6835C12.1625 50.3006 9.24153 47.6886 8.75462 44.3006H49.6835C50.2365 44.3006 50.6834 43.8526 50.6834 43.3007C50.6834 42.7487 50.2365 42.3007 49.6835 42.3007H5.68361C4.37956 42.3007 3.26757 41.4647 2.8546 40.3007H58.5124C58.0994 41.4647 56.9874 42.3007 55.6833 42.3007Z" fill="#F26221"/>
<path d="M1.28977 30.22L15.2898 36.2199C15.4177 36.2749 15.5518 36.302 15.6828 36.302C16.0717 36.302 16.4408 36.0739 16.6028 35.6949C16.8208 35.1869 16.5848 34.5989 16.0778 34.382L2.07785 28.382C1.56984 28.164 0.980863 28.4001 0.764887 28.907C0.546802 29.415 0.782817 30.0029 1.28977 30.22Z" fill="#F26221"/>
</g>
<defs>
<clipPath id="clip0_796_1146">
<rect width="60" height="60" fill="white" transform="translate(0.683594 0.302734)"/>
</clipPath>
</defs>
</svg>
