<svg width="60" height="61" viewBox="0 0 60 61" fill="none" xmlns="http://www.w3.org/2000/svg">
<path d="M51.4863 1.75781H29.7152C28.7445 1.75782 27.8135 2.14344 27.1271 2.82984C26.4407 3.51624 26.0551 4.44719 26.0551 5.41789V16.7095H23.5815C22.4965 16.7107 21.4562 17.1423 20.689 17.9095C19.9218 18.6768 19.4902 19.717 19.489 20.8021V25.4985C19.489 25.685 19.5631 25.8639 19.6949 25.9957C19.8268 26.1276 20.0056 26.2017 20.1921 26.2017C20.3786 26.2017 20.5574 26.1276 20.6893 25.9957C20.8212 25.8639 20.8952 25.685 20.8952 25.4985V20.8021C20.896 20.0899 21.1793 19.4071 21.6829 18.9035C22.1865 18.3999 22.8693 18.1166 23.5815 18.1158H26.0551V36.8228C25.9206 36.8419 25.791 36.863 25.6663 36.886C24.9379 36.1261 23.9243 35.7981 23.0666 35.6643C23.8243 34.3773 24.0247 32.7051 23.557 31.4003C23.1325 30.216 22.2337 29.3953 20.9575 29.0266C18.7421 28.3866 17.5727 29.3151 17.0101 30.0917C16.228 29.1296 15.0658 28.8843 13.7762 29.4235L13.7368 29.4414C12.1712 30.2121 11.4349 31.7135 11.6402 33.6929C10.8064 33.3887 9.56644 33.2447 7.9582 33.9043C6.34973 34.5638 5.32011 35.9723 5.20395 37.6717C5.1465 38.5411 5.33545 39.409 5.74908 40.1759C6.16271 40.9427 6.78426 41.5773 7.54232 42.0068C7.59421 42.0369 7.64354 42.0685 7.69418 42.0993C5.21402 42.8734 4.85547 43.7061 4.85547 44.3265V44.3896C4.85656 45.3944 5.15799 46.3759 5.72105 47.2081C6.28412 48.0402 7.0831 48.6851 8.01538 49.0597C9.71895 49.7563 12.7619 51.4278 14.0005 54.7961C14.0555 54.9453 14.1503 55.245 14.1985 55.3999C14.3672 56.476 15.5475 57.3418 17.7088 57.9738C19.6345 58.537 22.1601 58.8471 24.8203 58.8471C29.6321 58.8471 34.9783 57.7862 35.4339 55.4585C35.4932 55.269 35.6272 54.8512 35.7063 54.6507C36.0754 53.725 36.6002 52.8693 37.2581 52.1207H51.4863C51.9669 52.1207 52.4429 52.0261 52.8869 51.8421C53.331 51.6582 53.7345 51.3886 54.0744 51.0487C54.4142 50.7089 54.6838 50.3054 54.8678 49.8613C55.0517 49.4172 55.1464 48.9413 55.1464 48.4607V5.41789C55.1464 4.93724 55.0517 4.4613 54.8678 4.01724C54.6838 3.57318 54.4142 3.16969 54.0744 2.82982C53.7345 2.48995 53.331 2.22035 52.8869 2.03642C52.4429 1.85248 51.9669 1.75781 51.4863 1.75781ZM42.7589 3.58791H44.082C44.1743 3.58791 44.2658 3.60609 44.3511 3.64143C44.4364 3.67676 44.5139 3.72856 44.5792 3.79385C44.6445 3.85914 44.6963 3.93665 44.7316 4.02196C44.7669 4.10726 44.7851 4.1987 44.7851 4.29103C44.7851 4.38337 44.7669 4.4748 44.7316 4.56011C44.6963 4.64541 44.6445 4.72292 44.5792 4.78822C44.5139 4.85351 44.4364 4.9053 44.3511 4.94063C44.2658 4.97597 44.1743 4.99416 44.082 4.99416H42.7589C42.5725 4.99416 42.3936 4.92008 42.2618 4.78822C42.1299 4.65635 42.0558 4.47751 42.0558 4.29103C42.0558 4.10455 42.1299 3.92571 42.2618 3.79385C42.3936 3.66199 42.5725 3.58791 42.7589 3.58791ZM37.1194 3.58791H40.4271C40.5194 3.58791 40.6109 3.60609 40.6962 3.64143C40.7815 3.67676 40.859 3.72856 40.9243 3.79385C40.9896 3.85914 41.0414 3.93665 41.0767 4.02196C41.112 4.10726 41.1302 4.1987 41.1302 4.29103C41.1302 4.38337 41.112 4.4748 41.0767 4.56011C41.0414 4.64541 40.9896 4.72292 40.9243 4.78822C40.859 4.85351 40.7815 4.9053 40.6962 4.94063C40.6109 4.97597 40.5194 4.99416 40.4271 4.99416H37.1194C36.9329 4.99416 36.7541 4.92008 36.6222 4.78822C36.4904 4.65635 36.4163 4.47751 36.4163 4.29103C36.4163 4.10455 36.4904 3.92571 36.6222 3.79385C36.7541 3.66199 36.9329 3.58791 37.1194 3.58791ZM32.7244 39.2806C32.9034 39.3239 33.0783 39.3695 33.249 39.4175C34.6409 39.8101 35.3258 40.2369 35.5863 40.4681C35.3579 40.6885 34.7509 41.092 33.4923 41.4601C31.9719 41.9048 30.0127 42.1496 27.9756 42.1496C25.9385 42.1496 23.9794 41.9047 22.459 41.4601C21.2003 41.092 20.5934 40.6885 20.365 40.4681C20.6255 40.2369 21.3104 39.8101 22.7023 39.4175C22.789 39.3931 22.8787 39.3702 22.9678 39.347C23.7709 39.9896 25.6358 40.4403 27.8079 40.4403C30.0541 40.4403 31.97 39.9582 32.7244 39.2806ZM28.3099 38.4597C28.3099 38.1191 28.9213 37.843 29.6755 37.843C30.4298 37.843 31.0413 38.1191 31.0413 38.4597C31.0413 38.8004 30.4298 39.0765 29.6755 39.0765C28.9213 39.0765 28.3099 38.8004 28.3099 38.4597ZM14.9211 43.4497C14.9182 43.1287 14.9852 42.8109 15.1175 42.5184C15.2497 42.2259 15.444 41.9657 15.6869 41.7558C16.5748 40.9898 17.7219 40.5922 18.8934 40.6444C19.0928 41.6988 20.8237 42.6101 23.3339 43.1204C22.1634 44.0792 20.6202 44.6931 19.3675 45.0673L15.003 45.0444C14.9523 44.4981 14.9245 43.965 14.9211 43.4497ZM6.607 37.7676C6.64393 37.2052 6.84101 36.6651 7.17497 36.2111C7.50894 35.7571 7.96584 35.4081 8.49173 35.2054C9.5946 34.7533 10.5678 34.7207 11.3837 35.1085C11.58 35.202 11.7982 35.2401 12.0146 35.2188C12.2311 35.1974 12.4376 35.1174 12.6119 34.9874C12.7862 34.8573 12.9217 34.6821 13.0038 34.4807C13.0859 34.2793 13.1115 34.0594 13.0778 33.8445C12.8353 32.3073 13.2595 31.2537 14.3386 30.7126C15.1047 30.398 15.6239 30.5237 16.0214 31.118C16.133 31.2868 16.2856 31.4246 16.4649 31.5184C16.6442 31.6122 16.8444 31.659 17.0467 31.6545C17.249 31.6499 17.4469 31.5941 17.6218 31.4923C17.7967 31.3904 17.9429 31.2459 18.0467 31.0722C18.5333 30.2554 19.3577 30.0282 20.5673 30.3776C21.4032 30.6191 21.9637 31.1228 22.2332 31.8748C22.5851 32.8566 22.3774 34.2038 21.7277 35.1507C21.6101 35.3212 21.5387 35.5193 21.5206 35.7256C21.5026 35.932 21.5384 36.1395 21.6246 36.3278C21.7109 36.5161 21.8446 36.6788 22.0126 36.7999C22.1807 36.921 22.3773 36.9964 22.5832 37.0187C23.0643 37.0626 23.5347 37.1862 23.9753 37.3844C23.6718 37.5065 23.3849 37.6664 23.1213 37.8603C21.6039 38.2084 20.3327 38.7058 19.5868 39.2899C17.8286 39.0669 16.4873 39.5251 15.5265 40.1263C15.4951 40.1456 15.4587 40.1555 15.4218 40.1545C15.3849 40.1535 15.3491 40.1418 15.3187 40.1209C15.2883 40.0999 15.2647 40.0705 15.2508 40.0363C15.2369 40.0022 15.2332 39.9647 15.2402 39.9284C15.9121 36.3802 17.4105 34.1937 17.442 34.1498C17.5497 33.9974 17.5924 33.8084 17.5608 33.6244C17.5291 33.4405 17.4257 33.2767 17.2733 33.169C17.1978 33.1156 17.1125 33.0777 17.0224 33.0573C16.9322 33.0369 16.839 33.0345 16.7479 33.0502C16.5639 33.0818 16.4001 33.1853 16.2924 33.3377C16.2043 33.4627 14.9531 35.2699 14.1589 38.2751C14.1478 38.3173 14.1255 38.3557 14.0943 38.3861C14.0631 38.4166 14.0242 38.438 13.9818 38.448C13.9394 38.4581 13.895 38.4564 13.8535 38.4432C13.8119 38.43 13.7748 38.4057 13.746 38.373C13.0409 37.5716 12.1145 36.9968 11.0834 36.721C10.9012 36.6809 10.7106 36.7148 10.5535 36.8152C10.3964 36.9156 10.2856 37.0744 10.2455 37.2565C10.2054 37.4386 10.2393 37.6292 10.3397 37.7864C10.4401 37.9435 10.5989 38.0543 10.781 38.0944C11.3768 38.2673 11.925 38.5742 12.3839 38.9917C12.8427 39.4091 13.1999 39.926 13.4282 40.5028C13.5642 40.8341 13.6186 41.1932 13.587 41.55C13.4858 42.7102 13.4867 43.877 13.5898 45.037L11.9402 45.0284C11.609 44.2836 11.1971 43.5774 10.7121 42.9224C10.0427 42.0529 9.20445 41.3276 8.24768 40.7903C7.7176 40.4918 7.28246 40.0498 6.99224 39.5151C6.70203 38.9804 6.5685 38.3747 6.607 37.7676ZM34.3983 54.1346C34.2762 54.4441 34.0555 55.1794 34.0555 55.1794C33.9287 55.9686 30.6453 57.4408 24.8204 57.4408C22.29 57.4408 19.9045 57.1508 18.1035 56.624C16.1785 56.0611 15.615 55.4256 15.5859 55.1682C15.5859 55.1682 15.4085 54.5505 15.3204 54.3108C13.8956 50.4363 10.4655 48.5423 8.54758 47.7581C7.87417 47.4885 7.29674 47.0238 6.88943 46.4235C6.48212 45.8233 6.26353 45.115 6.26173 44.3897V44.3524C6.3645 44.1564 7.06001 43.6774 9.07514 43.1767C9.25885 43.3613 9.42984 43.5581 9.58693 43.7659C9.81589 44.0718 10.0252 44.392 10.2136 44.7246C9.75034 44.6308 9.29397 44.506 8.84753 44.3509C8.76069 44.3184 8.66828 44.3034 8.57562 44.3067C8.48295 44.3101 8.39187 44.3317 8.3076 44.3704C8.22334 44.4091 8.14756 44.4641 8.08463 44.5322C8.0217 44.6003 7.97286 44.6802 7.94093 44.7672C7.90899 44.8543 7.89459 44.9468 7.89855 45.0394C7.90251 45.1321 7.92476 45.223 7.96401 45.307C8.00326 45.391 8.05874 45.4664 8.12725 45.5289C8.19576 45.5914 8.27596 45.6397 8.36322 45.6711C10.846 46.5818 17.5854 47.2179 24.7523 47.2179C31.4273 47.2179 37.8706 46.6703 40.7856 45.8554C40.9641 45.8042 41.115 45.6845 41.2056 45.5224C41.2961 45.3603 41.3189 45.169 41.2689 44.9902C41.2189 44.8114 41.1002 44.6596 40.9388 44.568C40.7773 44.4764 40.5862 44.4523 40.407 44.5011C39.4784 44.7417 38.5358 44.9245 37.5846 45.0483C36.5136 44.1261 35.3195 43.3575 34.0367 42.7643C34.4606 42.6374 34.8756 42.4824 35.279 42.3005C36.1905 42.4011 37.0566 42.5152 37.8646 42.6429C42.0119 43.2984 43.2394 44.0863 43.3789 44.3524V44.3897C43.3771 45.1151 43.1585 45.8234 42.7512 46.4236C42.3439 47.0238 41.7664 47.4885 41.093 47.7581C39.2322 48.5189 35.8881 50.359 34.3983 54.1346ZM53.2259 47.9462C53.2259 48.5041 53.0043 49.0391 52.6098 49.4336C52.2153 49.8281 51.6803 50.0497 51.1224 50.0497H39.7074C40.3172 49.6656 40.9588 49.3344 41.6251 49.0597C42.5574 48.685 43.3564 48.0402 43.9195 47.208C44.4826 46.3759 44.7841 45.3944 44.7852 44.3896V44.3264C44.7852 43.4924 44.1396 42.2746 38.5576 41.3311C38.0259 41.2412 37.466 41.158 36.8862 41.0801C37.0089 40.889 37.0758 40.6673 37.0793 40.4402C37.0793 39.2913 35.0084 38.288 32.3046 37.7479L32.3044 37.7478C32.3044 37.7478 30.9433 36.7748 27.9756 36.7146V29.3515H31.3608C31.5219 30.3431 32.0185 31.2492 32.7676 31.9185C33.5168 32.5877 34.473 32.9795 35.4763 33.0282C36.4797 33.077 37.4693 32.7797 38.2798 32.1862C39.0902 31.5927 39.6724 30.7389 39.9288 29.7677C39.9542 29.6667 39.9561 29.5613 39.9345 29.4594C39.9128 29.3576 39.8682 29.262 39.804 29.1801C39.7397 29.0981 39.6576 29.032 39.5639 28.9867C39.4701 28.9413 39.3673 28.9181 39.2631 28.9186H39.2257C39.0737 28.9196 38.9263 28.9708 38.8063 29.0641C38.6863 29.1574 38.6005 29.2876 38.562 29.4347C38.4218 29.9467 38.1473 30.412 37.767 30.7823C37.3866 31.1527 36.9141 31.4146 36.3985 31.541C35.8829 31.6675 35.3429 31.6538 34.8343 31.5014C34.3258 31.349 33.8672 31.0635 33.506 30.6744C33.1449 30.2852 32.8943 29.8067 32.7803 29.2882C32.6662 28.7697 32.6928 28.2301 32.8573 27.7254C33.0217 27.2206 33.3182 26.769 33.7158 26.4172C34.1134 26.0655 34.5979 25.8264 35.1189 25.7248C35.2779 25.6964 35.422 25.6133 35.5262 25.4899C35.6304 25.3665 35.6883 25.2106 35.6898 25.0491V25.0137C35.6898 24.9129 35.6676 24.8134 35.6248 24.7222C35.582 24.631 35.5196 24.5504 35.4421 24.486C35.3646 24.4216 35.2739 24.3751 35.1764 24.3497C35.0789 24.3244 34.977 24.3208 34.878 24.3392C33.9929 24.5076 33.181 24.9437 32.552 25.5887C31.923 26.2337 31.5074 27.0563 31.3614 27.9453H27.9756V18.1158H31.3661C31.5333 19.1037 32.0339 20.0045 32.7845 20.6683C33.535 21.3321 34.4903 21.7188 35.4912 21.7641C36.4922 21.8093 37.4785 21.5104 38.2859 20.917C39.0932 20.3237 39.6731 19.4717 39.9288 18.5029C39.9542 18.4019 39.9561 18.2964 39.9345 18.1946C39.9128 18.0928 39.8682 17.9972 39.804 17.9153C39.7397 17.8333 39.6576 17.7672 39.5639 17.7218C39.4701 17.6765 39.3673 17.6533 39.2631 17.6538H39.2257C39.0737 17.6548 38.9263 17.706 38.8063 17.7992C38.6863 17.8925 38.6005 18.0228 38.562 18.1698C38.4218 18.6819 38.1473 19.1472 37.767 19.5175C37.3866 19.8878 36.9141 20.1498 36.3985 20.2762C35.8829 20.4026 35.3429 20.389 34.8343 20.2366C34.3258 20.0842 33.8672 19.7987 33.506 19.4096C33.1449 19.0204 32.8943 18.5419 32.7803 18.0234C32.6662 17.5049 32.6928 16.9653 32.8573 16.4606C33.0217 15.9558 33.3182 15.5042 33.7158 15.1524C34.1134 14.8007 34.5979 14.5616 35.1189 14.46C35.2779 14.4315 35.422 14.3485 35.5262 14.2251C35.6304 14.1017 35.6883 13.9458 35.6898 13.7843V13.7489C35.6898 13.6481 35.6676 13.5486 35.6248 13.4574C35.582 13.3662 35.5196 13.2855 35.4421 13.2212C35.3646 13.1568 35.2739 13.1103 35.1764 13.0849C35.0789 13.0595 34.977 13.056 34.878 13.0744C33.9881 13.2437 33.1722 13.6838 32.542 14.3345C31.9117 14.9852 31.498 15.8147 31.3572 16.7096H27.9756V8.82595C27.9756 8.26807 28.1972 7.73303 28.5917 7.33854C28.9862 6.94406 29.5212 6.72244 30.0791 6.72244H51.1224C51.6802 6.72244 52.2153 6.94406 52.6098 7.33854C53.0042 7.73303 53.2259 8.26807 53.2259 8.82595L53.2259 47.9462Z" fill="#F26221"/>
<path d="M39.2678 25.1419C37.6575 25.8168 36.3377 27.1798 35.5928 28.079L35.1013 27.48C34.9627 27.3136 34.764 27.2086 34.5483 27.1881C34.3327 27.1676 34.1178 27.2332 33.9503 27.3706C33.7829 27.508 33.6766 27.706 33.6546 27.9215C33.6326 28.137 33.6968 28.3524 33.833 28.5208L34.983 29.9221C35.06 30.0159 35.1569 30.0913 35.2665 30.1431C35.3762 30.1949 35.496 30.2218 35.6173 30.2217C35.6307 30.2217 35.6442 30.2214 35.6577 30.2207C35.7857 30.2144 35.9104 30.1781 36.0219 30.1149C36.1334 30.0517 36.2286 29.9633 36.2998 29.8567C36.3155 29.8332 37.8933 27.4969 39.9021 26.655C40.1027 26.5709 40.2617 26.4106 40.3441 26.2092C40.4266 26.0079 40.4256 25.782 40.3415 25.5813C40.2574 25.3807 40.097 25.2217 39.8957 25.1393C39.6943 25.0568 39.4684 25.0578 39.2678 25.1419Z" fill="#F26221"/>
<path d="M39.2678 13.9095C37.6575 14.5843 36.3377 15.9474 35.5928 16.8466L35.1013 16.2476C34.9627 16.0811 34.764 15.9762 34.5483 15.9557C34.3327 15.9352 34.1178 16.0008 33.9503 16.1382C33.7829 16.2756 33.6766 16.4736 33.6546 16.6891C33.6326 16.9046 33.6968 17.12 33.833 17.2883L34.983 18.6898C35.06 18.7835 35.1569 18.859 35.2665 18.9108C35.3762 18.9626 35.496 18.9894 35.6173 18.9893C35.6307 18.9893 35.6442 18.989 35.6577 18.9884C35.7857 18.982 35.9104 18.9458 36.0219 18.8826C36.1334 18.8194 36.2286 18.7309 36.2998 18.6244C36.3155 18.6009 37.8933 16.2644 39.9021 15.4226C40.0014 15.381 40.0916 15.3202 40.1674 15.2437C40.2433 15.1672 40.3033 15.0765 40.3441 14.9768C40.385 14.8771 40.4057 14.7703 40.4053 14.6626C40.4048 14.5549 40.3832 14.4483 40.3415 14.3489C40.2999 14.2496 40.2391 14.1594 40.1626 14.0835C40.0861 14.0077 39.9954 13.9476 39.8957 13.9068C39.796 13.866 39.6892 13.8453 39.5815 13.8457C39.4738 13.8462 39.3671 13.8678 39.2678 13.9095Z" fill="#F26221"/>
<path d="M49.5881 15.334H42.7598C42.5733 15.334 42.3944 15.4081 42.2626 15.5399C42.1307 15.6718 42.0566 15.8506 42.0566 16.0371C42.0566 16.2236 42.1307 16.4024 42.2626 16.5343C42.3944 16.6662 42.5733 16.7402 42.7598 16.7402H49.5881C49.7746 16.7402 49.9534 16.6662 50.0853 16.5343C50.2172 16.4024 50.2912 16.2236 50.2912 16.0371C50.2912 15.8506 50.2172 15.6718 50.0853 15.5399C49.9534 15.4081 49.7746 15.334 49.5881 15.334Z" fill="#F26221"/>
<path d="M49.5881 18.3125H42.7598C42.5733 18.3125 42.3944 18.3866 42.2626 18.5184C42.1307 18.6503 42.0566 18.8291 42.0566 19.0156C42.0566 19.2021 42.1307 19.3809 42.2626 19.5128C42.3944 19.6447 42.5733 19.7188 42.7598 19.7188H49.5881C49.7746 19.7188 49.9534 19.6447 50.0853 19.5128C50.2172 19.3809 50.2912 19.2021 50.2912 19.0156C50.2912 18.8291 50.2172 18.6503 50.0853 18.5184C49.9534 18.3866 49.7746 18.3125 49.5881 18.3125Z" fill="#F26221"/>
<path d="M49.5881 26.3809H42.7598C42.5733 26.3809 42.3944 26.4549 42.2626 26.5868C42.1307 26.7187 42.0566 26.8975 42.0566 27.084C42.0566 27.2705 42.1307 27.4493 42.2626 27.5812C42.3944 27.713 42.5733 27.7871 42.7598 27.7871H49.5881C49.7746 27.7871 49.9534 27.713 50.0853 27.5812C50.2172 27.4493 50.2912 27.2705 50.2912 27.084C50.2912 26.8975 50.2172 26.7187 50.0853 26.5868C49.9534 26.4549 49.7746 26.3809 49.5881 26.3809Z" fill="#F26221"/>
<path d="M49.5881 29.3574H42.7598C42.5733 29.3574 42.3944 29.4315 42.2626 29.5634C42.1307 29.6952 42.0566 29.8741 42.0566 30.0605C42.0566 30.247 42.1307 30.4259 42.2626 30.5577C42.3944 30.6896 42.5733 30.7637 42.7598 30.7637H49.5881C49.7746 30.7637 49.9534 30.6896 50.0853 30.5577C50.2172 30.4259 50.2912 30.247 50.2912 30.0605C50.2912 29.8741 50.2172 29.6952 50.0853 29.5634C49.9534 29.4315 49.7746 29.3574 49.5881 29.3574Z" fill="#F26221"/>
</svg>
