<svg width="31" height="31" viewBox="0 0 31 31" fill="none" xmlns="http://www.w3.org/2000/svg">
<g clip-path="url(#clip0_4427_3157)">
<path d="M15.8203 0.890625C7.52994 0.890625 0.820312 7.59943 0.820312 15.8906C0.820312 24.1811 7.529 30.8906 15.8203 30.8906C24.1107 30.8906 30.8203 24.1818 30.8203 15.8906C30.8203 7.60019 24.1115 0.890625 15.8203 0.890625ZM21.2249 17.5557L14.1764 21.6284C13.5818 21.972 12.8486 21.9726 12.253 21.6289C11.6578 21.2855 11.2912 20.6505 11.2912 19.9634V11.8179C11.2912 11.1308 11.6579 10.4958 12.253 10.1524C12.5504 9.98068 12.8824 9.89484 13.2143 9.89484C13.5465 9.89484 13.8788 9.98086 14.1764 10.1528L21.2249 14.2254C21.8196 14.569 22.1859 15.2037 22.1859 15.8906C22.1859 16.5775 21.8196 17.2121 21.2249 17.5557Z" fill="#0168A8"/>
</g>
<defs>
<clipPath id="clip0_4427_3157">
<rect width="30" height="30" fill="white" transform="translate(0.820312 0.890625)"/>
</clipPath>
</defs>
</svg>
