<svg width="41" height="40" viewBox="0 0 41 40" fill="none" xmlns="http://www.w3.org/2000/svg">
<path d="M4.44336 32.9409V25.5356C4.44336 23.406 4.83215 21.1916 5.60973 18.8926C6.41088 16.5694 7.49478 14.3792 8.86144 12.3222C10.2517 10.241 11.8068 8.48642 13.5269 7.05859L19.4648 11.0154C18.0746 13.1692 16.9082 15.4198 15.9657 17.7673C15.0467 20.0905 14.599 22.6558 14.6226 25.463V32.9409H4.44336ZM22.3631 32.9409V25.5356C22.3631 23.406 22.7519 21.1916 23.5294 18.8926C24.3306 16.5694 25.4145 14.3792 26.7812 12.3222C28.1714 10.241 29.7265 8.48642 31.4466 7.05859L37.3845 11.0154C35.9943 13.1692 34.8279 15.4198 33.8854 17.7673C32.9665 20.0905 32.5188 22.6558 32.5423 25.463V32.9409H22.3631Z" fill="#356554"/>
</svg>
