<svg width="26" height="26" viewBox="0 0 26 26" fill="none" xmlns="http://www.w3.org/2000/svg">
<path d="M18.2375 0.703125H7.7625C3.2125 0.703125 0.5 3.41562 0.5 7.96562V18.4281C0.5 22.9906 3.2125 25.7031 7.7625 25.7031H18.225C22.775 25.7031 25.4875 22.9906 25.4875 18.4406V7.96562C25.5 3.41562 22.7875 0.703125 18.2375 0.703125ZM18.975 10.3281L11.8875 17.4156C11.7125 17.5906 11.475 17.6906 11.225 17.6906C10.975 17.6906 10.7375 17.5906 10.5625 17.4156L7.025 13.8781C6.6625 13.5156 6.6625 12.9156 7.025 12.5531C7.3875 12.1906 7.9875 12.1906 8.35 12.5531L11.225 15.4281L17.65 9.00313C18.0125 8.64063 18.6125 8.64063 18.975 9.00313C19.3375 9.36563 19.3375 9.95312 18.975 10.3281Z" fill="#0168A8"/>
</svg>
