<svg width="101" height="101" viewBox="0 0 101 101" fill="none" xmlns="http://www.w3.org/2000/svg">
<g clip-path="url(#clip0_4432_3296)">
<path d="M100.066 50.2033C100.066 22.5889 77.6811 0.203125 50.0662 0.203125C22.4521 0.203125 0.0664062 22.5889 0.0664062 50.2033C0.0664062 77.8178 22.4521 100.203 50.0662 100.203C77.6811 100.203 100.066 77.8174 100.066 50.2033Z" fill="#FFEFD6"/>
<path d="M49.7095 33.4177C49.7095 33.4177 45.416 36.8419 43.0136 38.9059C40.6119 40.969 40.5115 40.8665 35.6576 40.9178C30.8035 40.969 27.021 47.4089 21.5162 48.9048C16.0115 50.4007 16.9423 49.6302 15.4408 49.6813C13.9398 49.7335 12.6931 50.9928 13.2126 53.3126C14.4636 55.686 12.2136 58.1565 11.4128 58.97C10.6117 59.7835 9.55933 61.362 10.0599 63.5294C10.0599 63.5294 7.75757 63.6841 8.05835 64.9218C8.80581 68.0079 18.3527 58.247 19.2671 55.3897C19.781 53.4122 33.9566 52.2161 37.9591 49.5852C37.9591 49.5852 42.7625 50.6171 45.7148 48.2948C48.6671 45.9735 54.9009 44.244 58.4488 41.8311C58.4488 41.8311 58.8058 32.9339 49.7082 33.4175L49.7095 33.4177Z" fill="#E8B57F"/>
<path d="M86.4533 32.2868C86.4533 32.2868 83.943 39.8592 72.227 38.3217C72.227 38.3217 70.4969 37.8678 70.0045 35.9653L57.4176 43.9721C57.4176 43.9721 56.2143 37.4879 49.7109 33.417C49.7109 33.417 71.0957 16.6288 79.7133 22.1618C86.357 26.867 86.4533 32.2868 86.4533 32.2868Z" fill="#ED4C54"/>
<path d="M48.8984 35.4102C48.8984 35.4102 53.4098 44.5432 57.6391 43.8238C57.6391 43.8238 57.2207 36.2975 48.8984 35.4102Z" fill="#ED4C54"/>
<path d="M48.8986 35.4136C48.8986 35.4136 44.6044 38.8378 42.2027 40.9018C39.8009 42.9649 39.7005 42.8624 34.847 42.9138C29.9929 42.9649 26.2105 49.4048 20.7056 50.9007C15.2009 52.3966 16.1318 51.6261 14.6296 51.6772C13.1291 51.7294 11.8826 52.9888 12.4021 55.3085C13.6527 57.6819 11.4031 60.1524 10.6023 60.9659C9.80112 61.7794 8.74878 63.3579 9.24936 65.5253C9.24936 65.5253 6.94702 65.68 7.2478 66.9177C7.99546 70.004 17.5429 60.243 18.4574 57.3858C18.9712 55.4083 33.1468 54.2122 37.1494 51.5813C37.1494 51.5813 41.9527 52.6132 44.905 50.2909C47.8574 47.9696 54.0912 46.2399 57.639 43.8272C57.639 43.8272 57.996 34.93 48.8986 35.4136Z" fill="#FED298"/>
<path d="M86.4402 32.1797C86.4402 32.1797 87.391 40.4344 86.4402 45.0781C86.4402 45.0781 76.4846 45.9654 71.8789 39.9498L86.4402 32.1797Z" fill="#FED298"/>
<path d="M86.5209 32.9648C86.7289 35.1359 87.2131 41.3002 86.44 45.0764C86.44 45.0764 86.025 45.1133 85.3262 45.1211C86.5814 40.7311 86.5209 32.9648 86.5209 32.9648Z" fill="#E8B57F"/>
<path d="M52.5022 64.3779C52.5022 64.3779 53.5868 64.6299 53.6407 65.8873C53.695 67.1455 52.5022 67.1297 52.5022 67.1297C52.5022 67.1297 56.2026 69.6855 46.275 69.6855C42.3985 69.6855 40.818 67.4806 41.8754 63.708C41.8754 63.708 39.2452 63.5963 39.842 59.2084C40.4383 54.8199 44.6131 51.0187 47.3514 53.8701C47.3514 53.8701 47.2971 53.1713 48.5174 53.0592C48.5174 53.0592 47.4329 53.4793 47.6229 54.1494L52.5026 64.3787L52.5022 64.3779Z" fill="#4D4D4D"/>
<path d="M57.383 62.7844C57.383 62.7844 59.1381 63.4924 60.4332 62.1484L62.5172 69.3746C62.5172 69.3746 57.2742 68.9611 52.3945 67.0887C52.3945 67.0887 54.5902 66.0268 52.5031 64.3781C52.5031 64.3781 56.4879 62.5338 57.3828 62.7848L57.383 62.7844Z" fill="#E8B57F"/>
<path d="M47.3525 53.8686C47.3525 53.8686 50.0093 53.5612 50.8222 54.0085C51.6357 54.4563 52.5519 55.0356 54.124 54.3649C55.7961 53.7353 55.034 55.5919 55.034 55.7317C55.034 55.8712 55.5472 56.0964 55.9808 56.0964C56.4154 56.0964 56.2445 57.0269 56.2445 57.0269C56.2445 57.0269 56.8953 56.6616 57.1662 56.9419C57.4371 57.2216 57.4101 57.5022 57.7353 57.6976C58.0607 57.8933 60.6381 58.1126 58.6025 61.4983C56.7863 64.7403 54.5359 64.8243 52.5029 64.3774C52.5029 64.3774 52.8011 65.0479 52.0695 65.1874C51.3373 65.3272 48.7078 65.5798 47.9218 64.713C47.1355 63.8468 48.1652 63.2872 48.9521 63.2032L49.8193 63.4552L49.9816 62.7847C49.9816 62.7847 47.542 62.3103 46.6205 60.7724C46.6205 60.7724 47.4068 59.4583 46.6205 57.9212C45.8341 56.3843 47.3527 53.8688 47.3527 53.8688L47.3525 53.8686Z" fill="#FED298"/>
<path d="M59.3438 63.3109C59.3438 63.3109 59.6008 56.0719 66.5062 53.8445C70.4348 48.5631 72.2824 47.0545 71.8771 39.9492C71.8771 39.9492 82.2217 45.208 86.6818 43.4775C86.5522 60.6336 69.6818 78.1361 61.3057 68.8906L59.3438 63.3109Z" fill="#E97A4A"/>
<path d="M83.7633 56.1562C82.2469 59.5338 80.2457 62.6053 78.015 65.0945C77.1072 65.008 76.1195 64.8246 75.0918 64.5977C78.384 63.9322 82.2473 58.4811 83.7633 56.1562Z" fill="#C8C8C8"/>
<path d="M78.3951 65.1237C77.5093 65.2632 76.4037 69.23 77.6921 70.5981C77.6921 70.5981 66.6289 72.438 63.1943 70.3706C59.7597 68.303 60.5706 63.7024 64.1201 62.9411C67.9697 62.1794 74.1574 64.8433 78.3955 65.1235H78.3951V65.1237Z" fill="#EEF3F7"/>
<path d="M86.8436 32.2062C86.8436 32.2062 83.8162 41.2765 71.8775 39.9482C71.8775 39.9482 70.1107 39.5208 69.5742 37.5968L57.4156 43.974C57.4156 43.974 55.5836 39.4216 48.8965 35.4134C48.8965 35.4134 69.8602 18.33 80.4215 22.6882C87.2645 27.3378 86.8438 32.207 86.8438 32.207L86.8436 32.2062Z" fill="black"/>
<path d="M69.8893 38.3631L69.5742 37.5941C73.7453 36.052 74.9354 33.4102 74.9354 33.4102C74.2844 36.2889 69.7611 38.1904 69.8885 38.3625L69.8893 38.3631Z" fill="#ED4C54"/>
<path d="M83.6693 46.5005L81.3922 45.2585C80.7773 45.1919 80.5873 45.5654 80.9828 46.0845L83.074 47.9058L85.1422 49.7839L84.7297 64.963L77.2752 65.0062C76.5248 67.3607 77.4576 70.924 77.3459 70.6267L87.8513 69.8878C88.7875 69.8218 89.3504 69.3332 89.3535 68.8591C89.3957 63.0429 88.4728 54.3855 88.041 48.7865L88.0922 42.3064L87.4486 40.3187C87.2011 39.6091 86.7924 40.1539 86.8476 40.3556L87.3902 42.3332L87.1935 44.1662C87.1597 44.1476 87.125 44.1296 87.089 44.1134L87.0676 41.9652L86.0978 39.5C85.9097 38.8134 85.2361 39.1328 85.3744 39.5716L86.1215 41.9384L86.1441 44.0347C86.0974 44.0464 85.9869 44.0804 85.9427 44.1095L85.8398 42.2021L84.8976 39.9142C84.5457 39.2861 84.1324 39.6835 84.1226 39.9353C84.1226 40.2626 84.6109 41.75 84.8549 42.6572L83.6709 46.5011L83.6693 46.5005Z" fill="#FED298"/>
<path d="M66.8346 63.7812L75.1381 64.6092L77.2744 65.0066L65.3457 64.8816C65.357 64.1994 65.8086 63.8039 66.8346 63.7812Z" fill="#FEFEFE"/>
</g>
<defs>
<clipPath id="clip0_4432_3296">
<rect width="100" height="100" fill="white" transform="translate(0.0664062 0.203125)"/>
</clipPath>
</defs>
</svg>
