<svg width="100" height="101" viewBox="0 0 100 101" fill="none" xmlns="http://www.w3.org/2000/svg">
<g clip-path="url(#clip0_4432_3273)">
<path d="M0 50.2031C0 22.5933 22.3902 0.203125 50 0.203125C77.6098 0.203125 100 22.5933 100 50.2031C100 77.813 77.6098 100.203 50 100.203C22.3902 100.203 0 77.813 0 50.2031Z" fill="#FFEFD6"/>
<path d="M50.6964 7.28516C51.2413 10.312 52.0585 15.7907 52.0585 15.7907C53.9655 17.849 56.0238 19.9072 57.9004 21.9958C59.8073 24.0541 61.6235 26.1729 63.5001 28.2614L64.1055 28.9576L63.9239 30.0775C63.5607 32.4385 63.258 34.7995 62.925 37.1907C62.6223 39.5517 62.1986 41.9126 61.6235 44.2131C61.0484 46.5135 60.3522 48.8139 59.5955 51.0841C58.8387 53.3542 57.9609 55.6244 56.9621 57.8037L55.0249 57.4708C54.9341 54.9585 55.0551 52.5975 55.2368 50.176C55.4184 47.7848 55.7211 45.3935 56.0843 43.0326C56.4778 40.6716 57.0226 38.3712 57.6885 36.0405C58.2636 34.0125 58.869 32.0147 59.3836 29.9565C59.4441 29.684 56.8107 26.3545 55.2368 24.0238C53.6628 21.7234 51.9375 19.3927 50.3635 17.062L50.1516 16.729V16.4869C50.1213 13.4297 50.1213 10.3423 50.1516 7.28516H50.6964Z" fill="#F4B382"/>
<path d="M41.6172 75.6562L41.9804 78.7739L50.0016 80.8019L58.0229 78.7739L58.3861 75.6562H41.6172Z" fill="#302F2F"/>
<path d="M49.8494 7.34667C49.8797 10.4038 49.8797 13.4912 49.8494 16.5484V16.7905L49.6375 17.1235C48.0938 19.4542 46.3685 21.7849 44.7945 24.0853C43.4324 26.083 42.0401 28.0505 40.6477 30.0483C40.4358 30.3509 41.6768 33.7713 42.3428 36.0717C43.0087 38.3722 43.5535 40.7029 43.947 43.0638C44.3102 45.4248 44.6129 47.7858 44.7945 50.2073C44.9761 52.6288 45.0972 54.9897 45.0064 57.502L43.0692 57.835C42.0703 55.6556 41.1925 53.3552 40.4358 51.1153C39.6791 48.8452 38.9829 46.5447 38.4078 44.2443C37.8327 41.9439 37.4089 39.5829 37.1063 37.2219C36.8036 34.861 36.5009 32.4698 36.1074 30.1088L35.9258 28.9888L36.5312 28.2927C38.4078 26.2041 40.2239 24.0853 42.1309 22.027C44.0075 19.9385 46.0355 17.8802 47.9425 15.8219C47.9425 15.8219 48.7597 10.3433 49.3046 7.31641L49.8494 7.34667Z" fill="#F4B382"/>
<path d="M45.339 77.7222C49.5161 80.0529 54.2078 82.6257 55.4185 82.8376C60.5037 83.7457 64.2267 86.258 63.8332 87.2871C63.8332 87.2871 51.8468 85.5618 43.0386 83.7759C39.6182 83.11 42.1003 75.9363 45.339 77.7222Z" fill="#F4B382"/>
<path d="M45.3382 77.7144C42.0995 75.8983 39.224 74.2637 38.5278 74.0216C35.9852 73.053 29.992 70.8131 28.6602 75.2626C27.3283 79.6818 31.8686 80.5596 35.1074 81.8007C36.6814 82.406 39.6174 83.1022 43.0075 83.7984C43.5221 81.6493 44.2788 79.6213 45.3382 77.7144Z" fill="#3D3C3C"/>
<path d="M54.6634 77.7144C50.4863 80.0451 45.7946 82.6179 44.5839 82.8298C39.4987 83.7379 35.7756 86.2502 36.1691 87.2793C36.1691 87.2793 48.1556 85.554 56.9638 83.7681C60.3842 83.1022 57.9021 75.9285 54.6634 77.7144Z" fill="#F4B382"/>
<path d="M54.6621 77.7144C57.9009 75.8983 60.7764 74.2637 61.4726 74.0216C64.0152 73.053 70.0084 70.8131 71.3402 75.2626C72.672 79.6818 68.1317 80.5596 64.8929 81.8007C63.319 82.406 60.3829 83.1022 56.9928 83.7984C56.4782 81.6493 55.7215 79.6213 54.6621 77.7144Z" fill="#3D3C3C"/>
<path d="M58.0229 55.2875C58.598 51.8066 55.7527 45.4804 55.7527 45.4804C54.3906 45.2988 52.968 45.2383 51.9086 45.2383H48.0947C47.005 45.2383 45.6127 45.2988 44.2506 45.4804C44.2506 45.4804 41.4053 51.8369 41.9804 55.2875C42.5253 58.5263 43.4333 63.2785 41.6172 75.6584H50.0016H58.3861C56.57 63.2785 57.478 58.5263 58.0229 55.2875Z" fill="#0168A8"/>
<path d="M52.5432 41.7578H47.4277C48.2147 44.1793 47.4883 45.269 47.4883 45.269C47.4883 45.269 47.6396 46.843 50.0006 46.843C52.3313 46.843 52.4826 45.269 52.4826 45.269C52.4826 45.269 51.7562 44.149 52.5432 41.7578Z" fill="#E2A379"/>
<path d="M55.2367 34.7029C55.2367 28.6189 52.8757 27.2266 50.0002 27.2266C47.0944 27.2266 44.7637 28.6189 44.7637 34.7029C44.7637 36.7612 45.1269 38.3655 45.6717 39.6065C46.8825 42.3307 48.971 43.2993 50.0002 43.2993C51.0293 43.2993 53.1178 42.3307 54.3286 39.6065C54.8734 38.3655 55.2367 36.7612 55.2367 34.7029Z" fill="#F4B382"/>
<path d="M51.482 40.8217C51.482 40.8217 50.8161 41.1546 49.9988 41.1546C49.1815 41.1546 48.5156 40.8217 48.5156 40.8217C48.5156 40.7309 48.9999 40.186 49.3026 40.1557C49.4842 40.1255 49.9988 40.3071 49.9988 40.3071C49.9988 40.3071 50.4831 40.1255 50.695 40.1557C50.9977 40.186 51.482 40.8217 51.482 40.8217Z" fill="#D6876B"/>
<path d="M51.482 40.8203C51.482 40.8203 50.8161 41.4257 49.9988 41.4257C49.1815 41.4257 48.5156 40.8203 48.5156 40.8203C48.5156 40.8203 48.667 40.6387 49.5448 40.5781C49.6961 40.5781 49.8777 40.6992 49.9988 40.6992C50.1199 40.6992 50.2712 40.5781 50.3923 40.5781C51.3004 40.6387 51.482 40.8203 51.482 40.8203Z" fill="#CC785E"/>
<path d="M50.0006 29.4057C51.5218 29.4057 52.755 28.5655 52.755 27.529C52.755 26.4926 51.5218 25.6523 50.0006 25.6523C48.4793 25.6523 47.2461 26.4926 47.2461 27.529C47.2461 28.5655 48.4793 29.4057 50.0006 29.4057Z" fill="#4C230C"/>
<path d="M55.4495 34.9803C55.4495 28.8962 53.7847 27.2617 50.0011 27.2617C46.2175 27.2617 44.5527 28.9265 44.5527 34.9803C44.5527 34.9803 52.6345 33.2247 52.6345 31.015C52.6345 33.2247 55.4495 34.9803 55.4495 34.9803Z" fill="#602F0F"/>
<path d="M44.2521 36.8581C44.5245 38.5229 44.8877 38.5834 45.4023 38.4926L44.8574 34.8906C44.3429 34.9814 43.9494 35.1933 44.2521 36.8581Z" fill="#F4B382"/>
<path d="M55.1484 34.8906L54.6035 38.4926C55.1181 38.5834 55.451 38.4926 55.7537 36.8581C56.0564 35.1933 55.6629 34.9814 55.1484 34.8906Z" fill="#F4B382"/>
<path d="M45.1581 35.2167C45.1278 35.0351 45.1278 34.8837 45.1278 34.7324C45.1278 34.5508 45.1581 34.4297 45.1581 34.4297L44.5527 34.6718C44.5527 34.7626 44.5527 34.8534 44.5527 34.9443C44.5527 34.9443 44.6133 34.914 44.7343 34.8837C44.7343 34.8837 44.7343 34.8837 44.7041 34.8837C44.7949 35.0351 44.8857 35.2469 45.0068 35.5799C45.0068 35.6102 45.2489 35.7918 45.1581 35.2167Z" fill="#602F0F"/>
<path d="M54.8436 34.7626C54.8436 34.8837 54.8436 35.0653 54.8133 35.2167C54.7225 35.7615 54.9647 35.5799 54.9647 35.5799C55.0555 35.2469 55.1766 35.0351 55.2674 34.8837C55.3885 34.914 55.449 34.9443 55.449 34.9443C55.449 34.8534 55.449 34.7626 55.449 34.6718L54.8436 34.4297C54.8133 34.46 54.8436 34.581 54.8436 34.7626Z" fill="#602F0F"/>
</g>
<defs>
<clipPath id="clip0_4432_3273">
<rect width="100" height="100" fill="white" transform="translate(0 0.203125)"/>
</clipPath>
</defs>
</svg>
